SplineFontDB: 3.0
FontName: Laksaman-Bold
FullName: Laksaman Bold
FamilyName: Laksaman
Weight: Bold
Copyright: Laksaman, based on TH Sarabun New.\n\nCopyright (c) 2014 Theppitak Karoonboonyanan.\n\nTH Sarabun New:\n\nCopyright (c) 2010-2011 by Software Industry Promotion Agency (Public Organization) (SIPA). All rights reserved.\nCreated by : Suppakit CHALERMLARP.
Version: 3.0: 2014-04-30
ItalicAngle: 0
UnderlinePosition: -20
UnderlineWidth: 30
Ascent: 800
Descent: 200
LayerCount: 2
Layer: 0 1 "Back"  1
Layer: 1 1 "Fore"  0
XUID: [1021 373 914837695 7351316]
FSType: 0
OS2Version: 3
OS2_WeightWidthSlopeOnly: 0
OS2_UseTypoMetrics: 1
CreationTime: 1308745583
ModificationTime: 1398924765
PfmFamily: 33
TTFWeight: 700
TTFWidth: 5
LineGap: 30
VLineGap: 0
Panose: 2 11 5 0 4 2 0 2 0 3
OS2TypoAscent: 1279
OS2TypoAOffset: 0
OS2TypoDescent: -376
OS2TypoDOffset: 0
OS2TypoLinegap: 60
OS2WinAscent: 1270
OS2WinAOffset: 0
OS2WinDescent: 687
OS2WinDOffset: 0
HheadAscent: 1270
HheadAOffset: 0
HheadDescent: -687
HheadDOffset: 0
OS2SubXSize: 700
OS2SubYSize: 650
OS2SubXOff: 0
OS2SubYOff: 140
OS2SupXSize: 700
OS2SupYSize: 650
OS2SupXOff: 0
OS2SupYOff: 477
OS2StrikeYSize: 30
OS2StrikeYPos: 250
OS2FamilyClass: 2053
OS2Vendor: 'psk '
OS2CodePages: 60010183.80000000
OS2UnicodeRanges: a100006f.5000205a.00000000.00000000
Lookup: 4 0 0 "'frac' Diagonal Fractions in Latin lookup 0"  {"'frac' Diagonal Fractions in Latin lookup 0 subtable"  } ['frac' ('latn' <'dflt' > ) ]
Lookup: 4 0 1 "'rlig' Required Ligatures in Latin lookup 1"  {"'rlig' Required Ligatures in Latin lookup 1 subtable"  } ['rlig' ('latn' <'dflt' > ) ]
Lookup: 6 0 0 "'rlig' Required Ligatures in Latin lookup 2"  {"'rlig' Required Ligatures in Latin lookup 2 subtable"  } ['rlig' ('latn' <'dflt' > ) ]
Lookup: 6 0 0 "'rlig' Required Ligatures in Latin lookup 3"  {"'rlig' Required Ligatures in Latin lookup 3 subtable"  } ['rlig' ('latn' <'dflt' > ) ]

StartChar: .notdef
Encoding: 65536 -1 0
Width: 1049
VWidth: 1504
Flags: W
LayerCount: 2
Fore
SplineSet
970 0 m 1,0,-1
 80 0 l 1,1,-1
 80 1217 l 1,2,-1
 970 1217 l 1,3,-1
 970 0 l 1,0,-1
916 47 m 1,4,-1
 916 1170 l 1,5,-1
 134 1170 l 1,6,-1
 134 47 l 1,7,-1
 916 47 l 1,4,-1
EndSplineSet
EndChar

StartChar: exclam
Encoding: 33 33 2
Width: 252
VWidth: 1504
Flags: W
LayerCount: 2
Fore
SplineSet
167 209 m 1,0,-1
 83 209 l 1,1,-1
 72 716 l 1,2,-1
 181 716 l 1,3,-1
 167 209 l 1,0,-1
199 59 m 256,4,5
 199 29 199 29 177.5 7.5 c 128,-1,6
 156 -14 156 -14 126 -14 c 256,7,8
 96 -14 96 -14 75 7.5 c 128,-1,9
 54 29 54 29 54 59 c 256,10,11
 54 89 54 89 75 110 c 128,-1,12
 96 131 96 131 126 131 c 256,13,14
 156 131 156 131 177.5 110 c 128,-1,15
 199 89 199 89 199 59 c 256,4,5
EndSplineSet
EndChar

StartChar: quotedbl
Encoding: 34 34 3
Width: 437
VWidth: 1504
Flags: W
LayerCount: 2
Fore
SplineSet
344 501 m 1,0,-1
 275 501 l 1,1,-1
 256 791 l 1,2,-1
 363 791 l 1,3,-1
 344 501 l 1,0,-1
161 501 m 1,4,-1
 93 501 l 1,5,-1
 74 791 l 1,6,-1
 181 791 l 1,7,-1
 161 501 l 1,4,-1
EndSplineSet
EndChar

StartChar: numbersign
Encoding: 35 35 4
Width: 694
VWidth: 1504
Flags: W
LayerCount: 2
Fore
SplineSet
484 0 m 1,0,-1
 396 0 l 1,1,-1
 426 214 l 1,2,-1
 232 214 l 1,3,-1
 206 0 l 1,4,-1
 117 0 l 1,5,-1
 143 214 l 1,6,-1
 50 214 l 1,7,-1
 50 293 l 1,8,-1
 153 293 l 1,9,-1
 171 427 l 1,10,-1
 69 427 l 1,11,-1
 69 508 l 1,12,-1
 181 508 l 1,13,-1
 209 714 l 1,14,-1
 295 714 l 1,15,-1
 269 508 l 1,16,-1
 460 508 l 1,17,-1
 486 714 l 1,18,-1
 575 714 l 1,19,-1
 549 508 l 1,20,-1
 644 508 l 1,21,-1
 644 427 l 1,22,-1
 537 427 l 1,23,-1
 520 293 l 1,24,-1
 621 293 l 1,25,-1
 621 214 l 1,26,-1
 513 214 l 1,27,-1
 484 0 l 1,0,-1
433 293 m 1,28,-1
 451 427 l 1,29,-1
 259 427 l 1,30,-1
 242 293 l 1,31,-1
 433 293 l 1,28,-1
EndSplineSet
EndChar

StartChar: dollar
Encoding: 36 36 5
Width: 552
VWidth: 1504
Flags: W
LayerCount: 2
Fore
SplineSet
487 208 m 0,0,1
 487 145 487 145 442 93.5 c 128,-1,2
 397 42 397 42 320 26 c 1,3,-1
 320 -83 l 1,4,-1
 232 -83 l 1,5,-1
 232 23 l 1,6,7
 133 32 133 32 65 84 c 1,8,-1
 105 156 l 1,9,10
 171 103 171 103 263 104 c 0,11,12
 323 104 323 104 359.5 131.5 c 128,-1,13
 396 159 396 159 396 205 c 0,14,15
 396 276 396 276 274 326 c 0,16,17
 83 407 83 407 83 517 c 0,18,19
 83 582 83 582 125.5 628.5 c 128,-1,20
 168 675 168 675 244 690 c 1,21,-1
 244 802 l 1,22,-1
 331 802 l 1,23,-1
 331 692 l 1,24,25
 402 683 402 683 475 642 c 1,26,-1
 430 569 l 1,27,28
 379 613 379 613 290 612 c 0,29,30
 240 612 240 612 207 589 c 128,-1,31
 174 566 174 566 174 525 c 0,32,33
 174 468 174 468 307 409 c 0,34,35
 406 365 406 365 446.5 320.5 c 128,-1,36
 487 276 487 276 487 208 c 0,0,1
EndSplineSet
EndChar

StartChar: percent
Encoding: 37 37 6
Width: 1034
VWidth: 1504
Flags: W
LayerCount: 2
Fore
SplineSet
326 -14 m 1,0,-1
 235 -14 l 1,1,-1
 693 716 l 1,2,-1
 785 716 l 1,3,-1
 326 -14 l 1,0,-1
415 508 m 0,4,5
 415 288 415 288 236 289 c 0,6,7
 59 289 59 289 59 508 c 0,8,9
 59 729 59 729 236 730 c 0,10,11
 415 729 415 729 415 508 c 0,4,5
326 508 m 0,12,13
 326 649 326 649 236 650 c 0,14,15
 149 650 149 650 149 508 c 0,16,17
 149 370 149 370 236 370 c 0,18,19
 326 370 326 370 326 508 c 0,12,13
976 209 m 0,20,21
 976 -12 976 -12 796 -12 c 0,22,23
 617 -12 617 -12 617 209 c 0,24,25
 617 429 617 429 796 429 c 0,26,27
 976 429 976 429 976 209 c 0,20,21
886 209 m 0,28,29
 886 350 886 350 796 350 c 0,30,31
 707 350 707 350 707 209 c 0,32,33
 707 69 707 69 796 69 c 0,34,35
 886 69 886 69 886 209 c 0,28,29
EndSplineSet
EndChar

StartChar: ampersand
Encoding: 38 38 7
Width: 731
VWidth: 1504
Flags: W
LayerCount: 2
Fore
SplineSet
632 -21 m 1,0,-1
 529 72 l 1,1,2
 410 -14 410 -14 289 -14 c 0,3,4
 187 -14 187 -14 120 49.5 c 128,-1,5
 53 113 53 113 53 202 c 0,6,7
 53 336 53 336 196 414 c 1,8,9
 140 486 140 486 140 554 c 0,10,11
 140 632 140 632 195 686 c 128,-1,12
 250 740 250 740 335 740 c 0,13,14
 409 740 409 740 456.5 695.5 c 128,-1,15
 504 651 504 651 504 582 c 0,16,17
 504 463 504 463 332 384 c 1,18,19
 400 309 400 309 523 190 c 1,20,21
 597 286 597 286 608 400 c 1,22,-1
 687 400 l 1,23,24
 666 238 666 238 587 134 c 1,25,26
 658 69 658 69 713 21 c 1,27,-1
 632 -21 l 1,0,-1
417 578 m 0,28,29
 417 664 417 664 331 663 c 0,30,31
 286 663 286 663 259 633 c 128,-1,32
 232 603 232 603 232 560 c 256,33,34
 232 516 232 516 287 448 c 1,35,36
 417 513 417 513 417 578 c 0,28,29
469 128 m 1,37,38
 251 350 l 1,39,40
 147 291 147 291 147 208 c 0,41,42
 147 146 147 146 191 107 c 128,-1,43
 235 68 235 68 301 68 c 0,44,45
 400 68 400 68 469 128 c 1,37,38
EndSplineSet
EndChar

StartChar: quotesingle
Encoding: 39 39 8
Width: 254
VWidth: 1504
Flags: W
LayerCount: 2
Fore
SplineSet
161 501 m 1,0,-1
 93 501 l 1,1,-1
 74 791 l 1,2,-1
 181 791 l 1,3,-1
 161 501 l 1,0,-1
EndSplineSet
EndChar

StartChar: parenleft
Encoding: 40 40 9
Width: 367
VWidth: 1504
Flags: W
LayerCount: 2
Fore
SplineSet
244 -83 m 1,0,1
 67 101 67 101 66 353 c 0,2,3
 66 589 66 589 239 797 c 1,4,-1
 350 797 l 1,5,6
 159 588 159 588 159 353 c 0,7,8
 159 130 159 130 349 -83 c 1,9,-1
 244 -83 l 1,0,1
EndSplineSet
EndChar

StartChar: parenright
Encoding: 41 41 10
Width: 367
VWidth: 1504
Flags: W
LayerCount: 2
Fore
SplineSet
299 358 m 0,0,1
 299 111 299 111 122 -83 c 1,2,-1
 18 -83 l 1,3,4
 206 141 206 141 206 358 c 0,5,6
 206 576 206 576 17 797 c 1,7,-1
 120 797 l 1,8,9
 299 606 299 606 299 358 c 0,0,1
EndSplineSet
EndChar

StartChar: asterisk
Encoding: 42 42 11
Width: 515
VWidth: 1504
Flags: W
LayerCount: 2
Fore
SplineSet
400 417 m 1,0,-1
 323 372 l 1,1,-1
 257 501 l 1,2,-1
 191 372 l 1,3,-1
 114 417 l 1,4,-1
 208 532 l 1,5,-1
 59 519 l 1,6,-1
 59 597 l 1,7,-1
 208 585 l 1,8,-1
 114 701 l 1,9,-1
 191 746 l 1,10,-1
 257 617 l 1,11,-1
 323 746 l 1,12,-1
 400 701 l 1,13,-1
 307 585 l 1,14,-1
 456 597 l 1,15,-1
 456 520 l 1,16,-1
 307 532 l 1,17,-1
 400 417 l 1,0,-1
EndSplineSet
EndChar

StartChar: plus
Encoding: 43 43 12
Width: 627
VWidth: 1504
Flags: W
LayerCount: 2
Fore
SplineSet
361 0 m 1,0,-1
 266 0 l 1,1,-1
 266 236 l 1,2,-1
 44 236 l 1,3,-1
 44 319 l 1,4,-1
 266 319 l 1,5,-1
 266 546 l 1,6,-1
 361 546 l 1,7,-1
 361 319 l 1,8,-1
 584 319 l 1,9,-1
 584 236 l 1,10,-1
 361 236 l 1,11,-1
 361 0 l 1,0,-1
EndSplineSet
EndChar

StartChar: comma
Encoding: 44 44 13
Width: 258
VWidth: 1504
Flags: W
LayerCount: 2
Fore
SplineSet
206 56 m 0,0,1
 206 -93 206 -93 69 -161 c 1,2,-1
 38 -117 l 1,3,4
 118 -69 118 -69 129 -12 c 1,5,6
 57 -7 57 -7 57 63 c 0,7,8
 57 95 57 95 79 116.5 c 128,-1,9
 101 138 101 138 131 138 c 0,10,11
 163 138 163 138 184.5 115 c 128,-1,12
 206 92 206 92 206 56 c 0,0,1
EndSplineSet
EndChar

StartChar: hyphen
Encoding: 45 45 14
AltUni2: 0000ad.ffffffff.0
Width: 339
VWidth: 1504
Flags: W
LayerCount: 2
Fore
SplineSet
320 236 m 1,0,-1
 20 236 l 1,1,-1
 20 317 l 1,2,-1
 320 317 l 1,3,-1
 320 236 l 1,0,-1
EndSplineSet
EndChar

StartChar: period
Encoding: 46 46 15
Width: 258
VWidth: 1504
Flags: W
LayerCount: 2
Fore
SplineSet
202 59 m 256,0,1
 202 29 202 29 180.5 7.5 c 128,-1,2
 159 -14 159 -14 129 -14 c 256,3,4
 99 -14 99 -14 78 7.5 c 128,-1,5
 57 29 57 29 57 59 c 256,6,7
 57 89 57 89 78 110 c 128,-1,8
 99 131 99 131 129 131 c 256,9,10
 159 131 159 131 180.5 110 c 128,-1,11
 202 89 202 89 202 59 c 256,0,1
EndSplineSet
EndChar

StartChar: slash
Encoding: 47 47 16
Width: 415
VWidth: 1504
Flags: W
LayerCount: 2
Fore
SplineSet
51 -42 m 1,0,-1
 -45 -42 l 1,1,-1
 356 740 l 1,2,-1
 453 740 l 1,3,-1
 51 -42 l 1,0,-1
EndSplineSet
EndChar

StartChar: zero
Encoding: 48 48 17
Width: 568
VWidth: 1504
Flags: W
LayerCount: 2
Fore
SplineSet
525 353 m 256,0,1
 525 201 525 201 462 93.5 c 128,-1,2
 399 -14 399 -14 281 -14 c 0,3,4
 168 -14 168 -14 105 94 c 128,-1,5
 42 202 42 202 42 353 c 256,6,7
 42 505 42 505 105 613 c 128,-1,8
 168 721 168 721 281 721 c 0,9,10
 398 721 398 721 461.5 613 c 128,-1,11
 525 505 525 505 525 353 c 256,0,1
429 353 m 256,12,13
 429 479 429 479 392.5 558.5 c 128,-1,14
 356 638 356 638 284 638 c 0,15,16
 210 638 210 638 174 559 c 128,-1,17
 138 480 138 480 138 353 c 256,18,19
 138 227 138 227 174.5 148 c 128,-1,20
 211 69 211 69 283 69 c 0,21,22
 357 69 357 69 393 148 c 128,-1,23
 429 227 429 227 429 353 c 256,12,13
EndSplineSet
EndChar

StartChar: one
Encoding: 49 49 18
Width: 568
VWidth: 1504
Flags: W
LayerCount: 2
Fore
SplineSet
462 0 m 1,0,-1
 144 0 l 1,1,-1
 144 77 l 1,2,-1
 256 77 l 1,3,-1
 256 576 l 1,4,-1
 161 496 l 1,5,-1
 105 558 l 1,6,-1
 296 719 l 1,7,8
 352 719 352 719 352 647 c 2,9,-1
 352 77 l 1,10,-1
 462 77 l 1,11,-1
 462 0 l 1,0,-1
EndSplineSet
EndChar

StartChar: two
Encoding: 50 50 19
Width: 568
VWidth: 1504
Flags: W
LayerCount: 2
Fore
SplineSet
523 0 m 1,0,-1
 36 0 l 1,1,2
 48 66 48 66 62 108 c 1,3,4
 101 156 101 156 301 343 c 0,5,6
 424 459 424 459 424 532 c 0,7,8
 424 631 424 631 307 632 c 0,9,10
 191 632 191 632 168 498 c 1,11,-1
 80 520 l 1,12,13
 91 616 91 616 155 669 c 0,14,15
 215 719 215 719 308 719 c 0,16,17
 400 719 400 719 460 665 c 128,-1,18
 520 611 520 611 520 528 c 0,19,20
 520 454 520 454 442 361 c 0,21,22
 394 305 394 305 281 206 c 0,23,24
 180 117 180 117 158 84 c 1,25,-1
 542 84 l 1,26,-1
 523 0 l 1,0,-1
EndSplineSet
EndChar

StartChar: three
Encoding: 51 51 20
Width: 568
VWidth: 1504
Flags: W
LayerCount: 2
Fore
SplineSet
519 248 m 0,0,1
 519 131 519 131 435.5 59.5 c 128,-1,2
 352 -12 352 -12 217 -12 c 0,3,4
 115 -12 115 -12 39 51 c 1,5,-1
 81 128 l 1,6,7
 149 80 149 80 232 80 c 0,8,9
 310 80 310 80 367 129.5 c 128,-1,10
 424 179 424 179 424 245 c 0,11,12
 424 293 424 293 393.5 326.5 c 128,-1,13
 363 360 363 360 316 360 c 0,14,15
 260 360 260 360 209 316 c 1,16,-1
 168 382 l 1,17,18
 242 424 242 424 299 477 c 0,19,20
 367 540 367 540 367 579 c 0,21,22
 367 638 367 638 284 638 c 0,23,24
 230 638 230 638 184 603.5 c 128,-1,25
 138 569 138 569 119 522 c 1,26,-1
 51 557 l 1,27,28
 80 632 80 632 144 675.5 c 128,-1,29
 208 719 208 719 289 719 c 0,30,31
 361 719 361 719 409 681.5 c 128,-1,32
 457 644 457 644 457 581 c 0,33,34
 457 519 457 519 364 439 c 1,35,36
 435 425 435 425 477 374 c 128,-1,37
 519 323 519 323 519 248 c 0,0,1
EndSplineSet
EndChar

StartChar: four
Encoding: 52 52 21
Width: 568
VWidth: 1504
Flags: W
LayerCount: 2
Fore
SplineSet
344 241 m 1,0,-1
 344 608 l 1,1,2
 272 561 272 561 214 455.5 c 128,-1,3
 156 350 156 350 137 241 c 1,4,-1
 344 241 l 1,0,-1
441 0 m 1,5,-1
 344 0 l 1,6,-1
 344 159 l 1,7,-1
 42 159 l 1,8,9
 42 347 42 347 161 534.5 c 128,-1,10
 280 722 280 722 441 736 c 1,11,-1
 441 241 l 1,12,-1
 537 241 l 1,13,-1
 526 159 l 1,14,-1
 441 159 l 1,15,-1
 441 0 l 1,5,-1
EndSplineSet
EndChar

StartChar: five
Encoding: 53 53 22
Width: 568
VWidth: 1504
Flags: W
LayerCount: 2
Fore
SplineSet
520 253 m 0,0,1
 520 136 520 136 437.5 62 c 128,-1,2
 355 -12 355 -12 224 -12 c 0,3,4
 113 -12 113 -12 39 53 c 1,5,-1
 80 122 l 1,6,7
 164 69 164 69 235 69 c 0,8,9
 313 69 313 69 368.5 121 c 128,-1,10
 424 173 424 173 424 251 c 0,11,12
 424 316 424 316 382 351.5 c 128,-1,13
 340 387 340 387 269 387 c 256,14,15
 198 387 198 387 177 337 c 1,16,-1
 117 334 l 1,17,-1
 143 716 l 1,18,-1
 501 716 l 1,19,-1
 484 635 l 1,20,-1
 235 635 l 1,21,-1
 224 460 l 1,22,23
 251 472 251 472 289 472 c 0,24,25
 388 472 388 472 454 410.5 c 128,-1,26
 520 349 520 349 520 253 c 0,0,1
EndSplineSet
EndChar

StartChar: six
Encoding: 54 54 23
Width: 568
VWidth: 1504
Flags: W
LayerCount: 2
Fore
SplineSet
513 226 m 0,0,1
 513 125 513 125 452 56.5 c 128,-1,2
 391 -12 391 -12 296 -12 c 0,3,4
 191 -12 191 -12 122.5 61.5 c 128,-1,5
 54 135 54 135 54 257 c 0,6,7
 54 430 54 430 168.5 562.5 c 128,-1,8
 283 695 283 695 466 731 c 1,9,-1
 475 656 l 1,10,11
 380 630 380 630 294.5 563 c 128,-1,12
 209 496 209 496 171 414 c 1,13,14
 218 461 218 461 299 460 c 0,15,16
 389 460 389 460 451 392.5 c 128,-1,17
 513 325 513 325 513 226 c 0,0,1
426 226 m 256,18,19
 426 286 426 286 386.5 332.5 c 128,-1,20
 347 379 347 379 293 379 c 0,21,22
 236 379 236 379 196 334.5 c 128,-1,23
 156 290 156 290 156 226 c 0,24,25
 156 163 156 163 196 117.5 c 128,-1,26
 236 72 236 72 293 72 c 0,27,28
 347 72 347 72 386.5 119 c 128,-1,29
 426 166 426 166 426 226 c 256,18,19
EndSplineSet
EndChar

StartChar: seven
Encoding: 55 55 24
Width: 568
VWidth: 1504
Flags: W
LayerCount: 2
Fore
SplineSet
296 0 m 1,0,-1
 199 0 l 1,1,2
 211 420 211 420 411 635 c 1,3,-1
 42 635 l 1,4,-1
 65 716 l 1,5,-1
 532 716 l 1,6,-1
 519 635 l 1,7,8
 403 491 403 491 353 358 c 0,9,10
 296 206 296 206 296 0 c 1,0,-1
EndSplineSet
EndChar

StartChar: eight
Encoding: 56 56 25
Width: 568
VWidth: 1504
Flags: W
LayerCount: 2
Fore
SplineSet
430 197 m 0,0,1
 430 253 430 253 392.5 298 c 128,-1,2
 355 343 355 343 284 347 c 1,3,4
 213 342 213 342 175.5 297.5 c 128,-1,5
 138 253 138 253 138 197 c 0,6,7
 138 138 138 138 179 103.5 c 128,-1,8
 220 69 220 69 284 69 c 256,9,10
 349 69 349 69 389.5 103.5 c 128,-1,11
 430 138 430 138 430 197 c 0,0,1
409 534 m 0,12,13
 409 579 409 579 374.5 609 c 128,-1,14
 340 639 340 639 284 639 c 256,15,16
 228 639 228 639 193.5 609 c 128,-1,17
 159 579 159 579 159 534 c 0,18,19
 159 460 159 460 283 426 c 1,20,21
 409 460 409 460 409 534 c 0,12,13
522 202 m 0,22,23
 522 103 522 103 457.5 45.5 c 128,-1,24
 393 -12 393 -12 283 -12 c 0,25,26
 175 -12 175 -12 111 45 c 128,-1,27
 47 102 47 102 47 202 c 0,28,29
 47 262 47 262 80.5 313 c 128,-1,30
 114 364 114 364 167 388 c 1,31,32
 69 441 69 441 69 529 c 0,33,34
 69 612 69 612 130 666.5 c 128,-1,35
 191 721 191 721 284 721 c 256,36,37
 377 721 377 721 438 666.5 c 128,-1,38
 499 612 499 612 499 529 c 0,39,40
 499 440 499 440 402 388 c 1,41,42
 455 364 455 364 488.5 313 c 128,-1,43
 522 262 522 262 522 202 c 0,22,23
EndSplineSet
EndChar

StartChar: nine
Encoding: 57 57 26
Width: 568
VWidth: 1504
Flags: W
LayerCount: 2
Fore
SplineSet
513 450 m 0,0,1
 513 277 513 277 398.5 144.5 c 128,-1,2
 284 12 284 12 101 -24 c 1,3,-1
 92 51 l 1,4,5
 184 75 184 75 275 147.5 c 128,-1,6
 366 220 366 220 402 295 c 1,7,8
 358 247 358 247 268 247 c 256,9,10
 178 247 178 247 116 314.5 c 128,-1,11
 54 382 54 382 54 481 c 0,12,13
 54 582 54 582 115 650.5 c 128,-1,14
 176 719 176 719 271 719 c 0,15,16
 376 719 376 719 444.5 645.5 c 128,-1,17
 513 572 513 572 513 450 c 0,0,1
411 481 m 0,18,19
 411 544 411 544 371 589.5 c 128,-1,20
 331 635 331 635 274 635 c 0,21,22
 220 635 220 635 180.5 588.5 c 128,-1,23
 141 542 141 542 141 481 c 256,24,25
 141 421 141 421 180.5 374.5 c 128,-1,26
 220 328 220 328 274 328 c 0,27,28
 331 328 331 328 371 372 c 128,-1,29
 411 416 411 416 411 481 c 0,18,19
EndSplineSet
EndChar

StartChar: colon
Encoding: 58 58 27
Width: 258
VWidth: 1504
Flags: W
LayerCount: 2
Fore
SplineSet
202 59 m 256,0,1
 202 29 202 29 180.5 7.5 c 128,-1,2
 159 -14 159 -14 129 -14 c 256,3,4
 99 -14 99 -14 78 7.5 c 128,-1,5
 57 29 57 29 57 59 c 256,6,7
 57 89 57 89 78 110 c 128,-1,8
 99 131 99 131 129 131 c 256,9,10
 159 131 159 131 180.5 110 c 128,-1,11
 202 89 202 89 202 59 c 256,0,1
202 429 m 256,12,13
 202 399 202 399 180.5 377.5 c 128,-1,14
 159 356 159 356 129 356 c 256,15,16
 99 356 99 356 78 377.5 c 128,-1,17
 57 399 57 399 57 429 c 256,18,19
 57 459 57 459 78 480 c 128,-1,20
 99 501 99 501 129 501 c 256,21,22
 159 501 159 501 180.5 480 c 128,-1,23
 202 459 202 459 202 429 c 256,12,13
EndSplineSet
EndChar

StartChar: semicolon
Encoding: 59 59 28
Width: 258
VWidth: 1504
Flags: W
LayerCount: 2
Fore
SplineSet
202 429 m 256,0,1
 202 399 202 399 180.5 377.5 c 128,-1,2
 159 356 159 356 129 356 c 256,3,4
 99 356 99 356 78 377.5 c 128,-1,5
 57 399 57 399 57 429 c 256,6,7
 57 459 57 459 78 480 c 128,-1,8
 99 501 99 501 129 501 c 256,9,10
 159 501 159 501 180.5 480 c 128,-1,11
 202 459 202 459 202 429 c 256,0,1
206 56 m 0,12,13
 206 -93 206 -93 69 -161 c 1,14,-1
 38 -117 l 1,15,16
 118 -69 118 -69 129 -12 c 1,17,18
 57 -7 57 -7 57 63 c 0,19,20
 57 95 57 95 79 116.5 c 128,-1,21
 101 138 101 138 131 138 c 0,22,23
 163 138 163 138 184.5 115 c 128,-1,24
 206 92 206 92 206 56 c 0,12,13
EndSplineSet
EndChar

StartChar: less
Encoding: 60 60 29
Width: 627
VWidth: 1504
Flags: W
LayerCount: 2
Fore
SplineSet
573 -15 m 1,0,-1
 54 256 l 1,1,-1
 54 317 l 1,2,-1
 573 587 l 1,3,-1
 573 492 l 1,4,-1
 174 286 l 1,5,-1
 573 80 l 1,6,-1
 573 -15 l 1,0,-1
EndSplineSet
EndChar

StartChar: equal
Encoding: 61 61 30
Width: 627
VWidth: 1504
Flags: W
LayerCount: 2
Fore
SplineSet
558 335 m 1,0,-1
 69 335 l 1,1,-1
 69 414 l 1,2,-1
 558 414 l 1,3,-1
 558 335 l 1,0,-1
558 146 m 1,4,-1
 69 146 l 1,5,-1
 69 226 l 1,6,-1
 558 226 l 1,7,-1
 558 146 l 1,4,-1
EndSplineSet
EndChar

StartChar: greater
Encoding: 62 62 31
Width: 627
VWidth: 1504
Flags: W
LayerCount: 2
Fore
SplineSet
573 256 m 1,0,-1
 54 -15 l 1,1,-1
 54 80 l 1,2,-1
 454 287 l 1,3,-1
 54 492 l 1,4,-1
 54 587 l 1,5,-1
 573 317 l 1,6,-1
 573 256 l 1,0,-1
EndSplineSet
EndChar

StartChar: question
Encoding: 63 63 32
Width: 434
VWidth: 1504
Flags: W
LayerCount: 2
Fore
SplineSet
399 558 m 0,0,1
 399 477 399 477 299 376 c 0,2,3
 231 308 231 308 230 239 c 0,4,5
 230 216 230 216 241 176 c 1,6,-1
 155 176 l 1,7,8
 140 221 140 221 140 244 c 0,9,10
 140 318 140 318 222 412.5 c 128,-1,11
 304 507 304 507 304 555 c 0,12,13
 304 641 304 641 199 641 c 0,14,15
 134 641 134 641 74 597 c 1,16,-1
 36 671 l 1,17,18
 125 727 125 727 209 727 c 0,19,20
 295 727 295 727 347 681 c 128,-1,21
 399 635 399 635 399 558 c 0,0,1
275 59 m 256,22,23
 275 29 275 29 254 7.5 c 128,-1,24
 233 -14 233 -14 203 -14 c 256,25,26
 173 -14 173 -14 152 7.5 c 128,-1,27
 131 29 131 29 131 59 c 256,28,29
 131 89 131 89 152 110 c 128,-1,30
 173 131 173 131 203 131 c 256,31,32
 233 131 233 131 254 110 c 128,-1,33
 275 89 275 89 275 59 c 256,22,23
EndSplineSet
EndChar

StartChar: at
Encoding: 64 64 33
Width: 860
VWidth: 1504
Flags: W
LayerCount: 2
Fore
SplineSet
812 266 m 0,0,1
 812 146 812 146 725 74 c 0,2,3
 648 11 648 11 543 11 c 1,4,-1
 534 65 l 1,5,6
 463 2 463 2 373 2 c 0,7,8
 308 2 308 2 262.5 38.5 c 128,-1,9
 217 75 217 75 217 131 c 0,10,11
 217 295 217 295 516 302 c 1,12,13
 516 416 516 416 408 417 c 0,14,15
 349 417 349 417 299 385 c 1,16,-1
 274 438 l 1,17,18
 346 480 346 480 432 480 c 0,19,20
 512 480 512 480 554.5 427.5 c 128,-1,21
 597 375 597 375 597 284 c 2,22,-1
 597 128 l 2,23,24
 597 93 597 93 599 80 c 1,25,-1
 617 80 l 1,26,27
 670 95 670 95 706 148.5 c 128,-1,28
 742 202 742 202 742 263 c 0,29,30
 742 379 742 379 663.5 456.5 c 128,-1,31
 585 534 585 534 454 534 c 0,32,33
 307 534 307 534 214.5 440 c 128,-1,34
 122 346 122 346 122 205 c 0,35,36
 122 82 122 82 204 0.5 c 128,-1,37
 286 -81 286 -81 406 -81 c 0,38,39
 498 -81 498 -81 590 -33 c 1,40,-1
 618 -93 l 1,41,42
 513 -143 513 -143 402 -143 c 0,43,44
 255 -143 255 -143 152 -47 c 1,45,46
 45 51 45 51 45 200 c 0,47,48
 45 370 45 370 164 483 c 128,-1,49
 283 596 283 596 462 596 c 0,50,51
 615 596 615 596 713.5 503 c 128,-1,52
 812 410 812 410 812 266 c 0,0,1
520 161 m 2,53,-1
 520 245 l 1,54,55
 291 236 291 236 292 138 c 0,56,57
 292 67 292 67 375 68 c 0,58,59
 431 68 431 68 472 92 c 0,60,61
 520 119 520 119 520 161 c 2,53,-1
EndSplineSet
EndChar

StartChar: A
Encoding: 65 65 34
Width: 678
VWidth: 1504
Flags: W
LayerCount: 2
Fore
SplineSet
680 0 m 1,0,-1
 576 0 l 1,1,-1
 481 239 l 1,2,-1
 194 239 l 1,3,-1
 101 0 l 1,4,-1
 -2 0 l 1,5,-1
 299 727 l 1,6,-1
 381 727 l 1,7,-1
 680 0 l 1,0,-1
445 320 m 1,8,-1
 340 618 l 1,9,-1
 229 320 l 1,10,-1
 445 320 l 1,8,-1
EndSplineSet
EndChar

StartChar: B
Encoding: 66 66 35
Width: 595
VWidth: 1504
Flags: W
LayerCount: 2
Fore
SplineSet
551 208 m 0,0,1
 551 -9 551 -9 232 -9 c 0,2,3
 164 -9 164 -9 75 11 c 1,4,-1
 75 702 l 1,5,6
 168 725 168 725 247 725 c 0,7,8
 522 725 522 725 522 535 c 0,9,10
 522 439 522 439 432 384 c 1,11,12
 551 328 551 328 551 208 c 0,0,1
427 534 m 0,13,14
 427 642 427 642 247 642 c 0,15,16
 215 642 215 642 170 638 c 1,17,-1
 170 418 l 1,18,-1
 277 418 l 2,19,20
 343 418 343 418 385 449 c 128,-1,21
 427 480 427 480 427 534 c 0,13,14
457 206 m 0,22,23
 457 278 457 278 388 313 c 0,24,25
 335 339 335 339 257 338 c 2,26,-1
 170 338 l 1,27,-1
 170 77 l 1,28,29
 196 72 196 72 245 72 c 0,30,31
 343 72 343 72 400 106.5 c 128,-1,32
 457 141 457 141 457 206 c 0,22,23
EndSplineSet
EndChar

StartChar: C
Encoding: 67 67 36
Width: 649
VWidth: 1504
Flags: W
LayerCount: 2
Fore
SplineSet
617 38 m 1,0,1
 507 -10 507 -10 355 -11 c 0,2,3
 212 -11 212 -11 125.5 91 c 128,-1,4
 39 193 39 193 39 356 c 0,5,6
 39 518 39 518 123 618 c 0,7,8
 216 726 216 726 384 727 c 0,9,10
 512 727 512 727 617 683 c 1,11,-1
 587 608 l 1,12,13
 497 646 497 646 387 645 c 0,14,15
 249 645 249 645 184 543 c 0,16,17
 136 468 136 468 135 353 c 0,18,19
 135 248 135 248 188 170 c 0,20,21
 254 71 254 71 375 71 c 0,22,23
 500 71 500 71 591 116 c 1,24,-1
 617 38 l 1,0,1
EndSplineSet
EndChar

StartChar: D
Encoding: 68 68 37
Width: 690
VWidth: 1504
Flags: W
LayerCount: 2
Fore
SplineSet
651 373 m 0,0,1
 651 211 651 211 573 113 c 0,2,3
 477 -6 477 -6 277 -6 c 0,4,5
 215 -6 215 -6 75 9 c 1,6,-1
 75 704 l 1,7,8
 246 724 246 724 307 724 c 0,9,10
 491 724 491 724 579 614 c 0,11,12
 651 525 651 525 651 373 c 0,0,1
555 373 m 0,13,14
 555 642 555 642 302 642 c 0,15,16
 260 642 260 642 170 633 c 1,17,-1
 170 80 l 1,18,19
 220 75 220 75 295 75 c 0,20,21
 441 75 441 75 507 179 c 0,22,23
 555 256 555 256 555 373 c 0,13,14
EndSplineSet
EndChar

StartChar: E
Encoding: 69 69 38
Width: 538
VWidth: 1504
Flags: W
LayerCount: 2
Fore
SplineSet
501 0 m 1,0,-1
 75 0 l 1,1,-1
 75 716 l 1,2,-1
 501 716 l 1,3,-1
 501 635 l 1,4,-1
 170 635 l 1,5,-1
 170 418 l 1,6,-1
 465 418 l 1,7,-1
 465 337 l 1,8,-1
 170 337 l 1,9,-1
 170 81 l 1,10,-1
 501 81 l 1,11,-1
 501 0 l 1,0,-1
EndSplineSet
EndChar

StartChar: F
Encoding: 70 70 39
Width: 538
VWidth: 1504
Flags: W
LayerCount: 2
Fore
SplineSet
170 0 m 1,0,-1
 75 0 l 1,1,-1
 75 716 l 1,2,-1
 516 716 l 1,3,-1
 516 635 l 1,4,-1
 170 635 l 1,5,-1
 170 409 l 1,6,-1
 495 409 l 1,7,-1
 495 329 l 1,8,-1
 170 329 l 1,9,-1
 170 0 l 1,0,-1
EndSplineSet
EndChar

StartChar: G
Encoding: 71 71 40
Width: 682
VWidth: 1504
Flags: W
LayerCount: 2
Fore
SplineSet
623 17 m 1,0,-1
 575 29 l 1,1,2
 488 -10 488 -10 355 -11 c 0,3,4
 212 -11 212 -11 125.5 91 c 128,-1,5
 39 193 39 193 39 356 c 0,6,7
 39 518 39 518 123 618 c 0,8,9
 216 726 216 726 384 727 c 0,10,11
 512 727 512 727 617 683 c 1,12,-1
 587 608 l 1,13,14
 497 646 497 646 387 645 c 0,15,16
 249 645 249 645 184 543 c 0,17,18
 136 468 136 468 135 353 c 0,19,20
 135 248 135 248 188 170 c 0,21,22
 254 71 254 71 375 71 c 0,23,24
 464 71 464 71 528 95 c 1,25,-1
 528 298 l 1,26,-1
 347 298 l 1,27,-1
 347 378 l 1,28,-1
 623 378 l 1,29,-1
 623 17 l 1,0,-1
EndSplineSet
EndChar

StartChar: H
Encoding: 72 72 41
Width: 709
VWidth: 1504
Flags: W
LayerCount: 2
Fore
SplineSet
635 0 m 1,0,-1
 540 0 l 1,1,-1
 540 340 l 1,2,-1
 170 340 l 1,3,-1
 170 0 l 1,4,-1
 75 0 l 1,5,-1
 75 716 l 1,6,-1
 170 716 l 1,7,-1
 170 421 l 1,8,-1
 540 421 l 1,9,-1
 540 716 l 1,10,-1
 635 716 l 1,11,-1
 635 0 l 1,0,-1
EndSplineSet
EndChar

StartChar: I
Encoding: 73 73 42
Width: 245
VWidth: 1504
Flags: W
LayerCount: 2
Fore
SplineSet
170 0 m 1,0,-1
 75 0 l 1,1,-1
 75 716 l 1,2,-1
 170 716 l 1,3,-1
 170 0 l 1,0,-1
EndSplineSet
EndChar

StartChar: J
Encoding: 74 74 43
Width: 424
VWidth: 1504
Flags: W
LayerCount: 2
Fore
SplineSet
349 241 m 2,0,1
 349 -13 349 -13 119 -14 c 0,2,3
 60 -14 60 -14 -9 15 c 1,4,-1
 17 93 l 1,5,6
 61 67 61 67 119 68 c 0,7,8
 190 68 190 68 222 110 c 128,-1,9
 254 152 254 152 254 256 c 2,10,-1
 254 716 l 1,11,-1
 349 716 l 1,12,-1
 349 241 l 2,0,1
EndSplineSet
EndChar

StartChar: K
Encoding: 75 75 44
Width: 618
VWidth: 1504
Flags: W
LayerCount: 2
Fore
SplineSet
629 23 m 1,0,-1
 539 -11 l 1,1,-1
 229 344 l 1,2,-1
 170 287 l 1,3,-1
 170 0 l 1,4,-1
 75 0 l 1,5,-1
 75 716 l 1,6,-1
 170 716 l 1,7,-1
 170 400 l 1,8,-1
 511 728 l 1,9,-1
 603 704 l 1,10,-1
 293 408 l 1,11,-1
 629 23 l 1,0,-1
EndSplineSet
EndChar

StartChar: L
Encoding: 76 76 45
Width: 540
VWidth: 1504
Flags: W
LayerCount: 2
Fore
SplineSet
520 0 m 1,0,-1
 75 0 l 1,1,-1
 75 716 l 1,2,-1
 170 716 l 1,3,-1
 170 81 l 1,4,-1
 520 81 l 1,5,-1
 520 0 l 1,0,-1
EndSplineSet
EndChar

StartChar: M
Encoding: 77 77 46
Width: 863
VWidth: 1504
Flags: W
LayerCount: 2
Fore
SplineSet
820 0 m 1,0,-1
 728 0 l 1,1,-1
 689 555 l 1,2,-1
 463 0 l 1,3,-1
 400 0 l 1,4,-1
 174 555 l 1,5,-1
 135 0 l 1,6,-1
 44 0 l 1,7,-1
 95 716 l 1,8,-1
 194 716 l 1,9,-1
 432 120 l 1,10,-1
 669 716 l 1,11,-1
 769 716 l 1,12,-1
 820 0 l 1,0,-1
EndSplineSet
EndChar

StartChar: N
Encoding: 78 78 47
Width: 709
VWidth: 1504
Flags: W
LayerCount: 2
Fore
SplineSet
635 0 m 1,0,-1
 545 0 l 1,1,-1
 170 581 l 1,2,-1
 170 0 l 1,3,-1
 75 0 l 1,4,-1
 75 716 l 1,5,-1
 170 716 l 1,6,-1
 540 150 l 1,7,-1
 540 716 l 1,8,-1
 635 716 l 1,9,-1
 635 0 l 1,0,-1
EndSplineSet
EndChar

StartChar: O
Encoding: 79 79 48
Width: 779
VWidth: 1504
Flags: W
LayerCount: 2
Fore
SplineSet
647 358 m 256,0,1
 647 481 647 481 576 564.5 c 128,-1,2
 505 648 505 648 390 648 c 256,3,4
 274 648 274 648 203 564.5 c 128,-1,5
 132 481 132 481 132 358 c 256,6,7
 132 235 132 235 203 151.5 c 128,-1,8
 274 68 274 68 390 68 c 256,9,10
 506 68 506 68 576.5 151.5 c 128,-1,11
 647 235 647 235 647 358 c 256,0,1
740 356 m 256,12,13
 740 198 740 198 642.5 91.5 c 128,-1,14
 545 -15 545 -15 390 -15 c 256,15,16
 235 -15 235 -15 137 92 c 128,-1,17
 39 199 39 199 39 356 c 256,18,19
 39 514 39 514 137 622 c 128,-1,20
 235 730 235 730 390 730 c 256,21,22
 545 730 545 730 642.5 622 c 128,-1,23
 740 514 740 514 740 356 c 256,12,13
EndSplineSet
EndChar

StartChar: P
Encoding: 80 80 49
Width: 586
VWidth: 1504
Flags: W
LayerCount: 2
Fore
SplineSet
549 510 m 0,0,1
 549 406 549 406 465.5 342 c 128,-1,2
 382 278 382 278 245 278 c 0,3,4
 210 278 210 278 170 283 c 1,5,-1
 170 0 l 1,6,-1
 75 0 l 1,7,-1
 75 705 l 1,8,9
 183 723 183 723 266 724 c 0,10,11
 398 724 398 724 473.5 664.5 c 128,-1,12
 549 605 549 605 549 510 c 0,0,1
454 505 m 0,13,14
 454 642 454 642 265 642 c 0,15,16
 214 642 214 642 170 638 c 1,17,-1
 170 369 l 1,18,19
 221 360 221 360 256 360 c 0,20,21
 454 359 454 359 454 505 c 0,13,14
EndSplineSet
EndChar

StartChar: Q
Encoding: 81 81 50
Width: 779
VWidth: 1504
Flags: W
LayerCount: 2
Fore
SplineSet
647 358 m 256,0,1
 647 481 647 481 576 564.5 c 128,-1,2
 505 648 505 648 390 648 c 256,3,4
 274 648 274 648 203 564.5 c 128,-1,5
 132 481 132 481 132 358 c 256,6,7
 132 235 132 235 203 151.5 c 128,-1,8
 274 68 274 68 390 68 c 256,9,10
 506 68 506 68 576.5 151.5 c 128,-1,11
 647 235 647 235 647 358 c 256,0,1
740 356 m 0,12,13
 740 236 740 236 683.5 148 c 128,-1,14
 627 60 627 60 528 26 c 1,15,-1
 528 20 l 1,16,17
 648 -10 648 -10 746 -26 c 1,18,-1
 716 -107 l 1,19,20
 602 -77 602 -77 429 -21 c 0,21,22
 421 -18 421 -18 390 -15 c 1,23,24
 235 -15 235 -15 137 92 c 128,-1,25
 39 199 39 199 39 356 c 256,26,27
 39 514 39 514 137 622 c 128,-1,28
 235 730 235 730 390 730 c 256,29,30
 545 730 545 730 642.5 622 c 128,-1,31
 740 514 740 514 740 356 c 0,12,13
EndSplineSet
EndChar

StartChar: R
Encoding: 82 82 51
Width: 594
VWidth: 1504
Flags: W
LayerCount: 2
Fore
SplineSet
572 0 m 1,0,-1
 477 0 l 1,1,2
 436 311 436 311 290 311 c 2,3,-1
 170 311 l 1,4,-1
 170 0 l 1,5,-1
 75 0 l 1,6,-1
 75 704 l 1,7,8
 183 724 183 724 269 724 c 0,9,10
 397 724 397 724 472.5 669.5 c 128,-1,11
 548 615 548 615 548 522 c 0,12,13
 548 399 548 399 430 344 c 1,14,15
 486 306 486 306 517 234 c 128,-1,16
 548 162 548 162 572 0 c 1,0,-1
456 516 m 0,17,18
 456 641 456 641 269 641 c 0,19,20
 209 641 209 641 170 636 c 1,21,-1
 170 390 l 1,22,-1
 286 390 l 2,23,24
 456 390 456 390 456 516 c 0,17,18
EndSplineSet
EndChar

StartChar: S
Encoding: 83 83 52
Width: 549
VWidth: 1504
Flags: W
LayerCount: 2
Fore
SplineSet
510 196 m 0,0,1
 510 103 510 103 435.5 44.5 c 128,-1,2
 361 -14 361 -14 250 -14 c 0,3,4
 131 -14 131 -14 29 51 c 1,5,-1
 69 137 l 1,6,7
 155 72 155 72 256 72 c 0,8,9
 330 72 330 72 372 104.5 c 128,-1,10
 414 137 414 137 414 191 c 0,11,12
 414 281 414 281 269 328 c 0,13,14
 57 396 57 396 57 535 c 0,15,16
 57 619 57 619 124 674.5 c 128,-1,17
 191 730 191 730 298 730 c 256,18,19
 405 730 405 730 483 681 c 1,20,-1
 442 606 l 1,21,22
 367 644 367 644 296 644 c 0,23,24
 231 644 231 644 191.5 614.5 c 128,-1,25
 152 585 152 585 152 543 c 0,26,27
 152 460 152 460 296 414 c 0,28,29
 413 376 413 376 461.5 326.5 c 128,-1,30
 510 277 510 277 510 196 c 0,0,1
EndSplineSet
EndChar

StartChar: T
Encoding: 84 84 53
Width: 633
VWidth: 1504
Flags: W
LayerCount: 2
Fore
SplineSet
366 0 m 1,0,-1
 271 0 l 1,1,-1
 271 635 l 1,2,-1
 6 635 l 1,3,-1
 6 716 l 1,4,-1
 627 716 l 1,5,-1
 627 635 l 1,6,-1
 366 635 l 1,7,-1
 366 0 l 1,0,-1
EndSplineSet
EndChar

StartChar: U
Encoding: 85 85 54
Width: 725
VWidth: 1504
Flags: W
LayerCount: 2
Fore
SplineSet
650 305 m 2,0,1
 650 -14 650 -14 363 -14 c 256,2,3
 76 -14 76 -14 75 305 c 2,4,-1
 75 716 l 1,5,-1
 171 716 l 1,6,-1
 171 305 l 2,7,8
 171 67 171 67 363 68 c 256,9,10
 554 68 554 68 554 305 c 2,11,-1
 554 716 l 1,12,-1
 650 716 l 1,13,-1
 650 305 l 2,0,1
EndSplineSet
EndChar

StartChar: V
Encoding: 86 86 55
Width: 634
VWidth: 1504
Flags: W
LayerCount: 2
Fore
SplineSet
361 0 m 1,0,-1
 274 0 l 1,1,-1
 -2 716 l 1,2,-1
 101 716 l 1,3,-1
 317 129 l 1,4,-1
 534 716 l 1,5,-1
 636 716 l 1,6,-1
 361 0 l 1,0,-1
EndSplineSet
EndChar

StartChar: W
Encoding: 87 87 56
Width: 920
VWidth: 1504
Flags: W
LayerCount: 2
Fore
SplineSet
728 0 m 1,0,-1
 641 0 l 1,1,-1
 460 585 l 1,2,-1
 280 0 l 1,3,-1
 193 0 l 1,4,-1
 -6 716 l 1,5,-1
 98 716 l 1,6,-1
 238 144 l 1,7,-1
 415 716 l 1,8,-1
 505 716 l 1,9,-1
 683 144 l 1,10,-1
 823 716 l 1,11,-1
 927 716 l 1,12,-1
 728 0 l 1,0,-1
EndSplineSet
EndChar

StartChar: X
Encoding: 88 88 57
Width: 640
VWidth: 1504
Flags: W
LayerCount: 2
Fore
SplineSet
644 0 m 1,0,-1
 531 0 l 1,1,-1
 323 290 l 1,2,-1
 113 0 l 1,3,-1
 -2 0 l 1,4,-1
 265 367 l 1,5,-1
 9 716 l 1,6,-1
 125 716 l 1,7,-1
 323 436 l 1,8,-1
 517 716 l 1,9,-1
 635 716 l 1,10,-1
 379 367 l 1,11,-1
 644 0 l 1,0,-1
EndSplineSet
EndChar

StartChar: Y
Encoding: 89 89 58
Width: 595
VWidth: 1504
Flags: W
LayerCount: 2
Fore
SplineSet
346 0 m 1,0,-1
 253 0 l 1,1,-1
 253 313 l 1,2,-1
 -9 716 l 1,3,-1
 101 716 l 1,4,-1
 299 394 l 1,5,-1
 496 716 l 1,6,-1
 605 716 l 1,7,-1
 346 314 l 1,8,-1
 346 0 l 1,0,-1
EndSplineSet
EndChar

StartChar: Z
Encoding: 90 90 59
Width: 678
VWidth: 1504
Flags: W
LayerCount: 2
Fore
SplineSet
641 0 m 1,0,-1
 41 0 l 1,1,-1
 41 60 l 1,2,-1
 505 635 l 1,3,-1
 65 635 l 1,4,-1
 81 716 l 1,5,-1
 636 716 l 1,6,-1
 636 654 l 1,7,-1
 171 81 l 1,8,-1
 659 81 l 1,9,-1
 641 0 l 1,0,-1
EndSplineSet
EndChar

StartChar: bracketleft
Encoding: 91 91 60
Width: 351
VWidth: 1504
Flags: W
LayerCount: 2
Fore
SplineSet
307 -116 m 1,0,-1
 69 -116 l 1,1,-1
 69 794 l 1,2,-1
 307 794 l 1,3,-1
 307 716 l 1,4,-1
 158 716 l 1,5,-1
 158 -39 l 1,6,-1
 307 -39 l 1,7,-1
 307 -116 l 1,0,-1
EndSplineSet
EndChar

StartChar: backslash
Encoding: 92 92 61
Width: 403
VWidth: 1504
Flags: W
LayerCount: 2
Fore
SplineSet
454 -41 m 1,0,-1
 358 -41 l 1,1,-1
 -33 727 l 1,2,-1
 65 727 l 1,3,-1
 454 -41 l 1,0,-1
EndSplineSet
EndChar

StartChar: bracketright
Encoding: 93 93 62
Width: 351
VWidth: 1504
Flags: W
LayerCount: 2
Fore
SplineSet
283 -116 m 1,0,-1
 45 -116 l 1,1,-1
 45 -39 l 1,2,-1
 194 -39 l 1,3,-1
 194 716 l 1,4,-1
 45 716 l 1,5,-1
 45 794 l 1,6,-1
 283 794 l 1,7,-1
 283 -116 l 1,0,-1
EndSplineSet
EndChar

StartChar: asciicircum
Encoding: 94 94 63
Width: 628
VWidth: 1504
Flags: W
LayerCount: 2
Fore
SplineSet
593 229 m 1,0,-1
 495 229 l 1,1,-1
 320 609 l 1,2,-1
 146 229 l 1,3,-1
 48 229 l 1,4,-1
 283 722 l 1,5,-1
 360 722 l 1,6,-1
 593 229 l 1,0,-1
EndSplineSet
EndChar

StartChar: underscore
Encoding: 95 95 64
Width: 565
VWidth: 1504
Flags: W
LayerCount: 2
Fore
SplineSet
566 -263 m 1,0,-1
 0 -263 l 1,1,-1
 0 -184 l 1,2,-1
 566 -184 l 1,3,-1
 566 -263 l 1,0,-1
EndSplineSet
EndChar

StartChar: grave
Encoding: 96 96 65
Width: 315
VWidth: 1504
Flags: W
LayerCount: 2
Fore
SplineSet
250 564 m 1,0,-1
 177 564 l 1,1,-1
 51 710 l 1,2,-1
 137 737 l 1,3,-1
 250 564 l 1,0,-1
EndSplineSet
EndChar

StartChar: a
Encoding: 97 97 66
Width: 552
VWidth: 1504
Flags: W
LayerCount: 2
Fore
SplineSet
496 5 m 1,0,-1
 408 -14 l 1,1,-1
 393 53 l 1,2,3
 316 -13 316 -13 220 -14 c 0,4,5
 143 -14 143 -14 92 27.5 c 128,-1,6
 41 69 41 69 39 140 c 1,7,8
 39 331 39 331 381 335 c 1,9,10
 366 448 366 448 257 448 c 0,11,12
 176 448 176 448 78 411 c 1,13,-1
 68 496 l 1,14,15
 170 526 170 526 262 526 c 0,16,17
 476 526 476 526 475 307 c 2,18,-1
 475 137 l 2,19,20
 475 80 475 80 496 5 c 1,0,-1
381 162 m 2,21,-1
 381 253 l 1,22,23
 136 248 136 248 135 149 c 0,24,25
 135 69 135 69 224 69 c 0,26,27
 274 69 274 69 323 93 c 0,28,29
 381 121 381 121 381 162 c 2,21,-1
EndSplineSet
Substitution2: "Single Substitution lookup 56 subtable" uni0E38
EndChar

StartChar: b
Encoding: 98 98 67
Width: 654
VWidth: 1504
Flags: W
LayerCount: 2
Fore
SplineSet
615 266 m 0,0,1
 615 144 615 144 539 65 c 128,-1,2
 463 -14 463 -14 352 -14 c 256,3,4
 241 -14 241 -14 170 56 c 1,5,6
 170 17 170 17 165 0 c 1,7,-1
 75 0 l 1,8,9
 81 74 81 74 81 137 c 2,10,-1
 81 758 l 1,11,-1
 176 758 l 1,12,-1
 176 460 l 1,13,14
 247 531 247 531 360 531 c 0,15,16
 470 531 470 531 542.5 455 c 128,-1,17
 615 379 615 379 615 266 c 0,0,1
522 266 m 0,18,19
 522 347 522 347 475.5 400 c 128,-1,20
 429 453 429 453 350 453 c 0,21,22
 287 453 287 453 231.5 411 c 128,-1,23
 176 369 176 369 176 311 c 2,24,-1
 176 194 l 2,25,26
 176 137 176 137 222.5 103 c 128,-1,27
 269 69 269 69 344 69 c 0,28,29
 428 69 428 69 475 121.5 c 128,-1,30
 522 174 522 174 522 266 c 0,18,19
EndSplineSet
Substitution2: "Single Substitution lookup 56 subtable" uni0E39
EndChar

StartChar: c
Encoding: 99 99 68
Width: 521
VWidth: 1504
Flags: W
LayerCount: 2
Fore
SplineSet
484 32 m 1,0,1
 412 -13 412 -13 308 -14 c 0,2,3
 186 -14 186 -14 112.5 62 c 128,-1,4
 39 138 39 138 39 259 c 0,5,6
 39 381 39 381 113 456 c 128,-1,7
 187 531 187 531 308 531 c 0,8,9
 410 531 410 531 484 486 c 1,10,-1
 451 408 l 1,11,12
 380 452 380 452 305 451 c 0,13,14
 228 451 228 451 181.5 397.5 c 128,-1,15
 135 344 135 344 135 259 c 0,16,17
 135 172 135 172 182 119 c 128,-1,18
 229 66 229 66 305 66 c 0,19,20
 380 66 380 66 451 110 c 1,21,-1
 484 32 l 1,0,1
EndSplineSet
Substitution2: "Single Substitution lookup 56 subtable" uni0E3A
EndChar

StartChar: d
Encoding: 100 100 69
Width: 654
VWidth: 1504
Flags: W
LayerCount: 2
Fore
SplineSet
579 0 m 1,0,-1
 489 0 l 1,1,2
 484 17 484 17 484 56 c 1,3,4
 413 -13 413 -13 302 -14 c 256,5,6
 191 -14 191 -14 115 65 c 128,-1,7
 39 144 39 144 39 266 c 0,8,9
 39 379 39 379 112 455 c 128,-1,10
 185 531 185 531 295 531 c 0,11,12
 408 531 408 531 478 460 c 1,13,-1
 478 758 l 1,14,-1
 573 758 l 1,15,-1
 573 137 l 2,16,17
 573 74 573 74 579 0 c 1,0,-1
478 194 m 2,18,-1
 478 311 l 2,19,20
 478 368 478 368 422.5 410.5 c 128,-1,21
 367 453 367 453 304 453 c 0,22,23
 226 453 226 453 179 400 c 128,-1,24
 132 347 132 347 132 266 c 0,25,26
 132 174 132 174 179 121.5 c 128,-1,27
 226 69 226 69 310 69 c 0,28,29
 385 69 385 69 431.5 103 c 128,-1,30
 478 137 478 137 478 194 c 2,18,-1
EndSplineSet
EndChar

StartChar: e
Encoding: 101 101 70
Width: 588
VWidth: 1504
Flags: W
LayerCount: 2
Fore
SplineSet
528 27 m 1,0,1
 418 -14 418 -14 319 -14 c 0,2,3
 197 -14 197 -14 118 59 c 128,-1,4
 39 132 39 132 39 248 c 0,5,6
 39 376 39 376 117 456 c 1,7,8
 194 531 194 531 313 531 c 0,9,10
 545 531 545 531 549 241 c 1,11,-1
 132 241 l 1,12,13
 138 160 138 160 190 115.5 c 128,-1,14
 242 71 242 71 325 71 c 0,15,16
 409 71 409 71 517 110 c 1,17,-1
 528 27 l 1,0,1
456 320 m 1,18,19
 448 379 448 379 407.5 416 c 128,-1,20
 367 453 367 453 304 453 c 0,21,22
 244 453 244 453 196.5 416 c 128,-1,23
 149 379 149 379 138 320 c 1,24,-1
 456 320 l 1,18,19
EndSplineSet
EndChar

StartChar: f
Encoding: 102 102 71
Width: 382
VWidth: 1504
Flags: W
LayerCount: 2
Fore
SplineSet
206 0 m 1,0,-1
 111 0 l 1,1,-1
 111 433 l 1,2,-1
 26 433 l 1,3,-1
 26 511 l 1,4,-1
 113 511 l 1,5,6
 113 768 113 768 313 769 c 0,7,8
 376 769 376 769 420 736 c 1,9,-1
 393 665 l 1,10,11
 340 688 340 688 310 687 c 0,12,13
 206 687 206 687 206 511 c 1,14,-1
 352 511 l 1,15,-1
 352 433 l 1,16,-1
 206 433 l 1,17,-1
 206 0 l 1,0,-1
EndSplineSet
EndChar

StartChar: g
Encoding: 103 103 72
Width: 499
VWidth: 1504
Flags: W
LayerCount: 2
Fore
SplineSet
439 -68 m 0,0,1
 439 -139 439 -139 388 -182.5 c 128,-1,2
 337 -226 337 -226 239 -226 c 0,3,4
 158 -226 158 -226 72 -174 c 1,5,-1
 105 -99 l 1,6,7
 185 -146 185 -146 245 -146 c 0,8,9
 292 -146 292 -146 322.5 -124 c 128,-1,10
 353 -102 353 -102 353 -72 c 0,11,12
 353 -27 353 -27 269 8 c 0,13,14
 206 34 206 34 147.5 65 c 128,-1,15
 89 96 89 96 89 147 c 0,16,17
 89 171 89 171 102 209 c 1,18,19
 48 268 48 268 48 334 c 0,20,21
 48 417 48 417 103.5 469.5 c 128,-1,22
 159 522 159 522 238 522 c 2,23,-1
 454 522 l 1,24,-1
 454 457 l 1,25,-1
 379 457 l 1,26,27
 406 446 406 446 423 408 c 0,28,29
 437 376 437 376 436 344 c 0,30,31
 436 255 436 255 387 203.5 c 128,-1,32
 338 152 338 152 247 152 c 0,33,34
 214 152 214 152 182 162 c 1,35,36
 174 154 174 154 174 143 c 0,37,38
 174 120 174 120 283 90 c 0,39,40
 439 46 439 46 439 -68 c 0,0,1
356 337 m 256,41,42
 356 382 356 382 324 413.5 c 128,-1,43
 292 445 292 445 247 445 c 256,44,45
 202 445 202 445 169.5 413.5 c 128,-1,46
 137 382 137 382 137 337 c 256,47,48
 137 292 137 292 169.5 261 c 128,-1,49
 202 230 202 230 247 230 c 0,50,51
 301 230 301 230 328.5 261 c 128,-1,52
 356 292 356 292 356 337 c 256,41,42
EndSplineSet
EndChar

StartChar: h
Encoding: 104 104 73
Width: 636
VWidth: 1504
Flags: W
LayerCount: 2
Fore
SplineSet
561 0 m 1,0,-1
 466 0 l 1,1,-1
 466 287 l 2,2,3
 466 355 466 355 429.5 399.5 c 128,-1,4
 393 444 393 444 329 444 c 256,5,6
 266 444 266 444 218 398.5 c 128,-1,7
 170 353 170 353 170 299 c 2,8,-1
 170 0 l 1,9,-1
 75 0 l 1,10,-1
 75 758 l 1,11,-1
 170 758 l 1,12,-1
 170 456 l 1,13,14
 239 525 239 525 343 525 c 0,15,16
 445 525 445 525 503 461 c 128,-1,17
 561 397 561 397 561 289 c 2,18,-1
 561 0 l 1,0,-1
EndSplineSet
EndChar

StartChar: i
Encoding: 105 105 74
Width: 245
VWidth: 1504
Flags: W
LayerCount: 2
Fore
SplineSet
170 0 m 1,0,-1
 75 0 l 1,1,-1
 75 511 l 1,2,-1
 170 511 l 1,3,-1
 170 0 l 1,0,-1
193 662 m 256,4,5
 193 632 193 632 171.5 611 c 128,-1,6
 150 590 150 590 120 590 c 256,7,8
 90 590 90 590 69 611 c 128,-1,9
 48 632 48 632 48 662 c 256,10,11
 48 692 48 692 69 713 c 128,-1,12
 90 734 90 734 120 734 c 256,13,14
 150 734 150 734 171.5 713 c 128,-1,15
 193 692 193 692 193 662 c 256,4,5
EndSplineSet
EndChar

StartChar: j
Encoding: 106 106 75
Width: 257
VWidth: 1504
Flags: W
LayerCount: 2
Fore
SplineSet
182 27 m 2,0,1
 182 -206 182 -206 -62 -212 c 1,2,-1
 -72 -135 l 1,3,4
 30 -127 30 -127 58.5 -90 c 128,-1,5
 87 -53 87 -53 87 66 c 2,6,-1
 87 511 l 1,7,-1
 182 511 l 1,8,-1
 182 27 l 2,0,1
206 662 m 256,9,10
 206 632 206 632 185 611 c 128,-1,11
 164 590 164 590 134 590 c 256,12,13
 104 590 104 590 83 611 c 128,-1,14
 62 632 62 632 62 662 c 256,15,16
 62 692 62 692 83 713 c 128,-1,17
 104 734 104 734 134 734 c 256,18,19
 164 734 164 734 185 713 c 128,-1,20
 206 692 206 692 206 662 c 256,9,10
EndSplineSet
EndChar

StartChar: k
Encoding: 107 107 76
Width: 511
VWidth: 1504
Flags: W
LayerCount: 2
Fore
SplineSet
539 9 m 1,0,-1
 441 -15 l 1,1,-1
 206 247 l 1,2,-1
 170 217 l 1,3,-1
 170 0 l 1,4,-1
 75 0 l 1,5,-1
 75 758 l 1,6,-1
 170 758 l 1,7,-1
 170 326 l 1,8,-1
 399 522 l 1,9,-1
 502 504 l 1,10,-1
 272 301 l 1,11,-1
 539 9 l 1,0,-1
EndSplineSet
EndChar

StartChar: l
Encoding: 108 108 77
Width: 320
VWidth: 1504
Flags: W
LayerCount: 2
Fore
SplineSet
299 -12 m 1,0,1
 75 0 75 0 75 263 c 2,2,-1
 75 758 l 1,3,-1
 170 758 l 1,4,-1
 170 284 l 2,5,6
 170 168 170 168 206 120 c 0,7,8
 238 79 238 79 310 74 c 1,9,-1
 299 -12 l 1,0,1
EndSplineSet
EndChar

StartChar: m
Encoding: 109 109 78
Width: 956
VWidth: 1504
Flags: W
LayerCount: 2
Fore
SplineSet
881 0 m 1,0,-1
 787 0 l 1,1,-1
 787 283 l 2,2,3
 787 352 787 352 755 397 c 0,4,5
 719 447 719 447 660 447 c 0,6,7
 610 447 610 447 567.5 408 c 128,-1,8
 525 369 525 369 525 323 c 2,9,-1
 525 0 l 1,10,-1
 430 0 l 1,11,-1
 430 308 l 2,12,13
 430 446 430 446 314 447 c 0,14,15
 263 447 263 447 216.5 401 c 128,-1,16
 170 355 170 355 170 305 c 2,17,-1
 170 0 l 1,18,-1
 75 0 l 1,19,-1
 75 376 l 2,20,21
 75 469 75 469 63 513 c 1,22,-1
 152 513 l 1,23,24
 163 487 163 487 162 454 c 1,25,26
 183 484 183 484 231.5 505 c 128,-1,27
 280 526 280 526 326 526 c 0,28,29
 425 526 425 526 486 442 c 1,30,31
 566 526 566 526 678 526 c 0,32,33
 767 526 767 526 824 459.5 c 128,-1,34
 881 393 881 393 881 284 c 2,35,-1
 881 0 l 1,0,-1
EndSplineSet
EndChar

StartChar: n
Encoding: 110 110 79
Width: 636
VWidth: 1504
Flags: W
LayerCount: 2
Fore
SplineSet
561 0 m 1,0,-1
 466 0 l 1,1,-1
 466 290 l 2,2,3
 466 446 466 446 323 447 c 0,4,5
 270 447 270 447 220 399.5 c 128,-1,6
 170 352 170 352 170 305 c 2,7,-1
 170 0 l 1,8,-1
 75 0 l 1,9,-1
 75 376 l 2,10,11
 75 469 75 469 63 513 c 1,12,-1
 152 513 l 1,13,14
 163 487 163 487 162 451 c 1,15,16
 234 526 234 526 337 526 c 256,17,18
 439 526 439 526 500 463 c 128,-1,19
 561 400 561 400 561 290 c 2,20,-1
 561 0 l 1,0,-1
EndSplineSet
EndChar

StartChar: o
Encoding: 111 111 80
Width: 619
VWidth: 1504
Flags: W
LayerCount: 2
Fore
SplineSet
581 259 m 256,0,1
 581 145 581 145 504 66.5 c 128,-1,2
 427 -12 427 -12 310 -12 c 256,3,4
 193 -12 193 -12 116 66 c 128,-1,5
 39 144 39 144 39 259 c 256,6,7
 39 373 39 373 116 452 c 128,-1,8
 193 531 193 531 310 531 c 256,9,10
 427 531 427 531 504 452 c 128,-1,11
 581 373 581 373 581 259 c 256,0,1
487 259 m 256,12,13
 487 340 487 340 437.5 395 c 128,-1,14
 388 450 388 450 310 450 c 256,15,16
 232 450 232 450 182 395 c 128,-1,17
 132 340 132 340 132 259 c 256,18,19
 132 178 132 178 182 123 c 128,-1,20
 232 68 232 68 310 68 c 256,21,22
 388 68 388 68 437.5 123 c 128,-1,23
 487 178 487 178 487 259 c 256,12,13
EndSplineSet
EndChar

StartChar: p
Encoding: 112 112 81
Width: 648
VWidth: 1504
Flags: W
LayerCount: 2
Fore
SplineSet
609 269 m 0,0,1
 609 144 609 144 532.5 65 c 128,-1,2
 456 -14 456 -14 341 -14 c 0,3,4
 236 -14 236 -14 170 48 c 1,5,-1
 170 -215 l 1,6,-1
 75 -215 l 1,7,-1
 75 346 l 2,8,9
 75 471 75 471 69 520 c 1,10,-1
 162 520 l 1,11,-1
 173 465 l 1,12,13
 253 531 253 531 353 531 c 0,14,15
 464 531 464 531 536.5 455.5 c 128,-1,16
 609 380 609 380 609 269 c 0,0,1
517 268 m 0,17,18
 517 346 517 346 468.5 399.5 c 128,-1,19
 420 453 420 453 344 453 c 0,20,21
 284 453 284 453 227 404.5 c 128,-1,22
 170 356 170 356 170 298 c 2,23,-1
 170 214 l 2,24,25
 170 155 170 155 219 112 c 128,-1,26
 268 69 268 69 338 69 c 0,27,28
 422 69 422 69 469.5 122.5 c 128,-1,29
 517 176 517 176 517 268 c 0,17,18
EndSplineSet
EndChar

StartChar: q
Encoding: 113 113 82
Width: 648
VWidth: 1504
Flags: W
LayerCount: 2
Fore
SplineSet
573 -215 m 1,0,-1
 478 -215 l 1,1,-1
 478 48 l 1,2,3
 412 -14 412 -14 307 -14 c 0,4,5
 193 -14 193 -14 116 65 c 128,-1,6
 39 144 39 144 39 269 c 0,7,8
 39 380 39 380 111.5 455.5 c 128,-1,9
 184 531 184 531 295 531 c 0,10,11
 396 531 396 531 475 465 c 1,12,-1
 486 520 l 1,13,-1
 579 520 l 1,14,15
 573 470 573 470 573 346 c 2,16,-1
 573 -215 l 1,0,-1
478 214 m 2,17,-1
 478 298 l 2,18,19
 478 357 478 357 421 405 c 128,-1,20
 364 453 364 453 304 453 c 0,21,22
 229 453 229 453 180 399.5 c 128,-1,23
 131 346 131 346 131 268 c 0,24,25
 131 176 131 176 178.5 122.5 c 128,-1,26
 226 69 226 69 310 69 c 0,27,28
 381 69 381 69 429.5 112 c 128,-1,29
 478 155 478 155 478 214 c 2,17,-1
EndSplineSet
EndChar

StartChar: r
Encoding: 114 114 83
Width: 370
VWidth: 1504
Flags: W
LayerCount: 2
Fore
SplineSet
170 0 m 1,0,-1
 75 0 l 1,1,-1
 75 338 l 2,2,3
 75 458 75 458 57 519 c 1,4,-1
 141 519 l 1,5,6
 158 492 158 492 158 447 c 1,7,8
 172 476 172 476 214.5 501 c 128,-1,9
 257 526 257 526 299 526 c 0,10,11
 329 526 329 526 347 522 c 1,12,-1
 347 441 l 1,13,14
 335 444 335 444 313 444 c 0,15,16
 170 444 170 444 170 272 c 2,17,-1
 170 0 l 1,0,-1
EndSplineSet
EndChar

StartChar: s
Encoding: 115 115 84
Width: 445
VWidth: 1504
Flags: W
LayerCount: 2
Fore
SplineSet
408 146 m 0,0,1
 408 75 408 75 353 30.5 c 128,-1,2
 298 -14 298 -14 205 -14 c 0,3,4
 128 -14 128 -14 39 36 c 1,5,-1
 77 111 l 1,6,7
 139 69 139 69 209 69 c 0,8,9
 314 69 314 69 314 141 c 0,10,11
 314 197 314 197 212 229 c 0,12,13
 62 276 62 276 62 372 c 0,14,15
 62 437 62 437 112 481 c 128,-1,16
 162 525 162 525 248 525 c 0,17,18
 335 525 335 525 396 481 c 1,19,-1
 361 412 l 1,20,21
 308 451 308 451 242 451 c 0,22,23
 203 451 203 451 176.5 431 c 128,-1,24
 150 411 150 411 150 379 c 0,25,26
 150 340 150 340 260 302 c 0,27,28
 408 251 408 251 408 146 c 0,0,1
EndSplineSet
EndChar

StartChar: t
Encoding: 116 116 85
Width: 388
VWidth: 1504
Flags: W
LayerCount: 2
Fore
SplineSet
364 8 m 1,0,1
 314 -13 314 -13 265 -14 c 0,2,3
 196 -14 196 -14 156 33 c 128,-1,4
 116 80 116 80 116 161 c 2,5,-1
 116 433 l 1,6,-1
 14 433 l 1,7,-1
 14 511 l 1,8,-1
 116 511 l 1,9,-1
 116 651 l 1,10,-1
 211 692 l 1,11,-1
 211 511 l 1,12,-1
 375 511 l 1,13,-1
 375 433 l 1,14,-1
 211 433 l 1,15,-1
 211 162 l 2,16,17
 211 70 211 70 269 71 c 0,18,19
 307 71 307 71 353 87 c 1,20,-1
 364 8 l 1,0,1
EndSplineSet
EndChar

StartChar: u
Encoding: 117 117 86
Width: 628
VWidth: 1504
Flags: W
LayerCount: 2
Fore
SplineSet
585 6 m 1,0,-1
 493 -12 l 1,1,2
 478 24 478 24 466 75 c 1,3,4
 376 -14 376 -14 287 -14 c 0,5,6
 75 -14 75 -14 75 232 c 2,7,-1
 75 511 l 1,8,-1
 170 511 l 1,9,-1
 170 241 l 2,10,11
 170 71 170 71 299 71 c 0,12,13
 353 71 353 71 406 112 c 128,-1,14
 459 153 459 153 459 209 c 2,15,-1
 459 511 l 1,16,-1
 554 511 l 1,17,-1
 554 137 l 2,18,19
 553 86 553 86 585 6 c 1,0,-1
EndSplineSet
EndChar

StartChar: v
Encoding: 118 118 87
Width: 538
VWidth: 1504
Flags: W
LayerCount: 2
Fore
SplineSet
307 0 m 1,0,-1
 232 0 l 1,1,-1
 -6 511 l 1,2,-1
 93 511 l 1,3,-1
 269 117 l 1,4,-1
 445 511 l 1,5,-1
 545 511 l 1,6,-1
 307 0 l 1,0,-1
EndSplineSet
EndChar

StartChar: w
Encoding: 119 119 88
Width: 722
VWidth: 1504
Flags: W
LayerCount: 2
Fore
SplineSet
600 0 m 1,0,-1
 520 0 l 1,1,-1
 361 411 l 1,2,-1
 202 0 l 1,3,-1
 122 0 l 1,4,-1
 -6 511 l 1,5,-1
 92 511 l 1,6,-1
 168 125 l 1,7,-1
 322 511 l 1,8,-1
 400 511 l 1,9,-1
 554 125 l 1,10,-1
 630 511 l 1,11,-1
 728 511 l 1,12,-1
 600 0 l 1,0,-1
EndSplineSet
EndChar

StartChar: x
Encoding: 120 120 89
Width: 524
VWidth: 1504
Flags: W
LayerCount: 2
Fore
SplineSet
542 0 m 1,0,-1
 426 0 l 1,1,-1
 262 197 l 1,2,-1
 99 0 l 1,3,-1
 -17 0 l 1,4,-1
 206 262 l 1,5,-1
 -3 511 l 1,6,-1
 111 511 l 1,7,-1
 263 331 l 1,8,-1
 414 511 l 1,9,-1
 528 511 l 1,10,-1
 319 262 l 1,11,-1
 542 0 l 1,0,-1
EndSplineSet
EndChar

StartChar: y
Encoding: 121 121 90
Width: 543
VWidth: 1504
Flags: W
LayerCount: 2
Fore
SplineSet
48 -227 m 1,0,-1
 24 -149 l 1,1,2
 158 -119 158 -119 221 38 c 1,3,-1
 -6 511 l 1,4,-1
 98 511 l 1,5,-1
 275 132 l 1,6,-1
 444 511 l 1,7,-1
 548 511 l 1,8,-1
 313 11 l 2,9,10
 218 -189 218 -189 48 -227 c 1,0,-1
EndSplineSet
EndChar

StartChar: z
Encoding: 122 122 91
Width: 538
VWidth: 1504
Flags: W
LayerCount: 2
Fore
SplineSet
496 0 m 1,0,-1
 30 0 l 1,1,-1
 30 57 l 1,2,-1
 370 432 l 1,3,-1
 45 432 l 1,4,-1
 63 511 l 1,5,-1
 499 511 l 1,6,-1
 499 450 l 1,7,-1
 161 80 l 1,8,-1
 510 80 l 1,9,-1
 496 0 l 1,0,-1
EndSplineSet
EndChar

StartChar: braceleft
Encoding: 123 123 92
Width: 383
VWidth: 1504
Flags: W
LayerCount: 2
Fore
SplineSet
332 -132 m 1,0,-1
 298 -132 l 2,1,2
 117 -132 117 -132 117 21 c 0,3,4
 117 51 117 51 127.5 118 c 128,-1,5
 138 185 138 185 138 212 c 0,6,7
 138 266 138 266 45 269 c 1,8,-1
 45 347 l 1,9,10
 138 350 138 350 138 403 c 0,11,12
 138 435 138 435 127.5 502 c 128,-1,13
 117 569 117 569 117 596 c 0,14,15
 117 749 117 749 298 749 c 2,16,-1
 332 749 l 1,17,-1
 332 671 l 1,18,-1
 293 671 l 2,19,20
 210 671 210 671 206 593 c 1,21,22
 227 465 227 465 227 408 c 0,23,24
 227 375 227 375 208.5 345.5 c 128,-1,25
 190 316 190 316 164 308 c 1,26,27
 227 282 227 282 227 208 c 0,28,29
 227 152 227 152 206 24 c 1,30,31
 209 -56 209 -56 293 -56 c 2,32,-1
 332 -56 l 1,33,-1
 332 -132 l 1,0,-1
EndSplineSet
EndChar

StartChar: bar
Encoding: 124 124 93
Width: 266
VWidth: 1504
Flags: W
LayerCount: 2
Fore
SplineSet
176 -250 m 1,0,-1
 90 -250 l 1,1,-1
 90 791 l 1,2,-1
 176 791 l 1,3,-1
 176 -250 l 1,0,-1
EndSplineSet
EndChar

StartChar: braceright
Encoding: 125 125 94
Width: 383
VWidth: 1504
Flags: W
LayerCount: 2
Fore
SplineSet
343 269 m 1,0,1
 250 266 250 266 250 212 c 0,2,3
 250 185 250 185 260.5 118 c 128,-1,4
 271 51 271 51 271 21 c 0,5,6
 271 -132 271 -132 90 -132 c 2,7,-1
 56 -132 l 1,8,-1
 56 -56 l 1,9,-1
 95 -56 l 2,10,11
 182 -56 182 -56 182 18 c 0,12,13
 182 53 182 53 171.5 115 c 128,-1,14
 161 177 161 177 161 208 c 0,15,16
 161 283 161 283 224 308 c 1,17,18
 198 316 198 316 179.5 345.5 c 128,-1,19
 161 375 161 375 161 408 c 256,20,21
 161 441 161 441 171.5 504 c 128,-1,22
 182 567 182 567 182 599 c 0,23,24
 182 671 182 671 95 671 c 2,25,-1
 56 671 l 1,26,-1
 56 749 l 1,27,-1
 90 749 l 2,28,29
 271 749 271 749 271 596 c 0,30,31
 271 569 271 569 260.5 502 c 128,-1,32
 250 435 250 435 250 403 c 0,33,34
 250 350 250 350 343 347 c 1,35,-1
 343 269 l 1,0,1
EndSplineSet
EndChar

StartChar: asciitilde
Encoding: 126 126 95
Width: 634
VWidth: 1504
Flags: W
LayerCount: 2
Fore
SplineSet
614 366 m 2,0,1
 614 297 614 297 576.5 257 c 128,-1,2
 539 217 539 217 478 217 c 0,3,4
 442 217 442 217 319.5 263.5 c 128,-1,5
 197 310 197 310 171 310 c 0,6,7
 118 310 118 310 116 217 c 1,8,-1
 33 217 l 1,9,-1
 33 245 l 2,10,11
 33 311 33 311 73 350.5 c 128,-1,12
 113 390 113 390 171 390 c 0,13,14
 212 390 212 390 332.5 345.5 c 128,-1,15
 453 301 453 301 481 301 c 0,16,17
 528 301 528 301 532 390 c 1,18,-1
 614 390 l 1,19,-1
 614 366 l 2,0,1
EndSplineSet
EndChar

StartChar: uni0E4E.alt1
Encoding: 65540 -1 99
Width: 0
VWidth: 1504
Flags: W
LayerCount: 2
Fore
SplineSet
-184 999 m 1,0,-1
 -197 961 l 1,1,2
 -223 969 -223 969 -253 969 c 0,3,4
 -322 969 -322 969 -322 922 c 0,5,6
 -322 872 -322 872 -247 863 c 1,7,-1
 -260 829 l 1,8,9
 -278 835 -278 835 -296 835 c 0,10,11
 -338 835 -338 835 -364.5 816 c 128,-1,12
 -391 797 -391 797 -391 775 c 0,13,14
 -391 734 -391 734 -323 734 c 0,15,16
 -303 734 -303 734 -275 746 c 1,17,-1
 -274 708 l 1,18,19
 -303 696 -303 696 -343 696 c 0,20,21
 -381 696 -381 696 -408 718 c 128,-1,22
 -435 740 -435 740 -435 776 c 0,23,24
 -435 814 -435 814 -405 839.5 c 128,-1,25
 -375 865 -375 865 -337 865 c 1,26,27
 -367 885 -367 885 -367 922 c 0,28,29
 -367 1009 -367 1009 -251 1009 c 0,30,31
 -211 1010 -211 1010 -184 999 c 1,0,-1
EndSplineSet
EndChar

StartChar: exclamdown
Encoding: 161 161 100
Width: 252
VWidth: 1504
Flags: W
LayerCount: 2
Fore
SplineSet
181 -212 m 1,0,-1
 72 -212 l 1,1,-1
 83 295 l 1,2,-1
 167 295 l 1,3,-1
 181 -212 l 1,0,-1
199 445 m 256,4,5
 199 415 199 415 177.5 394 c 128,-1,6
 156 373 156 373 126 373 c 256,7,8
 96 373 96 373 75 394 c 128,-1,9
 54 415 54 415 54 445 c 256,10,11
 54 475 54 475 75 496 c 128,-1,12
 96 517 96 517 126 517 c 256,13,14
 156 517 156 517 177.5 496 c 128,-1,15
 199 475 199 475 199 445 c 256,4,5
EndSplineSet
EndChar

StartChar: cent
Encoding: 162 162 101
Width: 722
VWidth: 1504
Flags: W
LayerCount: 2
Fore
SplineSet
629 78 m 1,0,1
 549 34 549 34 429 32 c 1,2,-1
 429 -84 l 1,3,-1
 346 -84 l 1,4,-1
 346 36 l 1,5,6
 229 57 229 57 160.5 139 c 128,-1,7
 92 221 92 221 92 344 c 256,8,9
 92 467 92 467 160.5 549.5 c 128,-1,10
 229 632 229 632 346 653 c 1,11,-1
 346 773 l 1,12,-1
 429 773 l 1,13,-1
 429 657 l 1,14,15
 549 654 549 654 629 611 c 1,16,-1
 597 539 l 1,17,18
 559 556 559 556 518.5 564.5 c 128,-1,19
 478 573 478 573 435 573 c 0,20,21
 316 573 316 573 249 513 c 128,-1,22
 182 453 182 453 182 344 c 256,23,24
 182 236 182 236 249 176 c 128,-1,25
 316 116 316 116 435 116 c 0,26,27
 479 116 479 116 519.5 125 c 128,-1,28
 560 134 560 134 597 150 c 1,29,-1
 629 78 l 1,0,1
EndSplineSet
EndChar

StartChar: sterling
Encoding: 163 163 102
Width: 722
VWidth: 1504
Flags: W
LayerCount: 2
Fore
SplineSet
588 0 m 1,0,-1
 134 0 l 1,1,-1
 134 56 l 1,2,3
 257 133 257 133 257 242 c 0,4,5
 257 254 257 254 255.5 273.5 c 128,-1,6
 254 293 254 293 251 314 c 1,7,-1
 135 314 l 1,8,-1
 135 384 l 1,9,-1
 242 384 l 1,10,11
 239 416 239 416 237 442 c 128,-1,12
 235 468 235 468 235 493 c 0,13,14
 235 704 235 704 432 704 c 0,15,16
 492 704 492 704 569 669 c 1,17,-1
 542 606 l 1,18,19
 476 633 476 633 429 633 c 0,20,21
 309 633 309 633 308 493 c 0,22,23
 308 436 308 436 319 384 c 1,24,-1
 486 384 l 1,25,-1
 486 314 l 1,26,-1
 331 314 l 1,27,28
 333 302 333 302 333.5 285 c 128,-1,29
 334 268 334 268 334 253 c 0,30,31
 334 143 334 143 271 71 c 1,32,-1
 588 71 l 1,33,-1
 588 0 l 1,0,-1
EndSplineSet
EndChar

StartChar: currency
Encoding: 164 164 103
Width: 722
VWidth: 1504
Flags: W
LayerCount: 2
Fore
SplineSet
642 340 m 256,0,1
 642 251 642 251 591 181 c 1,2,-1
 647 122 l 1,3,-1
 582 53 l 1,4,-1
 523 114 l 1,5,6
 457 61 457 61 360 62 c 0,7,8
 265 62 265 62 199 114 c 1,9,-1
 140 53 l 1,10,-1
 75 122 l 1,11,-1
 131 181 l 1,12,13
 80 252 80 252 80 340 c 256,14,15
 80 429 80 429 131 499 c 1,16,-1
 75 558 l 1,17,-1
 140 627 l 1,18,-1
 199 566 l 1,19,20
 265 619 265 619 360 618 c 0,21,22
 458 618 458 618 523 566 c 1,23,-1
 582 627 l 1,24,-1
 647 558 l 1,25,-1
 591 499 l 1,26,27
 642 429 642 429 642 340 c 256,0,1
549 340 m 0,28,29
 549 417 549 417 493.5 472.5 c 128,-1,30
 438 528 438 528 361 528 c 0,31,32
 281 528 281 528 227 472.5 c 128,-1,33
 173 417 173 417 173 340 c 0,34,35
 173 260 173 260 227 206 c 128,-1,36
 281 152 281 152 361 152 c 0,37,38
 438 152 438 152 493.5 206 c 128,-1,39
 549 260 549 260 549 340 c 0,28,29
EndSplineSet
EndChar

StartChar: yen
Encoding: 165 165 104
Width: 722
VWidth: 1504
Flags: W
LayerCount: 2
Fore
SplineSet
578 137 m 1,0,-1
 405 137 l 1,1,-1
 405 27 l 1,2,-1
 317 27 l 1,3,-1
 317 137 l 1,4,-1
 144 137 l 1,5,-1
 144 212 l 1,6,-1
 317 212 l 1,7,-1
 317 260 l 1,8,-1
 144 260 l 1,9,-1
 144 335 l 1,10,-1
 302 335 l 1,11,-1
 84 693 l 1,12,-1
 190 693 l 1,13,-1
 360 408 l 1,14,-1
 531 693 l 1,15,-1
 638 693 l 1,16,-1
 418 337 l 1,17,-1
 578 337 l 1,18,-1
 578 260 l 1,19,-1
 405 260 l 1,20,-1
 405 212 l 1,21,-1
 578 212 l 1,22,-1
 578 137 l 1,0,-1
EndSplineSet
EndChar

StartChar: brokenbar
Encoding: 166 166 105
Width: 242
VWidth: 1504
Flags: W
LayerCount: 2
Fore
SplineSet
156 331 m 1,0,-1
 84 331 l 1,1,-1
 84 716 l 1,2,-1
 156 716 l 1,3,-1
 156 331 l 1,0,-1
156 -179 m 1,4,-1
 84 -179 l 1,5,-1
 84 208 l 1,6,-1
 156 208 l 1,7,-1
 156 -179 l 1,4,-1
EndSplineSet
EndChar

StartChar: section
Encoding: 167 167 106
Width: 571
VWidth: 1504
Flags: W
LayerCount: 2
Fore
SplineSet
462 107 m 0,0,1
 462 30 462 30 407 -13.5 c 128,-1,2
 352 -57 352 -57 268 -57 c 0,3,4
 173 -57 173 -57 102 0 c 1,5,-1
 137 63 l 1,6,7
 167 34 167 34 200 22.5 c 128,-1,8
 233 11 233 11 271 11 c 0,9,10
 325 11 325 11 357.5 35.5 c 128,-1,11
 390 60 390 60 390 99 c 0,12,13
 390 152 390 152 317 188 c 1,14,15
 279 203 279 203 239 219 c 128,-1,16
 199 235 199 235 161 251 c 1,17,18
 81 290 81 290 81 375 c 0,19,20
 81 440 81 440 140 492 c 1,21,22
 113 527 113 527 113 570 c 0,23,24
 113 638 113 638 164 680 c 128,-1,25
 215 722 215 722 299 722 c 0,26,27
 338 722 338 722 378 710 c 128,-1,28
 418 698 418 698 457 677 c 1,29,-1
 420 612 l 1,30,31
 360 656 360 656 292 656 c 0,32,33
 248 656 248 656 218 634 c 128,-1,34
 188 612 188 612 188 579 c 0,35,36
 188 562 188 562 198 548.5 c 128,-1,37
 208 535 208 535 224 523 c 0,38,39
 236 515 236 515 263 504 c 128,-1,40
 290 493 290 493 326 481 c 0,41,42
 403 454 403 454 446 413 c 128,-1,43
 489 372 489 372 489 319 c 0,44,45
 489 284 489 284 474 253.5 c 128,-1,46
 459 223 459 223 433 194 c 1,47,48
 462 160 462 160 462 107 c 0,0,1
412 311 m 0,49,50
 412 337 412 337 382.5 363.5 c 128,-1,51
 353 390 353 390 308 406 c 0,52,53
 269 420 269 420 240 432 c 128,-1,54
 211 444 211 444 191 453 c 1,55,56
 153 420 153 420 153 378 c 0,57,58
 153 360 153 360 165 345.5 c 128,-1,59
 177 331 177 331 199 316 c 1,60,61
 214 308 214 308 238.5 297 c 128,-1,62
 263 286 263 286 302 272 c 0,63,64
 331 261 331 261 350.5 253 c 128,-1,65
 370 245 370 245 384 236 c 1,66,67
 401 256 401 256 406.5 273.5 c 128,-1,68
 412 291 412 291 412 311 c 0,49,50
EndSplineSet
EndChar

StartChar: dieresis
Encoding: 168 168 107
Width: 512
VWidth: 1504
Flags: W
LayerCount: 2
Fore
SplineSet
211 639 m 0,0,1
 211 610 211 610 191 591.5 c 128,-1,2
 171 573 171 573 146 573 c 0,3,4
 119 573 119 573 99.5 592 c 128,-1,5
 80 611 80 611 80 639 c 0,6,7
 80 666 80 666 99.5 685.5 c 128,-1,8
 119 705 119 705 146 705 c 0,9,10
 172 705 172 705 191.5 685.5 c 128,-1,11
 211 666 211 666 211 639 c 0,0,1
433 639 m 0,12,13
 433 610 433 610 413.5 591.5 c 128,-1,14
 394 573 394 573 369 573 c 256,15,16
 343 573 343 573 322.5 592 c 128,-1,17
 302 611 302 611 302 639 c 0,18,19
 302 666 302 666 322.5 685.5 c 128,-1,20
 343 705 343 705 369 705 c 256,21,22
 395 705 395 705 414 685.5 c 128,-1,23
 433 666 433 666 433 639 c 0,12,13
EndSplineSet
EndChar

StartChar: copyright
Encoding: 169 169 108
Width: 812
VWidth: 1504
Flags: W
LayerCount: 2
Fore
SplineSet
558 176 m 1,0,1
 501 132 501 132 403 132 c 0,2,3
 302 132 302 132 243.5 195.5 c 128,-1,4
 185 259 185 259 185 350 c 0,5,6
 185 455 185 455 246.5 516.5 c 128,-1,7
 308 578 308 578 411 578 c 0,8,9
 503 578 503 578 551 542 c 1,10,-1
 532 487 l 1,11,12
 475 520 475 520 411 520 c 0,13,14
 255 520 255 520 254 358 c 0,15,16
 254 194 254 194 412 194 c 0,17,18
 486 194 486 194 539 232 c 1,19,-1
 558 176 l 1,0,1
772 361 m 256,20,21
 772 211 772 211 664.5 103 c 128,-1,22
 557 -5 557 -5 406 -5 c 256,23,24
 256 -5 256 -5 148.5 103 c 128,-1,25
 41 211 41 211 41 361 c 256,26,27
 41 511 41 511 148.5 619 c 128,-1,28
 256 727 256 727 406 727 c 256,29,30
 556 727 556 727 664 619 c 128,-1,31
 772 511 772 511 772 361 c 256,20,21
708 361 m 256,32,33
 708 486 708 486 619.5 574.5 c 128,-1,34
 531 663 531 663 406 663 c 256,35,36
 281 663 281 663 192.5 574.5 c 128,-1,37
 104 486 104 486 104 361 c 256,38,39
 104 236 104 236 192.5 147.5 c 128,-1,40
 281 59 281 59 406 59 c 256,41,42
 531 59 531 59 619.5 147.5 c 128,-1,43
 708 236 708 236 708 361 c 256,32,33
EndSplineSet
EndChar

StartChar: ordfeminine
Encoding: 170 170 109
Width: 379
VWidth: 1504
Flags: W
LayerCount: 2
Fore
SplineSet
338 373 m 1,0,-1
 274 373 l 1,1,2
 271 381 271 381 269.5 390.5 c 128,-1,3
 268 400 268 400 265 412 c 1,4,5
 223 368 223 368 159 369 c 0,6,7
 39 369 39 369 39 477 c 0,8,9
 39 597 39 597 260 602 c 1,10,11
 257 640 257 640 234 655.5 c 128,-1,12
 211 671 211 671 181 671 c 0,13,14
 155 671 155 671 128.5 665 c 128,-1,15
 102 659 102 659 77 641 c 1,16,-1
 56 692 l 1,17,18
 88 713 88 713 122 722 c 128,-1,19
 156 731 156 731 191 731 c 0,20,21
 326 731 326 731 326 566 c 2,22,-1
 326 439 l 2,23,24
 326 431 326 431 328 414 c 128,-1,25
 330 397 330 397 338 373 c 1,0,-1
260 487 m 2,26,-1
 260 546 l 1,27,28
 179 546 179 546 142 528.5 c 128,-1,29
 105 511 105 511 105 477 c 0,30,31
 105 424 105 424 168 424 c 0,32,33
 182 424 182 424 198 428.5 c 128,-1,34
 214 433 214 433 228 441.5 c 128,-1,35
 242 450 242 450 251 461 c 128,-1,36
 260 472 260 472 260 487 c 2,26,-1
EndSplineSet
EndChar

StartChar: guillemotleft
Encoding: 171 171 110
Width: 535
VWidth: 1504
Flags: W
LayerCount: 2
Fore
SplineSet
490 71 m 1,0,-1
 400 71 l 1,1,-1
 229 269 l 1,2,-1
 400 472 l 1,3,-1
 489 472 l 1,4,-1
 319 271 l 1,5,-1
 490 71 l 1,0,-1
307 71 m 1,6,-1
 215 71 l 1,7,-1
 45 269 l 1,8,-1
 212 474 l 1,9,-1
 305 474 l 1,10,-1
 134 269 l 1,11,-1
 307 71 l 1,6,-1
EndSplineSet
EndChar

StartChar: logicalnot
Encoding: 172 172 111
Width: 673
VWidth: 1504
Flags: W
LayerCount: 2
Fore
SplineSet
606 132 m 1,0,-1
 534 132 l 1,1,-1
 534 352 l 1,2,-1
 51 352 l 1,3,-1
 51 420 l 1,4,-1
 606 420 l 1,5,-1
 606 132 l 1,0,-1
EndSplineSet
EndChar

StartChar: registered
Encoding: 174 174 112
Width: 812
VWidth: 1504
Flags: W
LayerCount: 2
Fore
SplineSet
570 134 m 1,0,-1
 511 134 l 1,1,2
 484 331 484 331 394 331 c 2,3,-1
 319 331 l 1,4,-1
 319 134 l 1,5,-1
 257 134 l 1,6,-1
 257 578 l 1,7,8
 326 590 326 590 381 590 c 0,9,10
 461 590 461 590 508 556 c 128,-1,11
 555 522 555 522 555 463 c 0,12,13
 555 385 555 385 481 352 c 1,14,15
 517 326 517 326 536 281 c 128,-1,16
 555 236 555 236 570 134 c 1,0,-1
499 459 m 256,17,18
 499 537 499 537 381 537 c 0,19,20
 343 537 343 537 319 534 c 1,21,-1
 319 381 l 1,22,-1
 390 381 l 2,23,24
 499 381 499 381 499 459 c 256,17,18
772 361 m 256,25,26
 772 211 772 211 664.5 103 c 128,-1,27
 557 -5 557 -5 406 -5 c 256,28,29
 256 -5 256 -5 148.5 103 c 128,-1,30
 41 211 41 211 41 361 c 256,31,32
 41 511 41 511 148.5 619 c 128,-1,33
 256 727 256 727 406 727 c 256,34,35
 556 727 556 727 664 619 c 128,-1,36
 772 511 772 511 772 361 c 256,25,26
708 361 m 256,37,38
 708 486 708 486 619.5 574.5 c 128,-1,39
 531 663 531 663 406 663 c 256,40,41
 281 663 281 663 192.5 574.5 c 128,-1,42
 104 486 104 486 104 361 c 256,43,44
 104 236 104 236 192.5 147.5 c 128,-1,45
 281 59 281 59 406 59 c 256,46,47
 531 59 531 59 619.5 147.5 c 128,-1,48
 708 236 708 236 708 361 c 256,37,38
EndSplineSet
EndChar

StartChar: macron
Encoding: 175 175 113
Width: 565
VWidth: 1504
Flags: W
LayerCount: 2
Fore
SplineSet
566 794 m 1,0,-1
 0 794 l 1,1,-1
 0 874 l 1,2,-1
 566 874 l 1,3,-1
 566 794 l 1,0,-1
EndSplineSet
EndChar

StartChar: degree
Encoding: 176 176 114
Width: 416
VWidth: 1504
Flags: W
LayerCount: 2
Fore
SplineSet
341 597 m 256,0,1
 341 541 341 541 302 502 c 128,-1,2
 263 463 263 463 208 463 c 256,3,4
 152 463 152 463 113 502.5 c 128,-1,5
 74 542 74 542 74 597 c 256,6,7
 74 653 74 653 113 692 c 128,-1,8
 152 731 152 731 208 731 c 256,9,10
 264 731 264 731 302.5 692 c 128,-1,11
 341 653 341 653 341 597 c 256,0,1
293 597 m 256,12,13
 293 632 293 632 267.5 657.5 c 128,-1,14
 242 683 242 683 208 683 c 256,15,16
 173 683 173 683 147.5 657.5 c 128,-1,17
 122 632 122 632 122 597 c 256,18,19
 122 562 122 562 147.5 536.5 c 128,-1,20
 173 511 173 511 208 511 c 256,21,22
 243 511 243 511 268 536.5 c 128,-1,23
 293 562 293 562 293 597 c 256,12,13
EndSplineSet
EndChar

StartChar: plusminus
Encoding: 177 177 115
Width: 661
VWidth: 1504
Flags: W
LayerCount: 2
Fore
SplineSet
609 0 m 1,0,-1
 54 0 l 1,1,-1
 54 83 l 1,2,-1
 609 83 l 1,3,-1
 609 0 l 1,0,-1
602 326 m 1,4,-1
 379 326 l 1,5,-1
 379 117 l 1,6,-1
 284 117 l 1,7,-1
 284 326 l 1,8,-1
 62 326 l 1,9,-1
 62 409 l 1,10,-1
 284 409 l 1,11,-1
 284 636 l 1,12,-1
 379 636 l 1,13,-1
 379 409 l 1,14,-1
 602 409 l 1,15,-1
 602 326 l 1,4,-1
EndSplineSet
EndChar

StartChar: twosuperior
Encoding: 178 178 116
Width: 391
VWidth: 1504
Flags: W
LayerCount: 2
Fore
SplineSet
326 286 m 1,0,-1
 41 286 l 1,1,2
 41 333 41 333 74.5 375.5 c 128,-1,3
 108 418 108 418 148 457 c 128,-1,4
 188 496 188 496 222 533 c 128,-1,5
 256 570 256 570 256 605 c 0,6,7
 256 631 256 631 241.5 644 c 128,-1,8
 227 657 227 657 205 657 c 0,9,10
 176 657 176 657 153.5 636 c 128,-1,11
 131 615 131 615 128 575 c 1,12,-1
 65 587 l 1,13,14
 73 655 73 655 108.5 690 c 128,-1,15
 144 725 144 725 200 725 c 0,16,17
 257 725 257 725 292.5 692.5 c 128,-1,18
 328 660 328 660 328 605 c 0,19,20
 328 573 328 573 308.5 535.5 c 128,-1,21
 289 498 289 498 247 454 c 2,22,-1
 149 353 l 1,23,-1
 335 353 l 1,24,-1
 326 286 l 1,0,-1
EndSplineSet
EndChar

StartChar: threesuperior
Encoding: 179 179 117
Width: 391
VWidth: 1504
Flags: W
LayerCount: 2
Fore
SplineSet
343 442 m 0,0,1
 343 370 343 370 295.5 326.5 c 128,-1,2
 248 283 248 283 167 281 c 0,3,4
 105 281 105 281 54 319 c 1,5,-1
 84 382 l 1,6,7
 105 364 105 364 126 358 c 128,-1,8
 147 352 147 352 168 352 c 0,9,10
 216 352 216 352 244 377 c 128,-1,11
 272 402 272 402 272 441 c 0,12,13
 272 467 272 467 256.5 480 c 128,-1,14
 241 493 241 493 220 493 c 0,15,16
 202 493 202 493 183.5 486.5 c 128,-1,17
 165 480 165 480 153 471 c 1,18,-1
 129 516 l 1,19,20
 188 543 188 543 217.5 572.5 c 128,-1,21
 247 602 247 602 247 626 c 0,22,23
 247 659 247 659 205 659 c 0,24,25
 179 659 179 659 155 641.5 c 128,-1,26
 131 624 131 624 119 590 c 1,27,-1
 63 618 l 1,28,29
 110 726 110 726 209 727 c 0,30,31
 313 727 313 727 313 638 c 0,32,33
 313 587 313 587 265 545 c 1,34,35
 343 522 343 522 343 442 c 0,0,1
EndSplineSet
EndChar

StartChar: acute
Encoding: 180 180 118
Width: 389
VWidth: 1504
Flags: W
LayerCount: 2
Fore
SplineSet
150 551 m 1,0,-1
 80 551 l 1,1,-1
 193 724 l 1,2,-1
 310 724 l 1,3,-1
 150 551 l 1,0,-1
EndSplineSet
EndChar

StartChar: mu
Encoding: 181 181 119
Width: 622
VWidth: 1504
Flags: W
LayerCount: 2
Fore
SplineSet
581 6 m 1,0,-1
 489 -12 l 1,1,2
 481 5 481 5 476 22 c 128,-1,3
 471 39 471 39 466 60 c 1,4,5
 424 27 424 27 379.5 6.5 c 128,-1,6
 335 -14 335 -14 283 -14 c 0,7,8
 248 -14 248 -14 217.5 -1.5 c 128,-1,9
 187 11 187 11 165 36 c 1,10,-1
 165 -212 l 1,11,-1
 71 -212 l 1,12,-1
 71 514 l 1,13,-1
 165 514 l 1,14,-1
 165 241 l 2,15,16
 165 71 165 71 295 71 c 0,17,18
 351 71 351 71 402.5 109 c 128,-1,19
 454 147 454 147 454 209 c 2,20,-1
 454 514 l 1,21,-1
 549 514 l 1,22,-1
 549 137 l 2,23,24
 549 110 549 110 557.5 77 c 128,-1,25
 566 44 566 44 581 6 c 1,0,-1
EndSplineSet
EndChar

StartChar: paragraph
Encoding: 182 182 120
Width: 571
VWidth: 1504
Flags: W
LayerCount: 2
Fore
SplineSet
487 -95 m 1,0,-1
 436 -95 l 1,1,-1
 436 666 l 1,2,-1
 364 666 l 1,3,-1
 364 -95 l 1,4,-1
 311 -95 l 1,5,-1
 311 271 l 1,6,-1
 305 271 l 2,7,8
 215 271 215 271 143.5 327.5 c 128,-1,9
 72 384 72 384 72 483 c 0,10,11
 72 715 72 715 370 714 c 0,12,13
 450 714 450 714 487 707 c 1,14,-1
 487 -95 l 1,0,-1
EndSplineSet
EndChar

StartChar: periodcentered
Encoding: 183 183 121
Width: 258
VWidth: 1504
Flags: W
LayerCount: 2
Fore
SplineSet
202 274 m 256,0,1
 202 244 202 244 180.5 223 c 128,-1,2
 159 202 159 202 129 202 c 256,3,4
 99 202 99 202 78 223 c 128,-1,5
 57 244 57 244 57 274 c 256,6,7
 57 304 57 304 78 325 c 128,-1,8
 99 346 99 346 129 346 c 256,9,10
 159 346 159 346 180.5 325 c 128,-1,11
 202 304 202 304 202 274 c 256,0,1
EndSplineSet
EndChar

StartChar: cedilla
Encoding: 184 184 122
Width: 374
VWidth: 1504
Flags: W
LayerCount: 2
Fore
SplineSet
295 -135 m 0,0,1
 295 -183 295 -183 263.5 -211 c 128,-1,2
 232 -239 232 -239 174 -239 c 0,3,4
 153 -239 153 -239 127.5 -232.5 c 128,-1,5
 102 -226 102 -226 80 -212 c 1,6,-1
 101 -164 l 1,7,8
 122 -175 122 -175 143.5 -181 c 128,-1,9
 165 -187 165 -187 177 -187 c 0,10,11
 225 -187 225 -187 226 -141 c 0,12,13
 226 -99 226 -99 129 -83 c 1,14,-1
 194 17 l 1,15,-1
 259 17 l 1,16,-1
 217 -42 l 1,17,18
 258 -54 258 -54 276.5 -77 c 128,-1,19
 295 -100 295 -100 295 -135 c 0,0,1
EndSplineSet
EndChar

StartChar: onesuperior
Encoding: 185 185 123
Width: 391
VWidth: 1504
Flags: W
LayerCount: 2
Fore
SplineSet
316 293 m 1,0,-1
 114 293 l 1,1,-1
 114 352 l 1,2,-1
 179 352 l 1,3,-1
 179 623 l 1,4,-1
 119 566 l 1,5,-1
 81 617 l 1,6,-1
 206 728 l 1,7,8
 229 728 229 728 241 713.5 c 128,-1,9
 253 699 253 699 253 677 c 2,10,-1
 253 352 l 1,11,-1
 316 352 l 1,12,-1
 316 293 l 1,0,-1
EndSplineSet
EndChar

StartChar: ordmasculine
Encoding: 186 186 124
Width: 442
VWidth: 1504
Flags: W
LayerCount: 2
Fore
SplineSet
412 540 m 0,0,1
 412 459 412 459 355.5 404 c 128,-1,2
 299 349 299 349 220 349 c 0,3,4
 139 349 139 349 84 404 c 128,-1,5
 29 459 29 459 29 540 c 0,6,7
 29 620 29 620 83.5 676.5 c 128,-1,8
 138 733 138 733 220 733 c 0,9,10
 300 733 300 733 356 676.5 c 128,-1,11
 412 620 412 620 412 540 c 0,0,1
346 540 m 256,12,13
 346 591 346 591 308.5 628.5 c 128,-1,14
 271 666 271 666 220 666 c 256,15,16
 169 666 169 666 132 628.5 c 128,-1,17
 95 591 95 591 95 540 c 256,18,19
 95 489 95 489 131.5 452 c 128,-1,20
 168 415 168 415 220 415 c 256,21,22
 271 415 271 415 308.5 452 c 128,-1,23
 346 489 346 489 346 540 c 256,12,13
EndSplineSet
EndChar

StartChar: guillemotright
Encoding: 187 187 125
Width: 535
VWidth: 1504
Flags: W
LayerCount: 2
Fore
SplineSet
135 71 m 1,0,-1
 45 71 l 1,1,-1
 217 271 l 1,2,-1
 47 472 l 1,3,-1
 135 472 l 1,4,-1
 307 269 l 1,5,-1
 135 71 l 1,0,-1
320 71 m 1,6,-1
 229 71 l 1,7,-1
 402 269 l 1,8,-1
 230 474 l 1,9,-1
 323 474 l 1,10,-1
 490 269 l 1,11,-1
 320 71 l 1,6,-1
EndSplineSet
EndChar

StartChar: onequarter
Encoding: 188 188 126
Width: 815
VWidth: 1504
Flags: W
LayerCount: 2
Fore
SplineSet
271 265 m 1,0,-1
 69 265 l 1,1,-1
 69 323 l 1,2,-1
 134 323 l 1,3,-1
 134 585 l 1,4,-1
 77 535 l 1,5,-1
 35 590 l 1,6,-1
 161 701 l 1,7,8
 208 698 208 698 208 648 c 2,9,-1
 208 323 l 1,10,-1
 271 323 l 1,11,-1
 271 265 l 1,0,-1
238 -14 m 1,12,-1
 162 -14 l 1,13,-1
 594 713 l 1,14,-1
 669 713 l 1,15,-1
 238 -14 l 1,12,-1
624 162 m 1,16,-1
 624 340 l 1,17,18
 589 310 589 310 564.5 259.5 c 128,-1,19
 540 209 540 209 534 162 c 1,20,-1
 624 162 l 1,16,-1
698 0 m 1,21,-1
 624 0 l 1,22,-1
 624 90 l 1,23,-1
 456 90 l 1,24,25
 456 138 456 138 471 198.5 c 128,-1,26
 486 259 486 259 516 312.5 c 128,-1,27
 546 366 546 366 593.5 402.5 c 128,-1,28
 641 439 641 439 698 441 c 1,29,-1
 698 162 l 1,30,-1
 761 162 l 1,31,-1
 758 90 l 1,32,-1
 698 90 l 1,33,-1
 698 0 l 1,21,-1
EndSplineSet
Ligature2: "'frac' Diagonal Fractions in Latin lookup 0 subtable" one fraction four
Ligature2: "'frac' Diagonal Fractions in Latin lookup 0 subtable" one slash four
EndChar

StartChar: onehalf
Encoding: 189 189 127
Width: 815
VWidth: 1504
Flags: W
LayerCount: 2
Fore
SplineSet
782 0 m 1,0,-1
 496 0 l 1,1,2
 501 57 501 57 535 100.5 c 128,-1,3
 569 144 569 144 606 179 c 0,4,5
 624 197 624 197 643 214.5 c 128,-1,6
 662 232 662 232 677 250 c 128,-1,7
 692 268 692 268 701.5 285 c 128,-1,8
 711 302 711 302 711 319 c 0,9,10
 711 340 711 340 698.5 355 c 128,-1,11
 686 370 686 370 660 370 c 0,12,13
 598 370 598 370 588 289 c 1,14,-1
 520 301 l 1,15,16
 526 369 526 369 563 404 c 128,-1,17
 600 439 600 439 656 439 c 0,18,19
 713 439 713 439 749 407.5 c 128,-1,20
 785 376 785 376 785 319 c 0,21,22
 785 281 785 281 763.5 248 c 128,-1,23
 742 215 742 215 712.5 184 c 128,-1,24
 683 153 683 153 653 124.5 c 128,-1,25
 623 96 623 96 605 69 c 1,26,-1
 791 69 l 1,27,-1
 782 0 l 1,0,-1
238 -14 m 1,28,-1
 162 -14 l 1,29,-1
 594 713 l 1,30,-1
 669 713 l 1,31,-1
 238 -14 l 1,28,-1
271 265 m 1,32,-1
 69 265 l 1,33,-1
 69 323 l 1,34,-1
 134 323 l 1,35,-1
 134 585 l 1,36,-1
 77 535 l 1,37,-1
 35 590 l 1,38,-1
 161 701 l 1,39,40
 208 698 208 698 208 648 c 2,41,-1
 208 323 l 1,42,-1
 271 323 l 1,43,-1
 271 265 l 1,32,-1
EndSplineSet
Ligature2: "'frac' Diagonal Fractions in Latin lookup 0 subtable" one fraction two
Ligature2: "'frac' Diagonal Fractions in Latin lookup 0 subtable" one slash two
EndChar

StartChar: threequarters
Encoding: 190 190 128
Width: 815
VWidth: 1504
Flags: W
LayerCount: 2
Fore
SplineSet
238 -14 m 1,0,-1
 162 -14 l 1,1,-1
 594 713 l 1,2,-1
 669 713 l 1,3,-1
 238 -14 l 1,0,-1
335 429 m 0,4,5
 335 390 335 390 320 359.5 c 128,-1,6
 305 329 305 329 281 309 c 128,-1,7
 257 289 257 289 225 278.5 c 128,-1,8
 193 268 193 268 159 268 c 0,9,10
 97 268 97 268 47 305 c 1,11,-1
 77 370 l 1,12,13
 98 353 98 353 119 345 c 128,-1,14
 140 337 140 337 161 337 c 0,15,16
 209 337 209 337 237 362.5 c 128,-1,17
 265 388 265 388 265 427 c 0,18,19
 265 480 265 480 215 480 c 0,20,21
 177 480 177 480 146 453 c 1,22,-1
 122 498 l 1,23,24
 188 533 188 533 211.5 560 c 128,-1,25
 235 587 235 587 235 617 c 0,26,27
 235 629 235 629 226 637 c 128,-1,28
 217 645 217 645 197 645 c 0,29,30
 137 645 137 645 111 572 c 1,31,-1
 56 600 l 1,32,33
 101 708 101 708 202 708 c 0,34,35
 255 708 255 708 279.5 684 c 128,-1,36
 304 660 304 660 304 627 c 0,37,38
 304 576 304 576 257 534 c 1,39,40
 298 528 298 528 316.5 499.5 c 128,-1,41
 335 471 335 471 335 429 c 0,4,5
624 162 m 1,42,-1
 624 340 l 1,43,44
 589 310 589 310 564.5 259.5 c 128,-1,45
 540 209 540 209 534 162 c 1,46,-1
 624 162 l 1,42,-1
698 0 m 1,47,-1
 624 0 l 1,48,-1
 624 90 l 1,49,-1
 456 90 l 1,50,51
 456 138 456 138 471 198.5 c 128,-1,52
 486 259 486 259 516 312.5 c 128,-1,53
 546 366 546 366 593.5 402.5 c 128,-1,54
 641 439 641 439 698 441 c 1,55,-1
 698 162 l 1,56,-1
 761 162 l 1,57,-1
 758 90 l 1,58,-1
 698 90 l 1,59,-1
 698 0 l 1,47,-1
EndSplineSet
Ligature2: "'frac' Diagonal Fractions in Latin lookup 0 subtable" three fraction four
Ligature2: "'frac' Diagonal Fractions in Latin lookup 0 subtable" three slash four
EndChar

StartChar: questiondown
Encoding: 191 191 129
Width: 434
VWidth: 1504
Flags: W
LayerCount: 2
Fore
SplineSet
399 -171 m 1,0,1
 310 -227 310 -227 226 -227 c 0,2,3
 140 -227 140 -227 88 -181 c 128,-1,4
 36 -135 36 -135 36 -59 c 0,5,6
 36 21 36 21 135 123 c 0,7,8
 170 158 170 158 186.5 193.5 c 128,-1,9
 203 229 203 229 205 260 c 0,10,11
 205 286 205 286 194 323 c 1,12,-1
 280 323 l 1,13,14
 288 302 288 302 291.5 285 c 128,-1,15
 295 268 295 268 295 256 c 0,16,17
 295 173 295 173 208 81 c 0,18,19
 131 0 131 0 131 -56 c 0,20,21
 131 -142 131 -142 236 -141 c 0,22,23
 301 -141 301 -141 361 -98 c 1,24,-1
 399 -171 l 1,0,1
302 441 m 256,25,26
 302 411 302 411 281 390 c 128,-1,27
 260 369 260 369 232 369 c 256,28,29
 203 369 203 369 182 390 c 128,-1,30
 161 411 161 411 161 441 c 256,31,32
 161 471 161 471 182 492 c 128,-1,33
 203 513 203 513 232 513 c 256,34,35
 261 513 261 513 281.5 492 c 128,-1,36
 302 471 302 471 302 441 c 256,25,26
EndSplineSet
EndChar

StartChar: AE
Encoding: 198 198 136
Width: 876
VWidth: 1504
Flags: W
LayerCount: 2
Fore
SplineSet
835 0 m 1,0,-1
 490 0 l 1,1,-1
 450 286 l 1,2,-1
 239 286 l 1,3,-1
 87 0 l 1,4,-1
 -15 0 l 1,5,-1
 375 727 l 1,6,-1
 817 727 l 1,7,-1
 817 644 l 1,8,-1
 489 644 l 1,9,-1
 517 423 l 1,10,-1
 802 423 l 1,11,-1
 802 340 l 1,12,-1
 531 340 l 1,13,-1
 570 83 l 1,14,-1
 835 83 l 1,15,-1
 835 0 l 1,0,-1
438 367 m 1,16,-1
 409 609 l 1,17,-1
 280 367 l 1,18,-1
 438 367 l 1,16,-1
EndSplineSet
EndChar

StartChar: Eth
Encoding: 208 208 146
Width: 690
VWidth: 1504
Flags: W
LayerCount: 2
Fore
SplineSet
651 373 m 0,0,1
 651 211 651 211 573 113 c 0,2,3
 477 -6 477 -6 277 -6 c 0,4,5
 215 -6 215 -6 75 9 c 1,6,-1
 75 310 l 1,7,-1
 14 310 l 1,8,-1
 14 391 l 1,9,-1
 75 391 l 1,10,-1
 75 704 l 1,11,12
 246 724 246 724 307 724 c 0,13,14
 491 724 491 724 579 614 c 0,15,16
 651 525 651 525 651 373 c 0,0,1
555 373 m 0,17,18
 555 642 555 642 302 642 c 0,19,20
 260 642 260 642 170 633 c 1,21,-1
 170 391 l 1,22,-1
 411 391 l 1,23,-1
 411 310 l 1,24,-1
 170 310 l 1,25,-1
 170 80 l 1,26,27
 220 75 220 75 295 75 c 0,28,29
 441 75 441 75 507 179 c 0,30,31
 555 256 555 256 555 373 c 0,17,18
EndSplineSet
EndChar

StartChar: multiply
Encoding: 215 215 153
Width: 627
VWidth: 1504
Flags: W
LayerCount: 2
Fore
SplineSet
587 51 m 1,0,-1
 526 -8 l 1,1,-1
 313 215 l 1,2,3
 260 162 260 162 206 103.5 c 128,-1,4
 152 45 152 45 101 -8 c 1,5,-1
 41 51 l 1,6,-1
 254 274 l 1,7,8
 201 330 201 330 147 387.5 c 128,-1,9
 93 445 93 445 41 501 c 1,10,-1
 101 560 l 1,11,-1
 314 337 l 1,12,13
 365 391 365 391 421 449 c 128,-1,14
 477 507 477 507 526 560 c 1,15,-1
 587 501 l 1,16,-1
 372 275 l 1,17,-1
 587 51 l 1,0,-1
EndSplineSet
EndChar

StartChar: Oslash
Encoding: 216 216 154
Width: 779
VWidth: 1504
Flags: W
LayerCount: 2
Fore
SplineSet
740 356 m 256,0,1
 740 198 740 198 642.5 91.5 c 128,-1,2
 545 -15 545 -15 390 -15 c 0,3,4
 319 -15 319 -15 260 6 c 1,5,-1
 236 -42 l 1,6,-1
 140 -42 l 1,7,-1
 185 47 l 1,8,9
 159 67 159 67 137 92 c 0,10,11
 39 199 39 199 39 356 c 256,12,13
 39 514 39 514 137 622 c 128,-1,14
 235 730 235 730 390 730 c 0,15,16
 464 730 464 730 523 705 c 1,17,-1
 542 740 l 1,18,-1
 638 740 l 1,19,-1
 597 662 l 1,20,21
 621 644 621 644 642 621 c 0,22,23
 740 514 740 514 740 356 c 256,0,1
486 630 m 1,24,25
 442 648 442 648 390 648 c 0,26,27
 274 648 274 648 203 564.5 c 128,-1,28
 132 481 132 481 132 358 c 256,29,30
 132 235 132 235 203 150 c 0,31,32
 214 136 214 136 226 126 c 1,33,-1
 486 630 l 1,24,25
647 358 m 256,34,35
 647 481 647 481 576 564 c 0,36,37
 567 575 567 575 558 584 c 1,38,-1
 299 83 l 1,39,40
 340 68 340 68 390 68 c 0,41,42
 506 68 506 68 576.5 151.5 c 128,-1,43
 647 235 647 235 647 358 c 256,34,35
EndSplineSet
EndChar

StartChar: Thorn
Encoding: 222 222 160
Width: 592
VWidth: 1504
Flags: W
LayerCount: 2
Fore
SplineSet
537 375 m 256,0,1
 537 259 537 259 460.5 198 c 128,-1,2
 384 137 384 137 247 137 c 0,3,4
 199 137 199 137 168 143 c 1,5,-1
 168 0 l 1,6,-1
 80 0 l 1,7,-1
 80 716 l 1,8,-1
 168 716 l 1,9,-1
 168 606 l 1,10,11
 198 612 198 612 247 612 c 0,12,13
 384 612 384 612 460.5 551.5 c 128,-1,14
 537 491 537 491 537 375 c 256,0,1
450 375 m 256,15,16
 450 534 450 534 250 534 c 0,17,18
 203 534 203 534 168 522 c 1,19,-1
 168 227 l 1,20,21
 203 215 203 215 250 215 c 0,22,23
 450 216 450 216 450 375 c 256,15,16
EndSplineSet
EndChar

StartChar: germandbls
Encoding: 223 223 161
Width: 639
VWidth: 1504
Flags: W
LayerCount: 2
Fore
SplineSet
566 164 m 0,0,1
 566 81 566 81 514 33.5 c 128,-1,2
 462 -14 462 -14 375 -14 c 0,3,4
 336 -14 336 -14 300.5 -4 c 128,-1,5
 265 6 265 6 230 24 c 1,6,-1
 260 105 l 1,7,8
 328 69 328 69 376 69 c 256,9,10
 424 69 424 69 451 94 c 128,-1,11
 478 119 478 119 478 155 c 0,12,13
 478 188 478 188 455.5 213.5 c 128,-1,14
 433 239 433 239 405.5 264 c 128,-1,15
 378 289 378 289 355 316 c 128,-1,16
 332 343 332 343 332 379 c 0,17,18
 332 399 332 399 347.5 422 c 128,-1,19
 363 445 363 445 381.5 468.5 c 128,-1,20
 400 492 400 492 415 513.5 c 128,-1,21
 430 535 430 535 430 554 c 0,22,23
 430 655 430 655 322 654 c 0,24,25
 196 654 196 654 196 423 c 2,26,-1
 196 -60 l 2,27,28
 196 -99 196 -99 186 -138 c 128,-1,29
 176 -177 176 -177 155 -215 c 1,30,-1
 69 -193 l 1,31,32
 89 -155 89 -155 97 -122.5 c 128,-1,33
 105 -90 105 -90 105 -60 c 2,34,-1
 105 447 l 2,35,36
 105 740 105 740 332 740 c 0,37,38
 413 740 413 740 465 691 c 128,-1,39
 517 642 517 642 517 557 c 0,40,41
 517 522 517 522 502 494 c 128,-1,42
 487 466 487 466 470 443.5 c 128,-1,43
 453 421 453 421 438 404.5 c 128,-1,44
 423 388 423 388 423 375 c 0,45,46
 423 360 423 360 445.5 339.5 c 128,-1,47
 468 319 468 319 494 292 c 128,-1,48
 520 265 520 265 543 233.5 c 128,-1,49
 566 202 566 202 566 164 c 0,0,1
EndSplineSet
EndChar

StartChar: ae
Encoding: 230 230 168
Width: 934
VWidth: 1504
Flags: W
LayerCount: 2
Fore
SplineSet
872 27 m 1,0,1
 770 -14 770 -14 662 -14 c 0,2,3
 515 -14 515 -14 436 92 c 1,4,5
 380 -13 380 -13 221 -14 c 0,6,7
 183 -14 183 -14 150 -3 c 128,-1,8
 117 8 117 8 92.5 27.5 c 128,-1,9
 68 47 68 47 53.5 75.5 c 128,-1,10
 39 104 39 104 39 140 c 0,11,12
 39 336 39 336 382 338 c 1,13,14
 379 389 379 389 347.5 421.5 c 128,-1,15
 316 454 316 454 259 454 c 0,16,17
 211 454 211 454 81 415 c 1,18,-1
 69 501 l 1,19,20
 174 533 174 533 265 532 c 0,21,22
 333 532 333 532 377 512 c 128,-1,23
 421 492 421 492 447 441 c 1,24,25
 519 533 519 533 656 532 c 0,26,27
 888 532 888 532 895 241 c 1,28,-1
 475 241 l 1,29,30
 483 158 483 158 535 114.5 c 128,-1,31
 587 71 587 71 668 71 c 0,32,33
 755 71 755 71 865 110 c 1,34,-1
 872 27 l 1,0,1
382 256 m 1,35,36
 254 254 254 254 196 228 c 128,-1,37
 138 202 138 202 138 149 c 0,38,39
 138 110 138 110 163 89.5 c 128,-1,40
 188 69 188 69 224 69 c 0,41,42
 296 69 296 69 339 109.5 c 128,-1,43
 382 150 382 150 382 223 c 2,44,-1
 382 256 l 1,35,36
802 320 m 1,45,46
 791 376 791 376 752 415 c 128,-1,47
 713 454 713 454 650 454 c 0,48,49
 584 454 584 454 541 419 c 128,-1,50
 498 384 498 384 484 320 c 1,51,-1
 802 320 l 1,45,46
EndSplineSet
EndChar

StartChar: eth
Encoding: 240 240 178
Width: 568
VWidth: 1504
Flags: W
LayerCount: 2
Fore
SplineSet
513 245 m 0,0,1
 513 123 513 123 444.5 49.5 c 128,-1,2
 376 -24 376 -24 271 -24 c 0,3,4
 176 -24 176 -24 115 44.5 c 128,-1,5
 54 113 54 113 54 214 c 0,6,7
 54 313 54 313 115.5 380.5 c 128,-1,8
 177 448 177 448 268 448 c 256,9,10
 358 448 358 448 402 400 c 1,11,12
 366 475 366 475 274 548 c 0,13,14
 272 550 272 550 271 549 c 2,15,-1
 119 471 l 1,16,-1
 78 537 l 1,17,-1
 199 599 l 1,18,19
 145 629 145 629 92 644 c 1,20,-1
 101 719 l 1,21,22
 206 698 206 698 289 645 c 1,23,-1
 426 716 l 1,24,-1
 459 647 l 1,25,-1
 356 594 l 1,26,27
 513 444 513 444 513 245 c 0,0,1
411 214 m 0,28,29
 411 279 411 279 371 323 c 128,-1,30
 331 367 331 367 274 367 c 0,31,32
 220 367 220 367 180.5 320.5 c 128,-1,33
 141 274 141 274 141 214 c 256,34,35
 141 154 141 154 180.5 107 c 128,-1,36
 220 60 220 60 274 60 c 0,37,38
 331 60 331 60 371 105.5 c 128,-1,39
 411 151 411 151 411 214 c 0,28,29
EndSplineSet
EndChar

StartChar: divide
Encoding: 247 247 185
Width: 627
VWidth: 1504
Flags: W
LayerCount: 2
Fore
SplineSet
588 236 m 1,0,-1
 39 236 l 1,1,-1
 39 317 l 1,2,-1
 588 317 l 1,3,-1
 588 236 l 1,0,-1
387 84 m 256,4,5
 387 54 387 54 365.5 33 c 128,-1,6
 344 12 344 12 316 12 c 256,7,8
 287 12 287 12 266 33 c 128,-1,9
 245 54 245 54 245 84 c 256,10,11
 245 114 245 114 266 135 c 128,-1,12
 287 156 287 156 316 156 c 256,13,14
 345 156 345 156 366 135 c 128,-1,15
 387 114 387 114 387 84 c 256,4,5
387 471 m 256,16,17
 387 441 387 441 365.5 420 c 128,-1,18
 344 399 344 399 316 399 c 256,19,20
 287 399 287 399 266 420 c 128,-1,21
 245 441 245 441 245 471 c 256,22,23
 245 501 245 501 266 522 c 128,-1,24
 287 543 287 543 316 543 c 256,25,26
 345 543 345 543 366 522 c 128,-1,27
 387 501 387 501 387 471 c 256,16,17
EndSplineSet
EndChar

StartChar: oslash
Encoding: 248 248 186
Width: 619
VWidth: 1504
Flags: W
LayerCount: 2
Fore
SplineSet
581 259 m 256,0,1
 581 145 581 145 504 66.5 c 128,-1,2
 427 -12 427 -12 310 -12 c 0,3,4
 260 -12 260 -12 218 2 c 1,5,-1
 196 -42 l 1,6,-1
 99 -42 l 1,7,-1
 143 42 l 1,8,9
 128 53 128 53 116 66 c 0,10,11
 39 144 39 144 39 259 c 256,12,13
 39 373 39 373 116 452 c 128,-1,14
 193 531 193 531 310 531 c 0,15,16
 352 531 352 531 390 520 c 1,17,-1
 415 569 l 1,18,-1
 511 569 l 1,19,-1
 468 483 l 1,20,21
 486 469 486 469 504 451 c 0,22,23
 581 373 581 373 581 259 c 256,0,1
487 259 m 256,24,25
 487 340 487 340 438 394 c 0,26,27
 432 400 432 400 427 405 c 1,28,-1
 256 75 l 1,29,30
 282 67 282 67 310 68 c 0,31,32
 388 68 388 68 437.5 123 c 128,-1,33
 487 178 487 178 487 259 c 256,24,25
350 445 m 1,34,35
 330 450 330 450 310 450 c 0,36,37
 232 450 232 450 182 395 c 128,-1,38
 132 340 132 340 132 259 c 256,39,40
 132 178 132 178 182 122 c 1,41,-1
 184 120 l 1,42,-1
 350 445 l 1,34,35
EndSplineSet
EndChar

StartChar: thorn
Encoding: 254 254 192
Width: 658
VWidth: 1504
Flags: W
LayerCount: 2
Fore
SplineSet
605 269 m 0,0,1
 605 143 605 143 530.5 64.5 c 128,-1,2
 456 -14 456 -14 338 -14 c 0,3,4
 237 -14 237 -14 171 48 c 1,5,-1
 171 -202 l 1,6,-1
 83 -202 l 1,7,-1
 83 716 l 1,8,-1
 171 716 l 1,9,-1
 171 462 l 1,10,11
 246 533 246 533 353 532 c 0,12,13
 463 532 463 532 534 457.5 c 128,-1,14
 605 383 605 383 605 269 c 0,0,1
517 268 m 0,15,16
 517 349 517 349 469 401.5 c 128,-1,17
 421 454 421 454 344 454 c 0,18,19
 273 454 273 454 222 410 c 128,-1,20
 171 366 171 366 171 295 c 2,21,-1
 171 209 l 2,22,23
 171 152 171 152 223 110.5 c 128,-1,24
 275 69 275 69 343 69 c 0,25,26
 421 69 421 69 469 122 c 128,-1,27
 517 175 517 175 517 268 c 0,15,16
EndSplineSet
EndChar

StartChar: dotlessi
Encoding: 305 305 194
Width: 245
VWidth: 1504
Flags: W
LayerCount: 2
Fore
SplineSet
170 0 m 1,0,-1
 75 0 l 1,1,-1
 75 511 l 1,2,-1
 170 511 l 1,3,-1
 170 0 l 1,0,-1
EndSplineSet
EndChar

StartChar: Lslash
Encoding: 321 321 195
Width: 540
VWidth: 1504
Flags: W
LayerCount: 2
Fore
SplineSet
520 0 m 1,0,-1
 75 0 l 1,1,-1
 75 224 l 1,2,-1
 32 214 l 1,3,-1
 32 307 l 1,4,-1
 75 317 l 1,5,-1
 75 716 l 1,6,-1
 170 716 l 1,7,-1
 170 340 l 1,8,-1
 508 420 l 1,9,-1
 508 326 l 1,10,-1
 170 247 l 1,11,-1
 170 81 l 1,12,-1
 520 81 l 1,13,-1
 520 0 l 1,0,-1
EndSplineSet
EndChar

StartChar: lslash
Encoding: 322 322 196
Width: 326
VWidth: 1504
Flags: W
LayerCount: 2
Fore
SplineSet
311 74 m 1,0,-1
 301 -12 l 1,1,2
 77 0 77 0 77 263 c 2,3,-1
 77 355 l 1,4,-1
 12 337 l 1,5,-1
 12 418 l 1,6,-1
 77 436 l 1,7,-1
 77 758 l 1,8,-1
 171 758 l 1,9,-1
 171 465 l 1,10,-1
 311 507 l 1,11,-1
 311 426 l 1,12,-1
 171 384 l 1,13,-1
 171 284 l 2,14,15
 171 168 171 168 208 120 c 0,16,17
 239 80 239 80 311 74 c 1,0,-1
EndSplineSet
EndChar

StartChar: OE
Encoding: 338 338 197
Width: 1087
VWidth: 1504
Flags: W
LayerCount: 2
Fore
SplineSet
1050 0 m 1,0,-1
 624 0 l 1,1,-1
 624 41 l 1,2,3
 534 -15 534 -15 420 -15 c 0,4,5
 253 -15 253 -15 146 92 c 128,-1,6
 39 199 39 199 39 358 c 0,7,8
 39 516 39 516 146 623.5 c 128,-1,9
 253 731 253 731 420 731 c 0,10,11
 534 731 534 731 624 674 c 1,12,-1
 624 716 l 1,13,-1
 1050 716 l 1,14,-1
 1050 635 l 1,15,-1
 719 635 l 1,16,-1
 719 418 l 1,17,-1
 1014 418 l 1,18,-1
 1014 337 l 1,19,-1
 719 337 l 1,20,-1
 719 81 l 1,21,-1
 1050 81 l 1,22,-1
 1050 0 l 1,0,-1
624 156 m 1,23,-1
 624 555 l 1,24,25
 547 648 547 648 420 648 c 0,26,27
 306 648 306 648 220 560 c 128,-1,28
 134 472 134 472 134 358 c 0,29,30
 134 241 134 241 219 153.5 c 128,-1,31
 304 66 304 66 420 66 c 0,32,33
 547 66 547 66 624 156 c 1,23,-1
EndSplineSet
EndChar

StartChar: oe
Encoding: 339 339 198
Width: 1036
VWidth: 1504
Flags: W
LayerCount: 2
Fore
SplineSet
966 110 m 1,0,-1
 976 27 l 1,1,2
 866 -14 866 -14 767 -14 c 0,3,4
 615 -14 615 -14 531 98 c 1,5,6
 451 -12 451 -12 310 -12 c 0,7,8
 193 -12 193 -12 116 66 c 128,-1,9
 39 144 39 144 39 259 c 256,10,11
 39 373 39 373 116 452 c 128,-1,12
 193 531 193 531 310 531 c 0,13,14
 456 531 456 531 532 415 c 1,15,16
 622 531 622 531 761 531 c 0,17,18
 993 531 993 531 997 241 c 1,19,-1
 581 241 l 1,20,21
 587 161 587 161 638.5 116 c 128,-1,22
 690 71 690 71 773 71 c 256,23,24
 856 71 856 71 966 110 c 1,0,-1
487 259 m 256,25,26
 487 340 487 340 437.5 395 c 128,-1,27
 388 450 388 450 310 450 c 256,28,29
 232 450 232 450 182 395 c 128,-1,30
 132 340 132 340 132 259 c 256,31,32
 132 178 132 178 182 123 c 128,-1,33
 232 68 232 68 310 68 c 256,34,35
 388 68 388 68 437.5 123 c 128,-1,36
 487 178 487 178 487 259 c 256,25,26
587 320 m 1,37,-1
 904 320 l 1,38,39
 896 380 896 380 855 416.5 c 128,-1,40
 814 453 814 453 752 453 c 0,41,42
 692 453 692 453 645 416 c 128,-1,43
 598 379 598 379 587 320 c 1,37,-1
EndSplineSet
EndChar

StartChar: florin
Encoding: 402 402 204
Width: 607
VWidth: 1504
Flags: W
LayerCount: 2
Fore
SplineSet
492 382 m 1,0,-1
 350 382 l 1,1,-1
 298 140 l 2,2,3
 245 -104 245 -104 57 -104 c 0,4,5
 -2 -104 -2 -104 -41 -66 c 1,6,-1
 -2 0 l 1,7,8
 34 -21 34 -21 72 -21 c 0,9,10
 170 -21 170 -21 208 147 c 2,11,-1
 259 382 l 1,12,-1
 177 382 l 1,13,-1
 193 460 l 1,14,-1
 277 460 l 1,15,-1
 281 484 l 1,16,17
 311 601 311 601 371.5 664.5 c 128,-1,18
 432 728 432 728 522 728 c 0,19,20
 581 728 581 728 620 690 c 1,21,-1
 581 624 l 1,22,23
 545 645 545 645 507 645 c 0,24,25
 408 645 408 645 372 477 c 1,26,-1
 367 460 l 1,27,-1
 507 460 l 1,28,-1
 492 382 l 1,0,-1
EndSplineSet
EndChar

StartChar: circumflex
Encoding: 710 710 205
Width: 327
VWidth: 1504
Flags: W
LayerCount: 2
Fore
SplineSet
307 579 m 1,0,-1
 226 579 l 1,1,-1
 164 686 l 1,2,-1
 104 579 l 1,3,-1
 21 579 l 1,4,-1
 138 752 l 1,5,-1
 191 752 l 1,6,-1
 307 579 l 1,0,-1
EndSplineSet
EndChar

StartChar: caron
Encoding: 711 711 206
Width: 463
VWidth: 1504
Flags: W
LayerCount: 2
Fore
SplineSet
257 579 m 1,0,-1
 205 579 l 1,1,-1
 89 752 l 1,2,-1
 170 752 l 1,3,-1
 232 645 l 1,4,-1
 292 752 l 1,5,-1
 375 752 l 1,6,-1
 257 579 l 1,0,-1
EndSplineSet
EndChar

StartChar: breve
Encoding: 728 728 207
Width: 514
VWidth: 1504
Flags: W
LayerCount: 2
Fore
SplineSet
435 739 m 1,0,1
 420 653 420 653 374.5 611.5 c 128,-1,2
 329 570 329 570 257 570 c 256,3,4
 185 570 185 570 140 611.5 c 128,-1,5
 95 653 95 653 80 739 c 1,6,-1
 161 739 l 1,7,8
 169 701 169 701 192 671.5 c 128,-1,9
 215 642 215 642 257 642 c 256,10,11
 299 642 299 642 323 671.5 c 128,-1,12
 347 701 347 701 355 739 c 1,13,-1
 435 739 l 1,0,1
EndSplineSet
EndChar

StartChar: dotaccent
Encoding: 729 729 208
Width: 290
VWidth: 1504
Flags: W
LayerCount: 2
Fore
SplineSet
211 820 m 0,0,1
 211 791 211 791 191 772.5 c 128,-1,2
 171 754 171 754 146 754 c 256,3,4
 120 754 120 754 100 772.5 c 128,-1,5
 80 791 80 791 80 820 c 0,6,7
 80 847 80 847 100 866.5 c 128,-1,8
 120 886 120 886 146 886 c 256,9,10
 172 886 172 886 191.5 866.5 c 128,-1,11
 211 847 211 847 211 820 c 0,0,1
EndSplineSet
EndChar

StartChar: ring
Encoding: 730 730 209
Width: 400
VWidth: 1504
Flags: W
LayerCount: 2
Fore
SplineSet
320 698 m 256,0,1
 320 648 320 648 285 613 c 128,-1,2
 250 578 250 578 200 578 c 256,3,4
 150 578 150 578 115 613 c 128,-1,5
 80 648 80 648 80 698 c 256,6,7
 80 748 80 748 115 783 c 128,-1,8
 150 818 150 818 200 818 c 256,9,10
 250 818 250 818 285 783 c 128,-1,11
 320 748 320 748 320 698 c 256,0,1
257 698 m 256,12,13
 257 722 257 722 240.5 738.5 c 128,-1,14
 224 755 224 755 200 755 c 256,15,16
 176 755 176 755 158.5 738.5 c 128,-1,17
 141 722 141 722 141 698 c 256,18,19
 141 674 141 674 158.5 656.5 c 128,-1,20
 176 639 176 639 200 639 c 256,21,22
 224 639 224 639 240.5 656.5 c 128,-1,23
 257 674 257 674 257 698 c 256,12,13
EndSplineSet
EndChar

StartChar: ogonek
Encoding: 731 731 210
Width: 383
VWidth: 1504
Flags: W
LayerCount: 2
Fore
SplineSet
304 -205 m 1,0,1
 242 -231 242 -231 194 -230 c 0,2,3
 135 -230 135 -230 107.5 -195.5 c 128,-1,4
 80 -161 80 -161 80 -114 c 0,5,6
 80 -85 80 -85 88 -49.5 c 128,-1,7
 96 -14 96 -14 108 29 c 1,8,-1
 197 29 l 1,9,10
 165 -51 165 -51 165 -93 c 0,11,12
 165 -141 165 -141 208 -146 c 1,13,14
 225 -146 225 -146 251 -137.5 c 128,-1,15
 277 -129 277 -129 304 -117 c 1,16,-1
 304 -205 l 1,0,1
EndSplineSet
EndChar

StartChar: tilde
Encoding: 732 732 211
Width: 389
VWidth: 1504
Flags: W
LayerCount: 2
Fore
SplineSet
343 666 m 1,0,1
 341 613 341 613 319.5 582.5 c 128,-1,2
 298 552 298 552 254 552 c 0,3,4
 242 552 242 552 225 559 c 128,-1,5
 208 566 208 566 189 574 c 128,-1,6
 170 582 170 582 153.5 589 c 128,-1,7
 137 596 137 596 126 596 c 0,8,9
 114 596 114 596 111 584.5 c 128,-1,10
 108 573 108 573 108 560 c 1,11,-1
 42 560 l 1,12,13
 42 605 42 605 64 635.5 c 128,-1,14
 86 666 86 666 126 666 c 0,15,16
 140 666 140 666 157 660 c 128,-1,17
 174 654 174 654 191 646 c 128,-1,18
 208 638 208 638 223.5 632 c 128,-1,19
 239 626 239 626 250 626 c 0,20,21
 279 626 279 626 278 666 c 1,22,-1
 343 666 l 1,0,1
EndSplineSet
EndChar

StartChar: hungarumlaut
Encoding: 733 733 212
Width: 540
VWidth: 1504
Flags: W
LayerCount: 2
Fore
SplineSet
332 481 m 1,0,-1
 269 481 l 1,1,-1
 364 739 l 1,2,-1
 460 739 l 1,3,-1
 332 481 l 1,0,-1
143 481 m 1,4,-1
 80 481 l 1,5,-1
 174 739 l 1,6,-1
 269 739 l 1,7,-1
 143 481 l 1,4,-1
EndSplineSet
EndChar

StartChar: uni0E01
Encoding: 3585 3585 214
Width: 588
VWidth: 1504
Flags: W
LayerCount: 2
Fore
SplineSet
511 0 m 1,0,-1
 418 0 l 1,1,-1
 418 399 l 2,2,3
 418 461 418 461 380.5 496.5 c 128,-1,4
 343 532 343 532 281 532 c 0,5,6
 191 532 191 532 144 456 c 1,7,8
 215 442 215 442 245 388 c 1,9,10
 168 343 168 343 168 280 c 2,11,-1
 168 0 l 1,12,-1
 75 0 l 1,13,-1
 75 286 l 2,14,15
 75 349 75 349 137 385 c 1,16,17
 99 411 99 411 45 403 c 1,18,19
 48 496 48 496 117 557 c 0,20,21
 180 613 180 613 278 612 c 0,22,23
 386 612 386 612 448.5 554 c 128,-1,24
 511 496 511 496 511 397 c 2,25,-1
 511 0 l 1,0,-1
EndSplineSet
EndChar

StartChar: uni0E02
Encoding: 3586 3586 215
Width: 624
VWidth: 1504
Flags: W
LayerCount: 2
Fore
SplineSet
548 141 m 2,0,1
 548 67 548 67 502 27.5 c 128,-1,2
 456 -12 456 -12 381 -12 c 256,3,4
 306 -12 306 -12 260 28 c 128,-1,5
 214 68 214 68 214 141 c 2,6,-1
 214 239 l 2,7,8
 214 283 214 283 253.5 356 c 128,-1,9
 293 429 293 429 293 471 c 0,10,11
 293 506 293 506 269 528.5 c 128,-1,12
 245 551 245 551 214 551 c 0,13,14
 166 551 166 551 149 531 c 1,15,16
 194 529 194 529 222 502 c 128,-1,17
 250 475 250 475 250 433 c 0,18,19
 250 388 250 388 218.5 357 c 128,-1,20
 187 326 187 326 143 326 c 0,21,22
 92 326 92 326 61 363 c 128,-1,23
 30 400 30 400 30 453 c 0,24,25
 30 522 30 522 85 567 c 128,-1,26
 140 612 140 612 212 612 c 0,27,28
 287 612 287 612 334.5 576 c 128,-1,29
 382 540 382 540 382 471 c 0,30,31
 382 426 382 426 344.5 344.5 c 128,-1,32
 307 263 307 263 307 230 c 2,33,-1
 307 120 l 2,34,35
 307 94 307 94 330 81 c 128,-1,36
 353 68 353 68 381 68 c 0,37,38
 410 68 410 68 432 82 c 128,-1,39
 454 96 454 96 454 120 c 2,40,-1
 454 600 l 1,41,-1
 548 600 l 1,42,-1
 548 141 l 2,0,1
190 430 m 256,43,44
 190 450 190 450 176 463.5 c 128,-1,45
 162 477 162 477 143 477 c 256,46,47
 123 477 123 477 109.5 463.5 c 128,-1,48
 96 450 96 450 96 430 c 256,49,50
 96 410 96 410 109.5 397 c 128,-1,51
 123 384 123 384 143 384 c 256,52,53
 163 384 163 384 176.5 397 c 128,-1,54
 190 410 190 410 190 430 c 256,43,44
EndSplineSet
EndChar

StartChar: uni0E03
Encoding: 3587 3587 216
Width: 648
VWidth: 1504
Flags: W
LayerCount: 2
Fore
SplineSet
572 141 m 2,0,1
 572 67 572 67 526 27.5 c 128,-1,2
 480 -12 480 -12 405 -12 c 256,3,4
 330 -12 330 -12 284 28 c 128,-1,5
 238 68 238 68 238 141 c 2,6,-1
 238 209 l 2,7,8
 238 257 238 257 288 336 c 128,-1,9
 338 415 338 415 338 460 c 1,10,11
 330 517 330 517 290 540 c 1,12,-1
 235 483 l 1,13,-1
 168 543 l 1,14,15
 153 534 153 534 136 510.5 c 128,-1,16
 119 487 119 487 117 469 c 1,17,18
 140 474 140 474 149 474 c 0,19,20
 194 474 194 474 225.5 442.5 c 128,-1,21
 257 411 257 411 257 366 c 256,22,23
 257 321 257 321 226.5 289 c 128,-1,24
 196 257 196 257 149 257 c 0,25,26
 96 257 96 257 63 300.5 c 128,-1,27
 30 344 30 344 30 396 c 0,28,29
 30 476 30 476 73 541 c 128,-1,30
 116 606 116 606 184 612 c 1,31,-1
 233 561 l 1,32,-1
 280 614 l 1,33,34
 415 584 415 584 415 454 c 0,35,36
 415 407 415 407 373 335 c 128,-1,37
 331 263 331 263 331 221 c 2,38,-1
 331 120 l 2,39,40
 331 94 331 94 354.5 81 c 128,-1,41
 378 68 378 68 405 68 c 0,42,43
 434 68 434 68 456 82 c 128,-1,44
 478 96 478 96 478 120 c 2,45,-1
 478 600 l 1,46,-1
 572 600 l 1,47,-1
 572 141 l 2,0,1
196 366 m 256,48,49
 196 386 196 386 182 399 c 128,-1,50
 168 412 168 412 149 412 c 256,51,52
 129 412 129 412 115.5 398.5 c 128,-1,53
 102 385 102 385 102 366 c 256,54,55
 102 346 102 346 115.5 332.5 c 128,-1,56
 129 319 129 319 149 319 c 256,57,58
 169 319 169 319 182.5 332.5 c 128,-1,59
 196 346 196 346 196 366 c 256,48,49
EndSplineSet
EndChar

StartChar: uni0E04
Encoding: 3588 3588 217
Width: 606
VWidth: 1504
Flags: W
LayerCount: 2
Fore
SplineSet
529 0 m 1,0,-1
 436 0 l 1,1,-1
 436 411 l 2,2,3
 436 465 436 465 390 501 c 1,4,5
 346 533 346 533 289 532 c 0,6,7
 221 532 221 532 180.5 486.5 c 128,-1,8
 140 441 140 441 140 381 c 0,9,10
 140 364 140 364 146.5 325.5 c 128,-1,11
 153 287 153 287 153 259 c 2,12,-1
 153 217 l 2,13,14
 153 219 153 219 158.5 249.5 c 128,-1,15
 164 280 164 280 165 296 c 1,16,17
 180 359 180 359 212 402 c 0,18,19
 251 456 251 456 302 456 c 0,20,21
 343 456 343 456 373 427.5 c 128,-1,22
 403 399 403 399 403 358 c 0,23,24
 403 319 403 319 373 289.5 c 128,-1,25
 343 260 343 260 302 260 c 0,26,27
 264 260 264 260 235 287 c 1,28,29
 190 150 190 150 190 0 c 1,30,-1
 96 0 l 1,31,-1
 96 96 l 2,32,33
 96 167 96 167 71.5 250.5 c 128,-1,34
 47 334 47 334 47 382 c 0,35,36
 47 486 47 486 122 551 c 0,37,38
 193 613 193 613 296 612 c 0,39,40
 391 612 391 612 456 563 c 0,41,42
 530 506 530 506 529 408 c 2,43,-1
 529 0 l 1,0,-1
347 358 m 256,44,45
 347 378 347 378 333.5 391.5 c 128,-1,46
 320 405 320 405 301 405 c 256,47,48
 281 405 281 405 268.5 391.5 c 128,-1,49
 256 378 256 378 256 358 c 256,50,51
 256 338 256 338 268.5 325.5 c 128,-1,52
 281 313 281 313 301 313 c 256,53,54
 321 313 321 313 334 325.5 c 128,-1,55
 347 338 347 338 347 358 c 256,44,45
EndSplineSet
EndChar

StartChar: uni0E05
Encoding: 3589 3589 218
Width: 606
VWidth: 1504
Flags: W
LayerCount: 2
Fore
SplineSet
529 0 m 1,0,-1
 436 0 l 1,1,-1
 436 411 l 2,2,3
 436 503 436 503 396 531 c 1,4,-1
 302 472 l 1,5,-1
 199 531 l 1,6,7
 140 490 140 490 140 394 c 0,8,9
 140 365 140 365 148 313.5 c 128,-1,10
 156 262 156 262 158 212 c 1,11,-1
 158 199 l 2,12,13
 158 202 158 202 161.5 222 c 128,-1,14
 165 242 165 242 168 265 c 0,15,16
 179 328 179 328 209 370 c 0,17,18
 247 424 247 424 302 424 c 0,19,20
 343 424 343 424 372.5 395.5 c 128,-1,21
 402 367 402 367 402 326 c 256,22,23
 402 285 402 285 372.5 257 c 128,-1,24
 343 229 343 229 302 229 c 0,25,26
 264 229 264 229 235 254 c 1,27,28
 190 120 190 120 190 0 c 1,29,-1
 96 0 l 1,30,-1
 96 96 l 2,31,32
 96 170 96 170 71.5 258 c 128,-1,33
 47 346 47 346 47 390 c 0,34,35
 47 470 47 470 86.5 530.5 c 128,-1,36
 126 591 126 591 202 617 c 1,37,-1
 302 558 l 1,38,-1
 409 617 l 1,39,40
 529 567 529 567 529 435 c 2,41,-1
 529 0 l 1,0,-1
347 325 m 256,42,43
 347 345 347 345 333.5 358.5 c 128,-1,44
 320 372 320 372 301 372 c 256,45,46
 281 372 281 372 268.5 358 c 128,-1,47
 256 344 256 344 256 325 c 256,48,49
 256 305 256 305 268.5 292.5 c 128,-1,50
 281 280 281 280 301 280 c 256,51,52
 321 280 321 280 334 292.5 c 128,-1,53
 347 305 347 305 347 325 c 256,42,43
EndSplineSet
EndChar

StartChar: uni0E06
Encoding: 3590 3590 219
Width: 681
VWidth: 1504
Flags: W
LayerCount: 2
Fore
SplineSet
605 0 m 1,0,-1
 519 0 l 1,1,2
 430 92 430 92 353 117 c 1,3,-1
 353 102 l 2,4,5
 353 54 353 54 317 21 c 128,-1,6
 281 -12 281 -12 232 -12 c 256,7,8
 182 -12 182 -12 146.5 23.5 c 128,-1,9
 111 59 111 59 111 110 c 0,10,11
 111 160 111 160 146.5 195 c 128,-1,12
 182 230 182 230 232 230 c 0,13,14
 243 230 243 230 250 229 c 1,15,16
 250 271 250 271 296 343 c 0,17,18
 340 411 340 411 340 456 c 0,19,20
 340 515 340 515 292 542 c 1,21,-1
 239 484 l 1,22,-1
 174 543 l 1,23,24
 157 535 157 535 141 511 c 128,-1,25
 125 487 125 487 122 468 c 1,26,27
 134 473 134 473 153 472 c 0,28,29
 198 472 198 472 230.5 440.5 c 128,-1,30
 263 409 263 409 263 366 c 0,31,32
 263 321 263 321 231 289 c 128,-1,33
 199 257 199 257 153 257 c 0,34,35
 100 257 100 257 68 296 c 128,-1,36
 36 335 36 335 36 400 c 0,37,38
 36 478 36 478 79.5 543.5 c 128,-1,39
 123 609 123 609 187 612 c 1,40,-1
 236 561 l 1,41,-1
 284 614 l 1,42,43
 419 581 419 581 420 463 c 0,44,45
 420 410 420 410 377.5 336 c 128,-1,46
 335 262 335 262 335 221 c 2,47,-1
 335 199 l 1,48,49
 424 167 424 167 511 99 c 1,50,-1
 511 600 l 1,51,-1
 605 600 l 1,52,-1
 605 0 l 1,0,-1
281 108 m 0,53,54
 281 129 281 129 267 143.5 c 128,-1,55
 253 158 253 158 232 158 c 0,56,57
 212 158 212 158 197 143.5 c 128,-1,58
 182 129 182 129 182 108 c 0,59,60
 182 88 182 88 197 73.5 c 128,-1,61
 212 59 212 59 232 59 c 0,62,63
 253 59 253 59 267 73.5 c 128,-1,64
 281 88 281 88 281 108 c 0,53,54
202 366 m 256,65,66
 202 386 202 386 188 399 c 128,-1,67
 174 412 174 412 155 412 c 256,68,69
 135 412 135 412 121.5 398.5 c 128,-1,70
 108 385 108 385 108 366 c 256,71,72
 108 346 108 346 121.5 332.5 c 128,-1,73
 135 319 135 319 155 319 c 256,74,75
 175 319 175 319 188.5 332.5 c 128,-1,76
 202 346 202 346 202 366 c 256,65,66
EndSplineSet
EndChar

StartChar: uni0E07
Encoding: 3591 3591 220
Width: 478
VWidth: 1504
Flags: W
LayerCount: 2
Fore
SplineSet
402 0 m 1,0,-1
 310 0 l 1,1,-1
 29 317 l 1,2,-1
 84 382 l 1,3,-1
 308 129 l 1,4,-1
 308 388 l 1,5,6
 303 386 303 386 280 387 c 0,7,8
 233 387 233 387 200.5 417.5 c 128,-1,9
 168 448 168 448 168 496 c 256,10,11
 168 544 168 544 201.5 578 c 128,-1,12
 235 612 235 612 280 612 c 0,13,14
 333 612 333 612 367.5 578.5 c 128,-1,15
 402 545 402 545 402 490 c 2,16,-1
 402 0 l 1,0,-1
331 499 m 256,17,18
 331 520 331 520 316 535.5 c 128,-1,19
 301 551 301 551 280 551 c 256,20,21
 259 551 259 551 244 535.5 c 128,-1,22
 229 520 229 520 229 499 c 256,23,24
 229 478 229 478 244 463 c 128,-1,25
 259 448 259 448 280 448 c 256,26,27
 301 448 301 448 316 463 c 128,-1,28
 331 478 331 478 331 499 c 256,17,18
EndSplineSet
EndChar

StartChar: uni0E08
Encoding: 3592 3592 221
Width: 586
VWidth: 1504
Flags: W
LayerCount: 2
Fore
SplineSet
510 105 m 2,0,1
 510 49 510 49 474 18.5 c 128,-1,2
 438 -12 438 -12 381 -12 c 0,3,4
 271 -12 271 -12 253 86 c 2,5,-1
 230 205 l 1,6,7
 213 199 213 199 193 199 c 0,8,9
 149 199 149 199 117.5 230.5 c 128,-1,10
 86 262 86 262 86 305 c 256,11,12
 86 349 86 349 117.5 380.5 c 128,-1,13
 149 412 149 412 193 412 c 0,14,15
 232 412 232 412 262 387.5 c 128,-1,16
 292 363 292 363 299 325 c 2,17,-1
 341 95 l 2,18,19
 346 68 346 68 379 68 c 0,20,21
 417 68 417 68 417 98 c 2,22,-1
 417 436 l 2,23,24
 417 486 417 486 370 511 c 0,25,26
 331 532 331 532 274 532 c 0,27,28
 145 532 145 532 119 459 c 1,29,-1
 29 459 l 1,30,31
 49 611 49 611 266 612 c 0,32,33
 367 612 367 612 432 575 c 1,34,35
 510 527 510 527 510 430 c 2,36,-1
 510 105 l 2,0,1
239 305 m 256,37,38
 239 325 239 325 225.5 338.5 c 128,-1,39
 212 352 212 352 193 352 c 256,40,41
 173 352 173 352 159.5 338.5 c 128,-1,42
 146 325 146 325 146 305 c 256,43,44
 146 285 146 285 159.5 272 c 128,-1,45
 173 259 173 259 193 259 c 256,46,47
 213 259 213 259 226 272 c 128,-1,48
 239 285 239 285 239 305 c 256,37,38
EndSplineSet
EndChar

StartChar: uni0E09
Encoding: 3593 3593 222
Width: 609
VWidth: 1504
Flags: W
LayerCount: 2
Fore
SplineSet
558 102 m 0,0,1
 558 54 558 54 525 21 c 128,-1,2
 492 -12 492 -12 444 -12 c 0,3,4
 400 -12 400 -12 367 17.5 c 128,-1,5
 334 47 334 47 331 90 c 1,6,7
 278 70 278 70 226 0 c 1,8,-1
 140 0 l 1,9,-1
 140 117 l 2,10,11
 140 159 140 159 155 174 c 1,12,13
 140 174 140 174 134 176 c 0,14,15
 51 194 51 194 51 277 c 0,16,17
 51 321 51 321 82 351 c 128,-1,18
 113 381 113 381 156 381 c 256,19,20
 200 381 200 381 230 350.5 c 128,-1,21
 260 320 260 320 260 277 c 0,22,23
 260 256 260 256 246.5 220.5 c 128,-1,24
 233 185 233 185 233 162 c 2,25,-1
 233 99 l 1,26,27
 257 123 257 123 323.5 160 c 128,-1,28
 390 197 390 197 417 226 c 1,29,30
 440 256 440 256 439 296 c 2,31,-1
 439 435 l 2,32,33
 439 485 439 485 391 511 c 1,34,35
 350 532 350 532 292 532 c 0,36,37
 229 532 229 532 185 508 c 0,38,39
 132 479 132 479 128 424 c 1,40,-1
 38 424 l 1,41,42
 61 612 61 612 290 612 c 0,43,44
 389 612 389 612 454 573 c 0,45,46
 532 525 532 525 532 429 c 2,47,-1
 532 286 l 2,48,49
 532 229 532 229 499 202 c 1,50,51
 558 168 558 168 558 102 c 0,0,1
200 277 m 256,52,53
 200 297 200 297 187 309.5 c 128,-1,54
 174 322 174 322 155 322 c 256,55,56
 135 322 135 322 122.5 309 c 128,-1,57
 110 296 110 296 110 277 c 256,58,59
 110 257 110 257 122.5 244.5 c 128,-1,60
 135 232 135 232 155 232 c 256,61,62
 175 232 175 232 187.5 244.5 c 128,-1,63
 200 257 200 257 200 277 c 256,52,53
492 101 m 256,64,65
 492 121 492 121 478.5 134 c 128,-1,66
 465 147 465 147 445 147 c 256,67,68
 425 147 425 147 412 133.5 c 128,-1,69
 399 120 399 120 399 101 c 256,70,71
 399 81 399 81 412.5 67.5 c 128,-1,72
 426 54 426 54 445 54 c 256,73,74
 465 54 465 54 478.5 67.5 c 128,-1,75
 492 81 492 81 492 101 c 256,64,65
EndSplineSet
EndChar

StartChar: uni0E0A
Encoding: 3594 3594 223
Width: 624
VWidth: 1504
Flags: W
LayerCount: 2
Fore
SplineSet
548 141 m 2,0,1
 548 67 548 67 502 27.5 c 128,-1,2
 456 -12 456 -12 381 -12 c 256,3,4
 306 -12 306 -12 260 28 c 128,-1,5
 214 68 214 68 214 141 c 2,6,-1
 214 239 l 2,7,8
 214 283 214 283 253.5 356 c 128,-1,9
 293 429 293 429 293 471 c 0,10,11
 293 506 293 506 269 528.5 c 128,-1,12
 245 551 245 551 214 551 c 0,13,14
 166 551 166 551 149 531 c 1,15,16
 194 529 194 529 222 502 c 128,-1,17
 250 475 250 475 250 433 c 0,18,19
 250 388 250 388 218.5 357 c 128,-1,20
 187 326 187 326 143 326 c 0,21,22
 92 326 92 326 61 363 c 128,-1,23
 30 400 30 400 30 453 c 0,24,25
 30 522 30 522 85 567 c 128,-1,26
 140 612 140 612 212 612 c 0,27,28
 287 612 287 612 334.5 576 c 128,-1,29
 382 540 382 540 382 471 c 0,30,31
 382 426 382 426 344.5 344.5 c 128,-1,32
 307 263 307 263 307 230 c 2,33,-1
 307 120 l 2,34,35
 307 94 307 94 330 81 c 128,-1,36
 353 68 353 68 381 68 c 0,37,38
 410 68 410 68 432 82 c 128,-1,39
 454 96 454 96 454 120 c 2,40,-1
 454 369 l 2,41,42
 454 425 454 425 411 438 c 1,43,44
 417 465 417 465 412 490 c 1,45,46
 489 519 489 519 489 635 c 1,47,-1
 582 635 l 1,48,49
 571 519 571 519 502 465 c 1,50,51
 547 429 547 429 548 370 c 2,52,-1
 548 141 l 2,0,1
190 430 m 256,53,54
 190 450 190 450 176 463.5 c 128,-1,55
 162 477 162 477 143 477 c 256,56,57
 123 477 123 477 109.5 463.5 c 128,-1,58
 96 450 96 450 96 430 c 256,59,60
 96 410 96 410 109.5 397 c 128,-1,61
 123 384 123 384 143 384 c 256,62,63
 163 384 163 384 176.5 397 c 128,-1,64
 190 410 190 410 190 430 c 256,53,54
EndSplineSet
EndChar

StartChar: uni0E0B
Encoding: 3595 3595 224
Width: 648
VWidth: 1504
Flags: W
LayerCount: 2
Fore
SplineSet
572 141 m 2,0,1
 572 67 572 67 526 27.5 c 128,-1,2
 480 -12 480 -12 405 -12 c 256,3,4
 330 -12 330 -12 284 28 c 128,-1,5
 238 68 238 68 238 141 c 2,6,-1
 238 209 l 2,7,8
 238 257 238 257 288 336 c 128,-1,9
 338 415 338 415 338 460 c 1,10,11
 330 517 330 517 290 540 c 1,12,-1
 235 483 l 1,13,-1
 168 543 l 1,14,15
 153 534 153 534 136 510.5 c 128,-1,16
 119 487 119 487 117 469 c 1,17,18
 140 474 140 474 149 474 c 0,19,20
 194 474 194 474 225.5 442.5 c 128,-1,21
 257 411 257 411 257 366 c 256,22,23
 257 321 257 321 226.5 289 c 128,-1,24
 196 257 196 257 149 257 c 0,25,26
 96 257 96 257 63 300.5 c 128,-1,27
 30 344 30 344 30 396 c 0,28,29
 30 476 30 476 73 541 c 128,-1,30
 116 606 116 606 184 612 c 1,31,-1
 233 561 l 1,32,-1
 280 614 l 1,33,34
 415 584 415 584 415 454 c 0,35,36
 415 407 415 407 373 335 c 128,-1,37
 331 263 331 263 331 221 c 2,38,-1
 331 120 l 2,39,40
 331 94 331 94 354.5 81 c 128,-1,41
 378 68 378 68 405 68 c 0,42,43
 434 68 434 68 456 82 c 128,-1,44
 478 96 478 96 478 120 c 2,45,-1
 478 369 l 2,46,47
 478 425 478 425 435 438 c 1,48,49
 441 465 441 465 436 490 c 1,50,51
 513 519 513 519 513 635 c 1,52,-1
 606 635 l 1,53,54
 595 519 595 519 526 465 c 1,55,56
 571 429 571 429 572 370 c 2,57,-1
 572 141 l 2,0,1
196 366 m 256,58,59
 196 386 196 386 182 399 c 128,-1,60
 168 412 168 412 149 412 c 256,61,62
 129 412 129 412 115.5 398.5 c 128,-1,63
 102 385 102 385 102 366 c 256,64,65
 102 346 102 346 115.5 332.5 c 128,-1,66
 129 319 129 319 149 319 c 256,67,68
 169 319 169 319 182.5 332.5 c 128,-1,69
 196 346 196 346 196 366 c 256,58,59
EndSplineSet
EndChar

StartChar: uni0E0C
Encoding: 3596 3596 225
Width: 849
VWidth: 1504
Flags: W
LayerCount: 2
Fore
SplineSet
773 0 m 1,0,-1
 690 0 l 1,1,2
 655 74 655 74 567 117 c 1,3,4
 570 96 570 96 570 92 c 0,5,6
 570 44 570 44 536 16 c 128,-1,7
 502 -12 502 -12 459 -12 c 0,8,9
 412 -12 412 -12 378 21 c 128,-1,10
 344 54 344 54 344 102 c 0,11,12
 344 171 344 171 405 206 c 1,13,-1
 405 399 l 2,14,15
 405 458 405 458 368 494.5 c 128,-1,16
 331 531 331 531 277 531 c 0,17,18
 185 531 185 531 146 456 c 1,19,20
 215 442 215 442 245 388 c 1,21,22
 168 346 168 346 168 280 c 2,23,-1
 168 215 l 1,24,25
 216 215 216 215 249.5 182 c 128,-1,26
 283 149 283 149 283 101 c 0,27,28
 283 54 283 54 250 21 c 128,-1,29
 217 -12 217 -12 168 -12 c 0,30,31
 121 -12 121 -12 88.5 21 c 128,-1,32
 56 54 56 54 56 101 c 0,33,34
 56 140 56 140 75 165 c 1,35,-1
 75 286 l 2,36,37
 75 349 75 349 137 385 c 1,38,39
 99 411 99 411 45 403 c 1,40,41
 48 496 48 496 114 557 c 0,42,43
 176 613 176 613 272 612 c 0,44,45
 373 612 373 612 435.5 555 c 128,-1,46
 498 498 498 498 498 397 c 2,47,-1
 498 214 l 1,48,49
 617 176 617 176 680 108 c 1,50,-1
 680 600 l 1,51,-1
 773 600 l 1,52,-1
 773 0 l 1,0,-1
218 101 m 256,53,54
 218 122 218 122 203 137 c 128,-1,55
 188 152 188 152 167 152 c 256,56,57
 146 152 146 152 131 137 c 128,-1,58
 116 122 116 122 116 101 c 256,59,60
 116 80 116 80 131 65 c 128,-1,61
 146 50 146 50 167 50 c 256,62,63
 188 50 188 50 203 65 c 128,-1,64
 218 80 218 80 218 101 c 256,53,54
510 101 m 256,65,66
 510 122 510 122 495 137 c 128,-1,67
 480 152 480 152 459 152 c 256,68,69
 438 152 438 152 423 137 c 128,-1,70
 408 122 408 122 408 101 c 256,71,72
 408 80 408 80 423 65 c 128,-1,73
 438 50 438 50 459 50 c 256,74,75
 480 50 480 50 495 65 c 128,-1,76
 510 80 510 80 510 101 c 256,65,66
EndSplineSet
EndChar

StartChar: uni0E0D
Encoding: 3597 3597 226
Width: 849
VWidth: 1504
Flags: W
LayerCount: 2
Fore
SplineSet
782 -60 m 1,0,1
 782 -171 782 -171 733 -238 c 0,2,3
 677 -312 677 -312 563 -311 c 0,4,5
 489 -311 489 -311 436 -274 c 0,6,7
 376 -230 376 -230 376 -159 c 0,8,9
 376 -114 376 -114 407 -83.5 c 128,-1,10
 438 -53 438 -53 483 -53 c 0,11,12
 527 -53 527 -53 556 -84.5 c 128,-1,13
 585 -116 585 -116 585 -161 c 0,14,15
 585 -220 585 -220 539 -236 c 1,16,17
 560 -239 560 -239 567 -239 c 0,18,19
 693 -239 693 -239 701 -60 c 1,20,-1
 782 -60 l 1,0,1
773 141 m 2,21,22
 773 66 773 66 714 24 c 0,23,24
 663 -12 663 -12 587 -12 c 0,25,26
 509 -12 509 -12 460 24 c 0,27,28
 404 65 404 65 405 141 c 2,29,-1
 405 399 l 2,30,31
 405 458 405 458 368 494.5 c 128,-1,32
 331 531 331 531 277 531 c 0,33,34
 185 531 185 531 146 456 c 1,35,36
 211 444 211 444 245 388 c 1,37,38
 168 346 168 346 168 280 c 2,39,-1
 168 209 l 1,40,41
 179 215 179 215 197 215 c 0,42,43
 244 215 244 215 276 182.5 c 128,-1,44
 308 150 308 150 308 102 c 256,45,46
 308 54 308 54 275 21 c 128,-1,47
 242 -12 242 -12 194 -12 c 0,48,49
 144 -12 144 -12 109.5 22.5 c 128,-1,50
 75 57 75 57 75 110 c 2,51,-1
 75 286 l 2,52,53
 75 349 75 349 137 385 c 1,54,55
 99 411 99 411 45 403 c 1,56,57
 48 496 48 496 114 557 c 0,58,59
 176 613 176 613 272 612 c 0,60,61
 373 612 373 612 435.5 555 c 128,-1,62
 498 498 498 498 498 397 c 2,63,-1
 498 128 l 2,64,65
 498 96 498 96 525 82 c 128,-1,66
 552 68 552 68 588 68 c 0,67,68
 623 68 623 68 651.5 82 c 128,-1,69
 680 96 680 96 680 128 c 2,70,-1
 680 600 l 1,71,-1
 773 600 l 1,72,-1
 773 141 l 2,21,22
529 -158 m 256,73,74
 529 -138 529 -138 515.5 -124.5 c 128,-1,75
 502 -111 502 -111 481 -111 c 256,76,77
 460 -111 460 -111 447.5 -124.5 c 128,-1,78
 435 -138 435 -138 435 -158 c 256,79,80
 435 -178 435 -178 447.5 -192 c 128,-1,81
 460 -206 460 -206 481 -206 c 256,82,83
 502 -206 502 -206 515.5 -192 c 128,-1,84
 529 -178 529 -178 529 -158 c 256,73,74
248 101 m 256,85,86
 248 122 248 122 233 137 c 128,-1,87
 218 152 218 152 197 152 c 256,88,89
 176 152 176 152 161 137 c 128,-1,90
 146 122 146 122 146 101 c 256,91,92
 146 80 146 80 161 65 c 128,-1,93
 176 50 176 50 197 50 c 256,94,95
 218 50 218 50 233 65 c 128,-1,96
 248 80 248 80 248 101 c 256,85,86
EndSplineSet
Substitution2: "<23,16000>  in Thai lookup 63 nested-substitutions 7 subtable" uni0E0D.alt1
Substitution2: "Single Substitution lookup 56 subtable" uni0E0D.alt1
EndChar

StartChar: uni0E0E
Encoding: 3598 3598 227
Width: 639
VWidth: 1504
Flags: W
LayerCount: 2
Fore
SplineSet
563 -346 m 1,0,-1
 468 -346 l 1,1,2
 448 -266 448 -266 329 -220 c 1,3,4
 318 -352 318 -352 212 -352 c 0,5,6
 162 -352 162 -352 127 -320.5 c 128,-1,7
 92 -289 92 -289 92 -241 c 0,8,9
 92 -134 92 -134 233 -134 c 0,10,11
 254 -134 254 -134 268 -135 c 1,12,13
 276 -106 276 -106 284 -93 c 0,14,15
 299 -69 299 -69 331 -50 c 1,16,-1
 393 -83 l 1,17,18
 346 -109 346 -109 337 -150 c 1,19,20
 423 -180 423 -180 469 -226 c 1,21,-1
 469 399 l 2,22,23
 469 459 469 459 429.5 495.5 c 128,-1,24
 390 532 390 532 329 532 c 0,25,26
 237 532 237 532 196 456 c 1,27,28
 270 441 270 441 296 388 c 1,29,30
 255 365 255 365 242 350 c 0,31,32
 222 326 222 326 223 286 c 0,33,34
 223 253 223 253 230.5 190.5 c 128,-1,35
 238 128 238 128 238 102 c 0,36,37
 238 54 238 54 205.5 21 c 128,-1,38
 173 -12 173 -12 126 -12 c 0,39,40
 78 -12 78 -12 45 21 c 128,-1,41
 12 54 12 54 12 102 c 0,42,43
 12 149 12 149 45 182 c 128,-1,44
 78 215 78 215 123 215 c 0,45,46
 141 215 141 215 146 211 c 1,47,-1
 137 304 l 1,48,49
 137 357 137 357 188 385 c 1,50,51
 147 411 147 411 96 403 c 1,52,53
 98 496 98 496 165 557 c 0,54,55
 230 613 230 613 328 612 c 0,56,57
 433 612 433 612 498 553.5 c 128,-1,58
 563 495 563 495 563 397 c 2,59,-1
 563 -346 l 1,0,-1
260 -203 m 1,60,61
 246 -198 246 -198 224 -199 c 0,62,63
 162 -199 162 -199 161 -235 c 0,64,65
 159 -283 159 -283 209 -283 c 1,66,67
 238 -280 238 -280 250 -260.5 c 128,-1,68
 262 -241 262 -241 260 -203 c 1,60,61
177 102 m 256,69,70
 177 123 177 123 162 138 c 128,-1,71
 147 153 147 153 126 153 c 256,72,73
 105 153 105 153 90 138 c 128,-1,74
 75 123 75 123 75 102 c 256,75,76
 75 81 75 81 90 66 c 128,-1,77
 105 51 105 51 126 51 c 256,78,79
 147 51 147 51 162 66 c 128,-1,80
 177 81 177 81 177 102 c 256,69,70
EndSplineSet
Substitution2: "<23,16000>  in Thai lookup 73 nested-substitutions 0 subtable" uni0E0E.alt1
Substitution2: "Single Substitution lookup 56 subtable" uni0E0E.alt1
EndChar

StartChar: uni0E0F
Encoding: 3599 3599 228
Width: 639
VWidth: 1504
Flags: W
LayerCount: 2
Fore
SplineSet
190 -206 m 1,0,1
 175 -198 175 -198 147 -199 c 0,2,3
 99 -199 99 -199 99 -239 c 0,4,5
 99 -277 99 -277 138 -277 c 0,6,7
 190 -277 190 -277 190 -206 c 1,0,1
177 102 m 256,8,9
 177 123 177 123 162 138 c 128,-1,10
 147 153 147 153 126 153 c 256,11,12
 105 153 105 153 90 138 c 128,-1,13
 75 123 75 123 75 102 c 256,14,15
 75 81 75 81 90 66 c 128,-1,16
 105 51 105 51 126 51 c 256,17,18
 147 51 147 51 162 66 c 128,-1,19
 177 81 177 81 177 102 c 256,8,9
563 -347 m 1,20,-1
 478 -347 l 1,21,-1
 400 -245 l 1,22,-1
 326 -347 l 1,23,-1
 257 -253 l 1,24,25
 251 -295 251 -295 218 -324 c 128,-1,26
 185 -353 185 -353 146 -353 c 0,27,28
 96 -353 96 -353 63 -321 c 128,-1,29
 30 -289 30 -289 30 -241 c 0,30,31
 30 -130 30 -130 158 -129 c 0,32,33
 187 -129 187 -129 199 -134 c 1,34,35
 217 -78 217 -78 277 -47 c 1,36,-1
 329 -110 l 1,37,38
 273 -125 273 -125 268 -171 c 1,39,-1
 326 -244 l 1,40,-1
 399 -152 l 1,41,-1
 469 -233 l 1,42,-1
 469 399 l 2,43,44
 469 459 469 459 429.5 495.5 c 128,-1,45
 390 532 390 532 329 532 c 0,46,47
 237 532 237 532 196 456 c 1,48,49
 270 441 270 441 296 388 c 1,50,51
 255 365 255 365 242 350 c 0,52,53
 222 326 222 326 223 286 c 0,54,55
 223 253 223 253 230.5 190.5 c 128,-1,56
 238 128 238 128 238 102 c 0,57,58
 238 54 238 54 205.5 21 c 128,-1,59
 173 -12 173 -12 126 -12 c 0,60,61
 78 -12 78 -12 45 21 c 128,-1,62
 12 54 12 54 12 102 c 0,63,64
 12 149 12 149 45 182 c 128,-1,65
 78 215 78 215 123 215 c 0,66,67
 141 215 141 215 146 211 c 1,68,-1
 137 304 l 1,69,70
 137 357 137 357 188 385 c 1,71,72
 147 411 147 411 96 403 c 1,73,74
 98 496 98 496 165 557 c 0,75,76
 230 613 230 613 328 612 c 0,77,78
 433 612 433 612 498 553.5 c 128,-1,79
 563 495 563 495 563 397 c 2,80,-1
 563 -347 l 1,20,-1
EndSplineSet
Substitution2: "<23,16000>  in Thai lookup 73 nested-substitutions 0 subtable" uni0E0F.alt1
Substitution2: "Single Substitution lookup 56 subtable" uni0E0F.alt1
EndChar

StartChar: uni0E10
Encoding: 3600 3600 229
Width: 559
VWidth: 1504
Flags: W
LayerCount: 2
Fore
SplineSet
129 -206 m 1,0,1
 109 -198 109 -198 95 -199 c 0,2,3
 38 -199 38 -199 38 -238 c 0,4,5
 38 -276 38 -276 77 -275 c 0,6,7
 129 -275 129 -275 129 -206 c 1,0,1
472 -245 m 2,8,9
 472 -346 472 -346 372 -346 c 2,10,-1
 248 -346 l 1,11,-1
 182 -256 l 1,12,13
 179 -292 179 -292 150.5 -317.5 c 128,-1,14
 122 -343 122 -343 86 -343 c 0,15,16
 36 -343 36 -343 7.5 -313 c 128,-1,17
 -21 -283 -21 -283 -21 -236 c 256,18,19
 -21 -189 -21 -189 10.5 -160 c 128,-1,20
 42 -131 42 -131 95 -131 c 0,21,22
 125 -131 125 -131 137 -138 c 1,23,24
 142 -88 142 -88 191 -62 c 1,25,-1
 238 -89 l 1,26,27
 193 -110 193 -110 193 -173 c 1,28,-1
 266 -272 l 1,29,-1
 344 -272 l 2,30,31
 392 -272 392 -272 393 -247 c 2,32,-1
 393 -227 l 1,33,-1
 375 -227 l 2,34,35
 334 -227 334 -227 306 -202 c 128,-1,36
 278 -177 278 -177 278 -141 c 0,37,38
 278 -106 278 -106 306 -81 c 128,-1,39
 334 -56 334 -56 375 -56 c 0,40,41
 414 -56 414 -56 443 -81.5 c 128,-1,42
 472 -107 472 -107 472 -141 c 2,43,-1
 472 -245 l 2,8,9
472 125 m 2,44,45
 472 -12 472 -12 329 -12 c 0,46,47
 191 -12 191 -12 191 117 c 2,48,-1
 191 167 l 1,49,50
 179 164 179 164 170 164 c 0,51,52
 126 164 126 164 97.5 193.5 c 128,-1,53
 69 223 69 223 69 265 c 0,54,55
 69 309 69 309 101.5 337.5 c 128,-1,56
 134 366 134 366 174 366 c 0,57,58
 219 366 219 366 251.5 338 c 128,-1,59
 284 310 284 310 284 266 c 2,60,-1
 284 120 l 2,61,62
 284 66 284 66 331 66 c 0,63,64
 379 66 379 66 379 120 c 2,65,-1
 379 337 l 2,66,67
 379 369 379 369 238 400 c 1,68,69
 116 426 116 426 51 426 c 1,70,71
 60 522 60 522 122 572 c 0,72,73
 173 613 173 613 248 612 c 0,74,75
 277 612 277 612 333.5 597 c 128,-1,76
 390 582 390 582 421 582 c 0,77,78
 444 582 444 582 450 618 c 1,79,-1
 526 599 l 1,80,81
 499 495 499 495 417 495 c 0,82,83
 388 495 388 495 333 513.5 c 128,-1,84
 278 532 278 532 248 532 c 0,85,86
 225 532 225 532 196 520 c 128,-1,87
 167 508 167 508 158 492 c 1,88,89
 331 463 331 463 414 426 c 0,90,91
 473 399 473 399 472 346 c 2,92,-1
 472 125 l 2,44,45
214 265 m 256,93,94
 214 283 214 283 201 295.5 c 128,-1,95
 188 308 188 308 170 308 c 256,96,97
 152 308 152 308 139 295.5 c 128,-1,98
 126 283 126 283 126 265 c 256,99,100
 126 247 126 247 139 234 c 128,-1,101
 152 221 152 221 170 221 c 256,102,103
 188 221 188 221 201 234 c 128,-1,104
 214 247 214 247 214 265 c 256,93,94
406 -141 m 256,105,106
 406 -127 406 -127 396.5 -118.5 c 128,-1,107
 387 -110 387 -110 372 -110 c 256,108,109
 357 -110 357 -110 347.5 -119 c 128,-1,110
 338 -128 338 -128 338 -141 c 256,111,112
 338 -155 338 -155 347 -164.5 c 128,-1,113
 356 -174 356 -174 372 -174 c 256,114,115
 387 -174 387 -174 396.5 -164.5 c 128,-1,116
 406 -155 406 -155 406 -141 c 256,105,106
EndSplineSet
Substitution2: "<23,16000>  in Thai lookup 63 nested-substitutions 7 subtable" uni0E10.alt1
Substitution2: "Single Substitution lookup 56 subtable" uni0E10.alt1
EndChar

StartChar: uni0E11
Encoding: 3601 3601 230
Width: 740
VWidth: 1504
Flags: W
LayerCount: 2
Fore
SplineSet
663 0 m 1,0,-1
 570 0 l 1,1,-1
 570 483 l 2,2,3
 570 524 570 524 546 523 c 0,4,5
 525 523 525 523 517 502 c 2,6,-1
 341 0 l 1,7,-1
 236 0 l 1,8,-1
 236 161 l 2,9,10
 236 221 236 221 276 319.5 c 128,-1,11
 316 418 316 418 316 471 c 0,12,13
 316 522 316 522 286 542 c 1,14,-1
 230 483 l 1,15,-1
 167 543 l 1,16,17
 152 535 152 535 134.5 511 c 128,-1,18
 117 487 117 487 114 469 c 1,19,20
 125 474 125 474 147 474 c 0,21,22
 192 474 192 474 224 441.5 c 128,-1,23
 256 409 256 409 256 366 c 0,24,25
 256 321 256 321 224.5 289 c 128,-1,26
 193 257 193 257 147 257 c 0,27,28
 97 257 97 257 63.5 299 c 128,-1,29
 30 341 30 341 30 402 c 0,30,31
 30 480 30 480 72 543 c 128,-1,32
 114 606 114 606 181 612 c 1,33,-1
 230 561 l 1,34,-1
 278 614 l 1,35,36
 389 590 389 590 390 469 c 0,37,38
 390 421 390 421 356 330 c 128,-1,39
 322 239 322 239 322 181 c 1,40,41
 310 109 310 109 310 95 c 1,42,-1
 459 522 l 2,43,44
 491 612 491 612 558 612 c 0,45,46
 663 612 663 612 663 486 c 2,47,-1
 663 0 l 1,0,-1
196 366 m 256,48,49
 196 386 196 386 182 399 c 128,-1,50
 168 412 168 412 149 412 c 256,51,52
 129 412 129 412 115.5 398.5 c 128,-1,53
 102 385 102 385 102 366 c 256,54,55
 102 346 102 346 115.5 332.5 c 128,-1,56
 129 319 129 319 149 319 c 256,57,58
 169 319 169 319 182.5 332.5 c 128,-1,59
 196 346 196 346 196 366 c 256,48,49
EndSplineSet
EndChar

StartChar: uni0E12
Encoding: 3602 3602 231
Width: 828
VWidth: 1504
Flags: W
LayerCount: 2
Fore
SplineSet
752 0 m 1,0,-1
 665 0 l 1,1,2
 627 65 627 65 570 98 c 1,3,4
 570 51 570 51 539 19.5 c 128,-1,5
 508 -12 508 -12 456 -12 c 0,6,7
 408 -12 408 -12 376 22 c 128,-1,8
 344 56 344 56 344 105 c 0,9,10
 344 140 344 140 367.5 170 c 128,-1,11
 391 200 391 200 424 209 c 1,12,-1
 424 394 l 2,13,14
 424 496 424 496 379 531 c 1,15,-1
 287 465 l 1,16,-1
 203 531 l 1,17,18
 138 498 138 498 138 384 c 0,19,20
 138 361 138 361 160 285 c 128,-1,21
 182 209 182 209 182 171 c 0,22,23
 182 148 182 148 174 129 c 1,24,25
 207 204 207 204 274 245 c 1,26,27
 233 248 233 248 210 276.5 c 128,-1,28
 187 305 187 305 187 341 c 0,29,30
 187 382 187 382 215.5 410 c 128,-1,31
 244 438 244 438 284 438 c 0,32,33
 323 438 323 438 352.5 409.5 c 128,-1,34
 382 381 382 381 382 341 c 0,35,36
 382 267 382 267 292.5 167.5 c 128,-1,37
 203 68 203 68 203 0 c 1,38,-1
 105 0 l 1,39,40
 107 42 107 42 107 96 c 0,41,42
 107 183 107 183 89 229 c 0,43,44
 47 334 47 334 47 382 c 0,45,46
 47 466 47 466 88 529.5 c 128,-1,47
 129 593 129 593 208 614 c 1,48,-1
 287 546 l 1,49,-1
 361 614 l 1,50,51
 517 591 517 591 517 397 c 2,52,-1
 517 197 l 1,53,54
 547 188 547 188 594.5 161 c 128,-1,55
 642 134 642 134 659 114 c 1,56,-1
 659 600 l 1,57,-1
 752 600 l 1,58,-1
 752 0 l 1,0,-1
331 341 m 256,59,60
 331 361 331 361 317.5 374.5 c 128,-1,61
 304 388 304 388 284 388 c 256,62,63
 264 388 264 388 251 374.5 c 128,-1,64
 238 361 238 361 238 341 c 256,65,66
 238 321 238 321 251.5 308 c 128,-1,67
 265 295 265 295 284 295 c 256,68,69
 304 295 304 295 317.5 308 c 128,-1,70
 331 321 331 321 331 341 c 256,59,60
504 101 m 256,71,72
 504 122 504 122 490.5 135.5 c 128,-1,73
 477 149 477 149 456 149 c 256,74,75
 435 149 435 149 422 135.5 c 128,-1,76
 409 122 409 122 409 101 c 256,77,78
 409 80 409 80 422 67 c 128,-1,79
 435 54 435 54 456 54 c 256,80,81
 477 54 477 54 490.5 67 c 128,-1,82
 504 80 504 80 504 101 c 256,71,72
EndSplineSet
EndChar

StartChar: uni0E13
Encoding: 3603 3603 232
Width: 866
VWidth: 1504
Flags: W
LayerCount: 2
Fore
SplineSet
817 102 m 0,0,1
 817 55 817 55 787 21.5 c 128,-1,2
 757 -12 757 -12 707 -12 c 0,3,4
 663 -12 663 -12 630 16 c 128,-1,5
 597 44 597 44 590 86 c 1,6,7
 549 59 549 59 499 0 c 1,8,-1
 405 0 l 1,9,-1
 405 399 l 2,10,11
 405 458 405 458 368 494.5 c 128,-1,12
 331 531 331 531 277 531 c 0,13,14
 185 531 185 531 146 456 c 1,15,16
 205 451 205 451 245 388 c 1,17,18
 168 346 168 346 168 280 c 2,19,-1
 168 209 l 1,20,21
 179 215 179 215 197 215 c 0,22,23
 244 215 244 215 276 182.5 c 128,-1,24
 308 150 308 150 308 102 c 256,25,26
 308 54 308 54 275 21 c 128,-1,27
 242 -12 242 -12 194 -12 c 0,28,29
 144 -12 144 -12 109.5 22.5 c 128,-1,30
 75 57 75 57 75 110 c 2,31,-1
 75 286 l 2,32,33
 75 349 75 349 137 385 c 1,34,35
 99 411 99 411 45 403 c 1,36,37
 48 496 48 496 114 557 c 0,38,39
 176 613 176 613 272 612 c 0,40,41
 373 612 373 612 435.5 555.5 c 128,-1,42
 498 499 498 499 498 399 c 2,43,-1
 498 95 l 1,44,45
 521 122 521 122 579 168 c 0,46,47
 660 231 660 231 675 245 c 1,48,49
 696 272 696 272 696 316 c 2,50,-1
 696 600 l 1,51,-1
 790 600 l 1,52,-1
 790 284 l 2,53,54
 790 225 790 225 758 202 c 1,55,56
 817 168 817 168 817 102 c 0,0,1
755 104 m 256,57,58
 755 125 755 125 740 140 c 128,-1,59
 725 155 725 155 704 155 c 256,60,61
 683 155 683 155 668 140 c 128,-1,62
 653 125 653 125 653 104 c 256,63,64
 653 83 653 83 668 68 c 128,-1,65
 683 53 683 53 704 53 c 256,66,67
 725 53 725 53 740 68 c 128,-1,68
 755 83 755 83 755 104 c 256,57,58
248 101 m 256,69,70
 248 122 248 122 233 137 c 128,-1,71
 218 152 218 152 197 152 c 256,72,73
 176 152 176 152 161 137 c 128,-1,74
 146 122 146 122 146 101 c 256,75,76
 146 80 146 80 161 65 c 128,-1,77
 176 50 176 50 197 50 c 256,78,79
 218 50 218 50 233 65 c 128,-1,80
 248 80 248 80 248 101 c 256,69,70
EndSplineSet
EndChar

StartChar: uni0E14
Encoding: 3604 3604 233
Width: 609
VWidth: 1504
Flags: W
LayerCount: 2
Fore
SplineSet
532 0 m 1,0,-1
 439 0 l 1,1,-1
 439 403 l 2,2,3
 439 460 439 460 396 496 c 128,-1,4
 353 532 353 532 295 532 c 0,5,6
 232 532 232 532 185 489.5 c 128,-1,7
 138 447 138 447 138 387 c 0,8,9
 138 349 138 349 163 280 c 128,-1,10
 188 211 188 211 188 176 c 0,11,12
 188 165 188 165 185 147 c 1,13,14
 229 218 229 218 283 266 c 1,15,16
 241 269 241 269 217 299 c 1,17,18
 194 325 194 325 194 363 c 0,19,20
 194 402 194 402 223.5 431 c 128,-1,21
 253 460 253 460 293 460 c 256,22,23
 334 460 334 460 362.5 431 c 128,-1,24
 391 402 391 402 391 363 c 0,25,26
 391 295 391 295 325 212 c 0,27,28
 233 99 233 99 221 77 c 0,29,30
 198 38 198 38 199 0 c 1,31,-1
 104 0 l 1,32,33
 106 56 106 56 105 102 c 0,34,35
 105 183 105 183 87 227 c 1,36,37
 73 266 73 266 60 307.5 c 128,-1,38
 47 349 47 349 47 381 c 0,39,40
 47 483 47 483 118.5 547.5 c 128,-1,41
 190 612 190 612 292 612 c 0,42,43
 396 612 396 612 462 558 c 0,44,45
 533 499 533 499 532 397 c 2,46,-1
 532 0 l 1,0,-1
338 363 m 256,47,48
 338 383 338 383 325.5 395.5 c 128,-1,49
 313 408 313 408 293 408 c 256,50,51
 273 408 273 408 260.5 395 c 128,-1,52
 248 382 248 382 248 363 c 256,53,54
 248 343 248 343 261 330 c 128,-1,55
 274 317 274 317 293 317 c 256,56,57
 313 317 313 317 325.5 330 c 128,-1,58
 338 343 338 343 338 363 c 256,47,48
EndSplineSet
EndChar

StartChar: uni0E15
Encoding: 3605 3605 234
Width: 609
VWidth: 1504
Flags: W
LayerCount: 2
Fore
SplineSet
532 0 m 1,0,-1
 439 0 l 1,1,-1
 439 394 l 2,2,3
 439 490 439 490 387 532 c 1,4,-1
 293 465 l 1,5,-1
 202 532 l 1,6,7
 139 500 139 500 138 390 c 0,8,9
 138 354 138 354 160 283 c 128,-1,10
 182 212 182 212 182 177 c 0,11,12
 182 153 182 153 173 128 c 1,13,14
 182 149 182 149 216.5 186.5 c 128,-1,15
 251 224 251 224 283 244 c 1,16,17
 242 247 242 247 219 275.5 c 128,-1,18
 196 304 196 304 196 338 c 0,19,20
 196 379 196 379 223.5 407.5 c 128,-1,21
 251 436 251 436 292 436 c 256,22,23
 333 436 333 436 361.5 407.5 c 128,-1,24
 390 379 390 379 390 338 c 0,25,26
 390 273 390 273 322 202 c 0,27,28
 232 106 232 106 217 77 c 0,29,30
 194 33 194 33 194 0 c 1,31,-1
 99 0 l 1,32,33
 102 57 102 57 102 116 c 0,34,35
 102 176 102 176 84 227 c 0,36,37
 46 335 46 335 47 390 c 0,38,39
 47 473 47 473 88 533 c 128,-1,40
 129 593 129 593 206 614 c 1,41,-1
 292 549 l 1,42,-1
 372 614 l 1,43,44
 533 590 533 590 532 397 c 2,45,-1
 532 0 l 1,0,-1
337 340 m 256,46,47
 337 360 337 360 324 372.5 c 128,-1,48
 311 385 311 385 292 385 c 256,49,50
 272 385 272 385 259.5 372.5 c 128,-1,51
 247 360 247 360 247 340 c 256,52,53
 247 320 247 320 259.5 307.5 c 128,-1,54
 272 295 272 295 292 295 c 256,55,56
 312 295 312 295 324.5 307.5 c 128,-1,57
 337 320 337 320 337 340 c 256,46,47
EndSplineSet
EndChar

StartChar: uni0E16
Encoding: 3606 3606 235
Width: 588
VWidth: 1504
Flags: W
LayerCount: 2
Fore
SplineSet
511 0 m 1,0,-1
 418 0 l 1,1,-1
 418 399 l 2,2,3
 418 461 418 461 380.5 496.5 c 128,-1,4
 343 532 343 532 281 532 c 0,5,6
 191 532 191 532 144 456 c 1,7,8
 215 442 215 442 245 388 c 1,9,10
 168 343 168 343 168 280 c 2,11,-1
 168 209 l 1,12,13
 179 215 179 215 197 215 c 0,14,15
 244 215 244 215 276 182.5 c 128,-1,16
 308 150 308 150 308 102 c 256,17,18
 308 54 308 54 275 21 c 128,-1,19
 242 -12 242 -12 194 -12 c 0,20,21
 144 -12 144 -12 109.5 22.5 c 128,-1,22
 75 57 75 57 75 110 c 2,23,-1
 75 286 l 2,24,25
 75 349 75 349 137 385 c 1,26,27
 99 411 99 411 45 403 c 1,28,29
 48 496 48 496 117 557 c 0,30,31
 180 613 180 613 278 612 c 0,32,33
 386 612 386 612 448.5 554 c 128,-1,34
 511 496 511 496 511 397 c 2,35,-1
 511 0 l 1,0,-1
248 101 m 256,36,37
 248 122 248 122 233 137 c 128,-1,38
 218 152 218 152 197 152 c 256,39,40
 176 152 176 152 161 137 c 128,-1,41
 146 122 146 122 146 101 c 256,42,43
 146 80 146 80 161 65 c 128,-1,44
 176 50 176 50 197 50 c 256,45,46
 218 50 218 50 233 65 c 128,-1,47
 248 80 248 80 248 101 c 256,36,37
EndSplineSet
EndChar

StartChar: uni0E17
Encoding: 3607 3607 236
Width: 658
VWidth: 1504
Flags: W
LayerCount: 2
Fore
SplineSet
582 0 m 1,0,-1
 489 0 l 1,1,-1
 489 486 l 2,2,3
 489 533 489 533 466 532 c 0,4,5
 446 532 446 532 439 510 c 2,6,-1
 260 0 l 1,7,-1
 155 0 l 1,8,-1
 155 387 l 1,9,10
 140 384 140 384 129 384 c 0,11,12
 81 384 81 384 48 417.5 c 128,-1,13
 15 451 15 451 15 499 c 0,14,15
 15 546 15 546 48 579 c 128,-1,16
 81 612 81 612 129 612 c 0,17,18
 180 612 180 612 214 577.5 c 128,-1,19
 248 543 248 543 248 490 c 2,20,-1
 248 266 l 2,21,22
 248 215 248 215 230 107 c 1,23,24
 247 173 247 173 272 254 c 2,25,-1
 356 522 l 2,26,27
 385 614 385 614 469 612 c 0,28,29
 582 610 582 610 582 484 c 2,30,-1
 582 0 l 1,0,-1
181 498 m 256,31,32
 181 519 181 519 165.5 534 c 128,-1,33
 150 549 150 549 129 549 c 256,34,35
 108 549 108 549 93 534 c 128,-1,36
 78 519 78 519 78 498 c 256,37,38
 78 477 78 477 93 462 c 128,-1,39
 108 447 108 447 129 447 c 256,40,41
 150 447 150 447 165.5 462 c 128,-1,42
 181 477 181 477 181 498 c 256,31,32
EndSplineSet
EndChar

StartChar: uni0E18
Encoding: 3608 3608 237
Width: 538
VWidth: 1504
Flags: W
LayerCount: 2
Fore
SplineSet
451 128 m 2,0,1
 451 -12 451 -12 263 -12 c 0,2,3
 76 -12 76 -12 77 128 c 2,4,-1
 77 325 l 1,5,-1
 170 325 l 1,6,-1
 170 122 l 2,7,8
 170 68 170 68 265 68 c 0,9,10
 358 68 358 68 358 122 c 2,11,-1
 358 320 l 2,12,13
 358 355 358 355 240.5 381.5 c 128,-1,14
 123 408 123 408 38 424 c 1,15,16
 47 520 47 520 84 564 c 0,17,18
 128 612 128 612 221 612 c 0,19,20
 254 612 254 612 314.5 598 c 128,-1,21
 375 584 375 584 399 584 c 0,22,23
 425 584 425 584 427 617 c 1,24,-1
 501 597 l 1,25,26
 484 547 484 547 461.5 525.5 c 128,-1,27
 439 504 439 504 393 504 c 0,28,29
 366 504 366 504 310 519 c 128,-1,30
 254 534 254 534 224 534 c 0,31,32
 143 534 143 534 137 484 c 1,33,34
 284 452 284 452 367.5 424 c 128,-1,35
 451 396 451 396 451 326 c 2,36,-1
 451 128 l 2,0,1
EndSplineSet
EndChar

StartChar: uni0E19
Encoding: 3609 3609 238
Width: 651
VWidth: 1504
Flags: W
LayerCount: 2
Fore
SplineSet
575 284 m 2,0,1
 575 224 575 224 543 202 c 1,2,3
 602 169 602 169 602 101 c 0,4,5
 602 53 602 53 568.5 20.5 c 128,-1,6
 535 -12 535 -12 489 -12 c 0,7,8
 445 -12 445 -12 413.5 16 c 128,-1,9
 382 44 382 44 376 86 c 1,10,11
 328 62 328 62 307 50 c 0,12,13
 271 27 271 27 250 0 c 1,14,-1
 155 0 l 1,15,-1
 155 387 l 1,16,17
 140 384 140 384 129 384 c 0,18,19
 81 384 81 384 48 417.5 c 128,-1,20
 15 451 15 451 15 499 c 0,21,22
 15 546 15 546 48 579 c 128,-1,23
 81 612 81 612 129 612 c 0,24,25
 180 612 180 612 214 577.5 c 128,-1,26
 248 543 248 543 248 490 c 2,27,-1
 248 108 l 1,28,29
 272 126 272 126 356 161 c 0,30,31
 431 193 431 193 460 224 c 0,32,33
 481 247 481 247 481 296 c 2,34,-1
 481 600 l 1,35,-1
 575 600 l 1,36,-1
 575 284 l 2,0,1
181 498 m 256,37,38
 181 519 181 519 165.5 534 c 128,-1,39
 150 549 150 549 129 549 c 256,40,41
 108 549 108 549 93 534 c 128,-1,42
 78 519 78 519 78 498 c 256,43,44
 78 477 78 477 93 462 c 128,-1,45
 108 447 108 447 129 447 c 256,46,47
 150 447 150 447 165.5 462 c 128,-1,48
 181 477 181 477 181 498 c 256,37,38
539 101 m 256,49,50
 539 122 539 122 523.5 137 c 128,-1,51
 508 152 508 152 487 152 c 256,52,53
 466 152 466 152 451 137 c 128,-1,54
 436 122 436 122 436 101 c 256,55,56
 436 80 436 80 451 65 c 128,-1,57
 466 50 466 50 487 50 c 256,58,59
 508 50 508 50 523.5 65 c 128,-1,60
 539 80 539 80 539 101 c 256,49,50
EndSplineSet
EndChar

StartChar: uni0E1A
Encoding: 3610 3610 239
Width: 669
VWidth: 1504
Flags: W
LayerCount: 2
Fore
SplineSet
593 135 m 2,0,1
 593 -12 593 -12 375 -12 c 0,2,3
 155 -12 155 -12 155 135 c 2,4,-1
 155 387 l 1,5,6
 140 384 140 384 129 384 c 0,7,8
 81 384 81 384 48 417.5 c 128,-1,9
 15 451 15 451 15 499 c 0,10,11
 15 546 15 546 48 579 c 128,-1,12
 81 612 81 612 129 612 c 0,13,14
 180 612 180 612 214 577.5 c 128,-1,15
 248 543 248 543 248 490 c 2,16,-1
 248 134 l 2,17,18
 248 104 248 104 288.5 86 c 128,-1,19
 329 68 329 68 375 68 c 0,20,21
 419 68 419 68 459 86 c 128,-1,22
 499 104 499 104 499 134 c 2,23,-1
 499 600 l 1,24,-1
 593 600 l 1,25,-1
 593 135 l 2,0,1
181 498 m 256,26,27
 181 519 181 519 165.5 534 c 128,-1,28
 150 549 150 549 129 549 c 256,29,30
 108 549 108 549 93 534 c 128,-1,31
 78 519 78 519 78 498 c 256,32,33
 78 477 78 477 93 462 c 128,-1,34
 108 447 108 447 129 447 c 256,35,36
 150 447 150 447 165.5 462 c 128,-1,37
 181 477 181 477 181 498 c 256,26,27
EndSplineSet
EndChar

StartChar: uni0E1B
Encoding: 3611 3611 240
Width: 669
VWidth: 1504
Flags: W
LayerCount: 2
Fore
SplineSet
593 135 m 2,0,1
 593 -12 593 -12 375 -12 c 0,2,3
 155 -12 155 -12 155 135 c 2,4,-1
 155 387 l 1,5,6
 140 384 140 384 129 384 c 0,7,8
 81 384 81 384 48 417.5 c 128,-1,9
 15 451 15 451 15 499 c 0,10,11
 15 546 15 546 48 579 c 128,-1,12
 81 612 81 612 129 612 c 0,13,14
 180 612 180 612 214 577.5 c 128,-1,15
 248 543 248 543 248 490 c 2,16,-1
 248 134 l 2,17,18
 248 104 248 104 288.5 86 c 128,-1,19
 329 68 329 68 375 68 c 0,20,21
 419 68 419 68 459 86 c 128,-1,22
 499 104 499 104 499 134 c 2,23,-1
 499 841 l 1,24,-1
 593 841 l 1,25,-1
 593 135 l 2,0,1
181 498 m 256,26,27
 181 519 181 519 165.5 534 c 128,-1,28
 150 549 150 549 129 549 c 256,29,30
 108 549 108 549 93 534 c 128,-1,31
 78 519 78 519 78 498 c 256,32,33
 78 477 78 477 93 462 c 128,-1,34
 108 447 108 447 129 447 c 256,35,36
 150 447 150 447 165.5 462 c 128,-1,37
 181 477 181 477 181 498 c 256,26,27
EndSplineSet
EndChar

StartChar: uni0E1C
Encoding: 3612 3612 241
Width: 622
VWidth: 1504
Flags: W
LayerCount: 2
Fore
SplineSet
546 0 m 1,0,-1
 453 0 l 1,1,-1
 302 241 l 1,2,-1
 152 0 l 1,3,-1
 60 0 l 1,4,-1
 60 490 l 2,5,6
 60 543 60 543 95.5 577.5 c 128,-1,7
 131 612 131 612 181 612 c 0,8,9
 229 612 229 612 262 578.5 c 128,-1,10
 295 545 295 545 295 498 c 0,11,12
 295 450 295 450 262 417 c 128,-1,13
 229 384 229 384 181 384 c 0,14,15
 160 384 160 384 153 385 c 1,16,-1
 153 128 l 1,17,-1
 272 313 l 1,18,-1
 332 313 l 1,19,-1
 453 126 l 1,20,-1
 453 600 l 1,21,-1
 546 600 l 1,22,-1
 546 0 l 1,0,-1
232 498 m 256,23,24
 232 519 232 519 217 534 c 128,-1,25
 202 549 202 549 181 549 c 256,26,27
 160 549 160 549 144.5 534 c 128,-1,28
 129 519 129 519 129 498 c 256,29,30
 129 477 129 477 144 462 c 128,-1,31
 159 447 159 447 181 447 c 256,32,33
 202 447 202 447 217 462 c 128,-1,34
 232 477 232 477 232 498 c 256,23,24
EndSplineSet
EndChar

StartChar: uni0E1D
Encoding: 3613 3613 242
Width: 622
VWidth: 1504
Flags: W
LayerCount: 2
Fore
SplineSet
546 0 m 1,0,-1
 453 0 l 1,1,-1
 302 241 l 1,2,-1
 152 0 l 1,3,-1
 60 0 l 1,4,-1
 60 490 l 2,5,6
 60 543 60 543 95.5 577.5 c 128,-1,7
 131 612 131 612 181 612 c 0,8,9
 229 612 229 612 262 578.5 c 128,-1,10
 295 545 295 545 295 498 c 0,11,12
 295 450 295 450 262 417 c 128,-1,13
 229 384 229 384 181 384 c 0,14,15
 160 384 160 384 153 385 c 1,16,-1
 153 128 l 1,17,-1
 272 313 l 1,18,-1
 332 313 l 1,19,-1
 453 126 l 1,20,-1
 453 841 l 1,21,-1
 546 841 l 1,22,-1
 546 0 l 1,0,-1
232 498 m 256,23,24
 232 519 232 519 217 534 c 128,-1,25
 202 549 202 549 181 549 c 256,26,27
 160 549 160 549 144.5 534 c 128,-1,28
 129 519 129 519 129 498 c 256,29,30
 129 477 129 477 144 462 c 128,-1,31
 159 447 159 447 181 447 c 256,32,33
 202 447 202 447 217 462 c 128,-1,34
 232 477 232 477 232 498 c 256,23,24
EndSplineSet
EndChar

StartChar: uni0E1E
Encoding: 3614 3614 243
Width: 725
VWidth: 1504
Flags: W
LayerCount: 2
Fore
SplineSet
648 0 m 1,0,-1
 543 0 l 1,1,-1
 402 466 l 1,2,-1
 256 0 l 1,3,-1
 155 0 l 1,4,-1
 155 387 l 1,5,6
 140 384 140 384 129 384 c 0,7,8
 81 384 81 384 48 417.5 c 128,-1,9
 15 451 15 451 15 499 c 0,10,11
 15 546 15 546 48 579 c 128,-1,12
 81 612 81 612 129 612 c 0,13,14
 180 612 180 612 214 577.5 c 128,-1,15
 248 543 248 543 248 490 c 2,16,-1
 248 266 l 2,17,18
 248 227 248 227 230 107 c 1,19,20
 263 244 263 244 268 254 c 2,21,-1
 373 575 l 1,22,-1
 430 575 l 1,23,-1
 535 254 l 2,24,25
 538 245 538 245 573 107 c 1,26,27
 555 227 555 227 555 266 c 2,28,-1
 555 600 l 1,29,-1
 648 600 l 1,30,-1
 648 0 l 1,0,-1
181 498 m 256,31,32
 181 519 181 519 165.5 534 c 128,-1,33
 150 549 150 549 129 549 c 256,34,35
 108 549 108 549 93 534 c 128,-1,36
 78 519 78 519 78 498 c 256,37,38
 78 477 78 477 93 462 c 128,-1,39
 108 447 108 447 129 447 c 256,40,41
 150 447 150 447 165.5 462 c 128,-1,42
 181 477 181 477 181 498 c 256,31,32
EndSplineSet
EndChar

StartChar: uni0E1F
Encoding: 3615 3615 244
Width: 725
VWidth: 1504
Flags: W
LayerCount: 2
Fore
SplineSet
648 0 m 1,0,-1
 543 0 l 1,1,-1
 402 466 l 1,2,-1
 256 0 l 1,3,-1
 155 0 l 1,4,-1
 155 387 l 1,5,6
 140 384 140 384 129 384 c 0,7,8
 81 384 81 384 48 417.5 c 128,-1,9
 15 451 15 451 15 499 c 0,10,11
 15 546 15 546 48 579 c 128,-1,12
 81 612 81 612 129 612 c 0,13,14
 180 612 180 612 214 577.5 c 128,-1,15
 248 543 248 543 248 490 c 2,16,-1
 248 266 l 2,17,18
 248 227 248 227 230 107 c 1,19,20
 263 244 263 244 268 254 c 2,21,-1
 373 575 l 1,22,-1
 430 575 l 1,23,-1
 535 254 l 2,24,25
 538 245 538 245 573 107 c 1,26,27
 555 227 555 227 555 266 c 2,28,-1
 555 841 l 1,29,-1
 648 841 l 1,30,-1
 648 0 l 1,0,-1
181 498 m 256,31,32
 181 519 181 519 165.5 534 c 128,-1,33
 150 549 150 549 129 549 c 256,34,35
 108 549 108 549 93 534 c 128,-1,36
 78 519 78 519 78 498 c 256,37,38
 78 477 78 477 93 462 c 128,-1,39
 108 447 108 447 129 447 c 256,40,41
 150 447 150 447 165.5 462 c 128,-1,42
 181 477 181 477 181 498 c 256,31,32
EndSplineSet
EndChar

StartChar: uni0E20
Encoding: 3616 3616 245
Width: 639
VWidth: 1504
Flags: W
LayerCount: 2
Fore
SplineSet
177 102 m 256,0,1
 177 123 177 123 162 138 c 128,-1,2
 147 153 147 153 126 153 c 256,3,4
 105 153 105 153 90 138 c 128,-1,5
 75 123 75 123 75 102 c 256,6,7
 75 81 75 81 90 66 c 128,-1,8
 105 51 105 51 126 51 c 256,9,10
 147 51 147 51 162 66 c 128,-1,11
 177 81 177 81 177 102 c 256,0,1
563 0 m 1,12,-1
 469 0 l 1,13,-1
 469 399 l 2,14,15
 469 459 469 459 429.5 495.5 c 128,-1,16
 390 532 390 532 329 532 c 0,17,18
 237 532 237 532 196 456 c 1,19,20
 270 441 270 441 296 388 c 1,21,22
 255 365 255 365 242 350 c 0,23,24
 222 326 222 326 223 286 c 0,25,26
 223 253 223 253 230.5 190.5 c 128,-1,27
 238 128 238 128 238 102 c 0,28,29
 238 54 238 54 205.5 21 c 128,-1,30
 173 -12 173 -12 126 -12 c 0,31,32
 78 -12 78 -12 45 21 c 128,-1,33
 12 54 12 54 12 102 c 0,34,35
 12 149 12 149 45 182 c 128,-1,36
 78 215 78 215 123 215 c 0,37,38
 141 215 141 215 146 211 c 1,39,-1
 137 304 l 1,40,41
 137 357 137 357 188 385 c 1,42,43
 147 411 147 411 96 403 c 1,44,45
 98 496 98 496 165 557 c 0,46,47
 230 613 230 613 328 612 c 0,48,49
 433 612 433 612 498 553.5 c 128,-1,50
 563 495 563 495 563 397 c 2,51,-1
 563 0 l 1,12,-1
EndSplineSet
EndChar

StartChar: uni0E21
Encoding: 3617 3617 246
Width: 627
VWidth: 1504
Flags: W
LayerCount: 2
Fore
SplineSet
551 0 m 1,0,-1
 457 0 l 1,1,2
 370 78 370 78 281 110 c 1,3,-1
 281 102 l 2,4,5
 281 54 281 54 244.5 21 c 128,-1,6
 208 -12 208 -12 161 -12 c 0,7,8
 111 -12 111 -12 75 24 c 128,-1,9
 39 60 39 60 39 110 c 256,10,11
 39 160 39 160 75 195 c 128,-1,12
 111 230 111 230 161 230 c 2,13,-1
 171 230 l 1,14,-1
 171 387 l 1,15,16
 156 384 156 384 146 384 c 0,17,18
 98 384 98 384 65 417.5 c 128,-1,19
 32 451 32 451 32 499 c 0,20,21
 32 546 32 546 65 579 c 128,-1,22
 98 612 98 612 146 612 c 0,23,24
 197 612 197 612 231 577.5 c 128,-1,25
 265 543 265 543 265 490 c 2,26,-1
 265 205 l 1,27,28
 384 164 384 164 457 98 c 1,29,-1
 457 600 l 1,30,-1
 551 600 l 1,31,-1
 551 0 l 1,0,-1
197 498 m 256,32,33
 197 519 197 519 182 534 c 128,-1,34
 167 549 167 549 146 549 c 256,35,36
 125 549 125 549 110 534 c 128,-1,37
 95 519 95 519 95 498 c 256,38,39
 95 477 95 477 110 462 c 128,-1,40
 125 447 125 447 146 447 c 256,41,42
 167 447 167 447 182 462 c 128,-1,43
 197 477 197 477 197 498 c 256,32,33
212 110 m 256,44,45
 212 131 212 131 197 146 c 128,-1,46
 182 161 182 161 161 161 c 256,47,48
 140 161 140 161 125 146 c 128,-1,49
 110 131 110 131 110 110 c 256,50,51
 110 89 110 89 125 74 c 128,-1,52
 140 59 140 59 161 59 c 256,53,54
 182 59 182 59 197 74 c 128,-1,55
 212 89 212 89 212 110 c 256,44,45
EndSplineSet
EndChar

StartChar: uni0E22
Encoding: 3618 3618 247
Width: 580
VWidth: 1504
Flags: W
LayerCount: 2
Fore
SplineSet
504 152 m 2,0,1
 504 -12 504 -12 281 -12 c 0,2,3
 60 -12 60 -12 60 152 c 2,4,-1
 60 221 l 2,5,6
 60 293 60 293 122 323 c 1,7,8
 53 370 53 370 53 460 c 0,9,10
 53 526 53 526 89.5 569 c 128,-1,11
 126 612 126 612 191 612 c 0,12,13
 236 612 236 612 267.5 584.5 c 128,-1,14
 299 557 299 557 299 511 c 0,15,16
 299 470 299 470 270.5 440.5 c 128,-1,17
 242 411 242 411 196 411 c 0,18,19
 172 411 172 411 153 418 c 1,20,21
 165 361 165 361 208 361 c 2,22,-1
 314 361 l 1,23,-1
 314 287 l 1,24,-1
 208 287 l 2,25,26
 184 287 184 287 168.5 266 c 128,-1,27
 153 245 153 245 153 218 c 2,28,-1
 153 149 l 2,29,30
 153 68 153 68 281 68 c 0,31,32
 410 68 410 68 411 149 c 2,33,-1
 411 600 l 1,34,-1
 504 600 l 1,35,-1
 504 152 l 2,0,1
244 510 m 256,36,37
 244 531 244 531 230.5 544.5 c 128,-1,38
 217 558 217 558 196 558 c 256,39,40
 175 558 175 558 161 544.5 c 128,-1,41
 147 531 147 531 147 510 c 256,42,43
 147 489 147 489 160.5 475.5 c 128,-1,44
 174 462 174 462 196 462 c 256,45,46
 217 462 217 462 230.5 475.5 c 128,-1,47
 244 489 244 489 244 510 c 256,36,37
EndSplineSet
EndChar

StartChar: uni0E23
Encoding: 3619 3619 248
Width: 494
VWidth: 1504
Flags: W
LayerCount: 2
Fore
SplineSet
408 101 m 2,0,1
 408 53 408 53 374 20.5 c 128,-1,2
 340 -12 340 -12 292 -12 c 256,3,4
 244 -12 244 -12 210 21 c 128,-1,5
 176 54 176 54 176 102 c 256,6,7
 176 150 176 150 210 183.5 c 128,-1,8
 244 217 244 217 292 217 c 0,9,10
 310 217 310 217 314 215 c 1,11,-1
 314 344 l 2,12,13
 314 368 314 368 214 391.5 c 128,-1,14
 114 415 114 415 33 429 c 1,15,16
 36 512 36 512 76.5 562 c 128,-1,17
 117 612 117 612 194 612 c 0,18,19
 226 612 226 612 280.5 598 c 128,-1,20
 335 584 335 584 360 584 c 0,21,22
 386 584 386 584 388 617 c 1,23,-1
 462 597 l 1,24,25
 435 505 435 505 363 505 c 0,26,27
 336 505 336 505 285.5 518.5 c 128,-1,28
 235 532 235 532 209 532 c 0,29,30
 143 532 143 532 134 481 c 1,31,32
 250 457 250 457 329 430 c 128,-1,33
 408 403 408 403 408 337 c 2,34,-1
 408 101 l 2,0,1
343 102 m 256,35,36
 343 123 343 123 328 138 c 128,-1,37
 313 153 313 153 292 153 c 256,38,39
 271 153 271 153 256 138 c 128,-1,40
 241 123 241 123 241 102 c 256,41,42
 241 81 241 81 256 66 c 128,-1,43
 271 51 271 51 292 51 c 256,44,45
 313 51 313 51 328 66 c 128,-1,46
 343 81 343 81 343 102 c 256,35,36
EndSplineSet
EndChar

StartChar: uni0E24
Encoding: 3620 3620 249
Width: 588
VWidth: 1504
Flags: W
LayerCount: 2
Fore
SplineSet
511 -211 m 1,0,-1
 418 -211 l 1,1,-1
 418 399 l 2,2,3
 418 461 418 461 380.5 496.5 c 128,-1,4
 343 532 343 532 281 532 c 0,5,6
 191 532 191 532 144 456 c 1,7,8
 215 442 215 442 245 388 c 1,9,10
 168 343 168 343 168 280 c 2,11,-1
 168 209 l 1,12,13
 179 215 179 215 197 215 c 0,14,15
 244 215 244 215 276 182.5 c 128,-1,16
 308 150 308 150 308 102 c 256,17,18
 308 54 308 54 275 21 c 128,-1,19
 242 -12 242 -12 194 -12 c 0,20,21
 144 -12 144 -12 109.5 22.5 c 128,-1,22
 75 57 75 57 75 110 c 2,23,-1
 75 286 l 2,24,25
 75 349 75 349 137 385 c 1,26,27
 99 411 99 411 45 403 c 1,28,29
 48 496 48 496 117 557 c 0,30,31
 180 613 180 613 278 612 c 0,32,33
 386 612 386 612 448.5 554 c 128,-1,34
 511 496 511 496 511 397 c 2,35,-1
 511 -211 l 1,0,-1
248 101 m 256,36,37
 248 122 248 122 233 137 c 128,-1,38
 218 152 218 152 197 152 c 256,39,40
 176 152 176 152 161 137 c 128,-1,41
 146 122 146 122 146 101 c 256,42,43
 146 80 146 80 161 65 c 128,-1,44
 176 50 176 50 197 50 c 256,45,46
 218 50 218 50 233 65 c 128,-1,47
 248 80 248 80 248 101 c 256,36,37
EndSplineSet
EndChar

StartChar: uni0E25
Encoding: 3621 3621 250
Width: 600
VWidth: 1504
Flags: W
LayerCount: 2
Fore
SplineSet
523 0 m 1,0,-1
 430 0 l 1,1,-1
 430 260 l 2,2,3
 430 305 430 305 379 329 c 0,4,5
 340 347 340 347 292 347 c 0,6,7
 245 347 245 347 212 325 c 0,8,9
 171 298 171 298 171 253 c 2,10,-1
 171 215 l 1,11,12
 183 218 183 218 199 218 c 0,13,14
 247 218 247 218 281.5 184 c 128,-1,15
 316 150 316 150 316 104 c 0,16,17
 316 56 316 56 280 22.5 c 128,-1,18
 244 -11 244 -11 197 -11 c 0,19,20
 147 -11 147 -11 112.5 21.5 c 128,-1,21
 78 54 78 54 78 104 c 2,22,-1
 78 242 l 2,23,24
 78 331 78 331 144 381 c 0,25,26
 203 425 203 425 290 424 c 0,27,28
 383 424 383 424 430 373 c 1,29,-1
 430 441 l 2,30,31
 430 488 430 488 376 513 c 0,32,33
 334 533 334 533 281 532 c 0,34,35
 222 532 222 532 181 505 c 0,36,37
 134 475 134 475 125 424 c 1,38,-1
 35 424 l 1,39,40
 44 516 44 516 114 566 c 0,41,42
 180 613 180 613 284 612 c 0,43,44
 377 612 377 612 445 569 c 0,45,46
 523 519 523 519 523 430 c 2,47,-1
 523 0 l 1,0,-1
250 104 m 256,48,49
 250 125 250 125 235 140 c 128,-1,50
 220 155 220 155 199 155 c 256,51,52
 178 155 178 155 162.5 140 c 128,-1,53
 147 125 147 125 147 104 c 256,54,55
 147 83 147 83 162 68 c 128,-1,56
 177 53 177 53 199 53 c 256,57,58
 220 53 220 53 235 68 c 128,-1,59
 250 83 250 83 250 104 c 256,48,49
EndSplineSet
EndChar

StartChar: uni0E26
Encoding: 3622 3622 251
Width: 639
VWidth: 1504
Flags: W
LayerCount: 2
Fore
SplineSet
177 102 m 256,0,1
 177 123 177 123 162 138 c 128,-1,2
 147 153 147 153 126 153 c 256,3,4
 105 153 105 153 90 138 c 128,-1,5
 75 123 75 123 75 102 c 256,6,7
 75 81 75 81 90 66 c 128,-1,8
 105 51 105 51 126 51 c 256,9,10
 147 51 147 51 162 66 c 128,-1,11
 177 81 177 81 177 102 c 256,0,1
563 -211 m 1,12,-1
 469 -211 l 1,13,-1
 469 399 l 2,14,15
 469 459 469 459 429.5 495.5 c 128,-1,16
 390 532 390 532 329 532 c 0,17,18
 237 532 237 532 196 456 c 1,19,20
 270 441 270 441 296 388 c 1,21,22
 255 365 255 365 242 350 c 0,23,24
 222 326 222 326 223 286 c 0,25,26
 223 253 223 253 230.5 190.5 c 128,-1,27
 238 128 238 128 238 102 c 0,28,29
 238 54 238 54 205.5 21 c 128,-1,30
 173 -12 173 -12 126 -12 c 0,31,32
 78 -12 78 -12 45 21 c 128,-1,33
 12 54 12 54 12 102 c 0,34,35
 12 149 12 149 45 182 c 128,-1,36
 78 215 78 215 123 215 c 0,37,38
 141 215 141 215 146 211 c 1,39,-1
 137 304 l 1,40,41
 137 357 137 357 188 385 c 1,42,43
 147 411 147 411 96 403 c 1,44,45
 98 496 98 496 165 557 c 0,46,47
 230 613 230 613 328 612 c 0,48,49
 433 612 433 612 498 553.5 c 128,-1,50
 563 495 563 495 563 397 c 2,51,-1
 563 -211 l 1,12,-1
EndSplineSet
EndChar

StartChar: uni0E27
Encoding: 3623 3623 252
Width: 570
VWidth: 1504
Flags: W
LayerCount: 2
Fore
SplineSet
493 110 m 2,0,1
 493 57 493 57 458.5 23 c 128,-1,2
 424 -11 424 -11 373 -11 c 0,3,4
 325 -11 325 -11 292 22.5 c 128,-1,5
 259 56 259 56 259 102 c 0,6,7
 259 150 259 150 292 183.5 c 128,-1,8
 325 217 325 217 373 217 c 0,9,10
 390 217 390 217 400 215 c 1,11,-1
 400 436 l 2,12,13
 400 532 400 532 262 532 c 0,14,15
 205 532 205 532 165 497 c 128,-1,16
 125 462 125 462 125 403 c 1,17,-1
 35 403 l 1,18,19
 40 502 40 502 100.5 557 c 128,-1,20
 161 612 161 612 262 612 c 0,21,22
 361 612 361 612 421 573 c 0,23,24
 493 526 493 526 493 430 c 2,25,-1
 493 110 l 2,0,1
424 104 m 256,26,27
 424 125 424 125 409 140 c 128,-1,28
 394 155 394 155 373 155 c 256,29,30
 352 155 352 155 337 140 c 128,-1,31
 322 125 322 125 322 104 c 256,32,33
 322 83 322 83 337 68 c 128,-1,34
 352 53 352 53 373 53 c 256,35,36
 394 53 394 53 409 68 c 128,-1,37
 424 83 424 83 424 104 c 256,26,27
EndSplineSet
EndChar

StartChar: uni0E28
Encoding: 3624 3624 253
Width: 606
VWidth: 1504
Flags: W
LayerCount: 2
Fore
SplineSet
529 0 m 1,0,-1
 436 0 l 1,1,-1
 436 411 l 2,2,3
 436 465 436 465 390 501 c 1,4,5
 346 533 346 533 289 532 c 0,6,7
 221 532 221 532 180.5 486.5 c 128,-1,8
 140 441 140 441 140 381 c 0,9,10
 140 364 140 364 146.5 325.5 c 128,-1,11
 153 287 153 287 153 259 c 2,12,-1
 153 220 l 2,13,14
 153 226 153 226 157 250 c 128,-1,15
 161 274 161 274 165 296 c 0,16,17
 180 359 180 359 211 403 c 1,18,19
 252 456 252 456 302 456 c 0,20,21
 343 456 343 456 373 427.5 c 128,-1,22
 403 399 403 399 403 358 c 0,23,24
 403 319 403 319 373 289.5 c 128,-1,25
 343 260 343 260 302 260 c 0,26,27
 264 260 264 260 235 287 c 1,28,29
 190 150 190 150 190 0 c 1,30,-1
 96 0 l 1,31,-1
 96 96 l 2,32,33
 96 167 96 167 71.5 250.5 c 128,-1,34
 47 334 47 334 47 382 c 0,35,36
 47 486 47 486 122 551 c 0,37,38
 193 613 193 613 296 612 c 0,39,40
 355 612 355 612 411 588 c 1,41,42
 446 614 446 614 445 660 c 1,43,-1
 551 660 l 1,44,45
 533 577 533 577 481 539 c 1,46,47
 529 483 529 483 529 408 c 2,48,-1
 529 0 l 1,0,-1
347 358 m 256,49,50
 347 378 347 378 333.5 391.5 c 128,-1,51
 320 405 320 405 301 405 c 256,52,53
 281 405 281 405 268.5 391.5 c 128,-1,54
 256 378 256 378 256 358 c 256,55,56
 256 338 256 338 268.5 325.5 c 128,-1,57
 281 313 281 313 301 313 c 256,58,59
 321 313 321 313 334 325.5 c 128,-1,60
 347 338 347 338 347 358 c 256,49,50
EndSplineSet
EndChar

StartChar: uni0E29
Encoding: 3625 3625 254
Width: 693
VWidth: 1504
Flags: W
LayerCount: 2
Fore
SplineSet
704 356 m 1,0,1
 675 308 675 308 617 269 c 1,2,-1
 617 135 l 2,3,4
 617 -12 617 -12 387 -12 c 0,5,6
 155 -12 155 -12 155 135 c 2,7,-1
 155 387 l 1,8,9
 140 384 140 384 129 384 c 0,10,11
 81 384 81 384 48 417.5 c 128,-1,12
 15 451 15 451 15 499 c 0,13,14
 15 546 15 546 48 579 c 128,-1,15
 81 612 81 612 129 612 c 0,16,17
 180 612 180 612 214 577.5 c 128,-1,18
 248 543 248 543 248 490 c 2,19,-1
 248 140 l 2,20,21
 248 110 248 110 283.5 89 c 128,-1,22
 319 68 319 68 385 68 c 0,23,24
 453 68 453 68 488 89 c 128,-1,25
 523 110 523 110 523 140 c 2,26,-1
 523 230 l 1,27,28
 488 222 488 222 460 223 c 0,29,30
 276 223 276 223 277 347 c 0,31,32
 277 389 277 389 304.5 418.5 c 128,-1,33
 332 448 332 448 379 448 c 0,34,35
 423 448 423 448 450 420.5 c 128,-1,36
 477 393 477 393 477 353 c 0,37,38
 477 305 477 305 445 283 c 1,39,40
 486 286 486 286 523 298 c 1,41,-1
 523 600 l 1,42,-1
 617 600 l 1,43,-1
 617 350 l 1,44,45
 641 373 641 373 654 406 c 1,46,-1
 704 356 l 1,0,1
181 498 m 256,47,48
 181 519 181 519 165.5 534 c 128,-1,49
 150 549 150 549 129 549 c 256,50,51
 108 549 108 549 93 534 c 128,-1,52
 78 519 78 519 78 498 c 256,53,54
 78 477 78 477 93 462 c 128,-1,55
 108 447 108 447 129 447 c 256,56,57
 150 447 150 447 165.5 462 c 128,-1,58
 181 477 181 477 181 498 c 256,47,48
421 352 m 256,59,60
 421 372 421 372 408.5 385.5 c 128,-1,61
 396 399 396 399 376 399 c 256,62,63
 356 399 356 399 343.5 385.5 c 128,-1,64
 331 372 331 372 331 352 c 256,65,66
 331 332 331 332 343.5 318.5 c 128,-1,67
 356 305 356 305 376 305 c 256,68,69
 396 305 396 305 408.5 318.5 c 128,-1,70
 421 332 421 332 421 352 c 256,59,60
EndSplineSet
EndChar

StartChar: uni0E2A
Encoding: 3626 3626 255
Width: 600
VWidth: 1504
Flags: W
LayerCount: 2
Fore
SplineSet
523 0 m 1,0,-1
 430 0 l 1,1,-1
 430 260 l 2,2,3
 430 305 430 305 379 329 c 0,4,5
 340 347 340 347 292 347 c 0,6,7
 245 347 245 347 212 325 c 0,8,9
 171 298 171 298 171 253 c 2,10,-1
 171 215 l 1,11,12
 192 218 192 218 199 218 c 0,13,14
 247 218 247 218 281.5 184 c 128,-1,15
 316 150 316 150 316 104 c 0,16,17
 316 56 316 56 280 22.5 c 128,-1,18
 244 -11 244 -11 197 -11 c 0,19,20
 147 -11 147 -11 112.5 21.5 c 128,-1,21
 78 54 78 54 78 104 c 2,22,-1
 78 242 l 2,23,24
 78 331 78 331 144 381 c 0,25,26
 203 425 203 425 290 424 c 0,27,28
 383 424 383 424 430 373 c 1,29,-1
 430 441 l 2,30,31
 430 488 430 488 376 513 c 0,32,33
 334 533 334 533 281 532 c 0,34,35
 222 532 222 532 181 505 c 0,36,37
 134 475 134 475 125 424 c 1,38,-1
 35 424 l 1,39,40
 44 516 44 516 114 566 c 0,41,42
 180 613 180 613 284 612 c 0,43,44
 352 612 352 612 406 588 c 1,45,46
 438 617 438 617 438 660 c 1,47,-1
 543 660 l 1,48,49
 525 583 525 583 478 542 c 1,50,51
 523 494 523 494 523 430 c 2,52,-1
 523 0 l 1,0,-1
250 104 m 256,53,54
 250 125 250 125 235 140 c 128,-1,55
 220 155 220 155 199 155 c 256,56,57
 178 155 178 155 162.5 140 c 128,-1,58
 147 125 147 125 147 104 c 256,59,60
 147 83 147 83 162 68 c 128,-1,61
 177 53 177 53 199 53 c 256,62,63
 220 53 220 53 235 68 c 128,-1,64
 250 83 250 83 250 104 c 256,53,54
EndSplineSet
EndChar

StartChar: uni0E2B
Encoding: 3627 3627 256
Width: 658
VWidth: 1504
Flags: W
LayerCount: 2
Fore
SplineSet
582 0 m 1,0,-1
 489 0 l 1,1,-1
 489 334 l 2,2,3
 489 375 489 375 472 375 c 0,4,5
 460 375 460 375 438 337 c 2,6,-1
 242 0 l 1,7,-1
 155 0 l 1,8,-1
 155 387 l 1,9,10
 140 384 140 384 129 384 c 0,11,12
 81 384 81 384 48 417.5 c 128,-1,13
 15 451 15 451 15 499 c 0,14,15
 15 546 15 546 48 579 c 128,-1,16
 81 612 81 612 129 612 c 0,17,18
 180 612 180 612 214 577.5 c 128,-1,19
 248 543 248 543 248 490 c 2,20,-1
 248 266 l 2,21,22
 248 227 248 227 230 107 c 1,23,24
 245 172 245 172 275 226 c 2,25,-1
 358 369 l 2,26,27
 385 414 385 414 406 420 c 1,28,29
 376 458 376 458 376 498 c 0,30,31
 376 546 376 546 409 579 c 128,-1,32
 442 612 442 612 490 612 c 256,33,34
 538 612 538 612 571.5 579 c 128,-1,35
 605 546 605 546 605 498 c 0,36,37
 605 448 605 448 563 411 c 1,38,39
 583 373 583 373 582 329 c 2,40,-1
 582 0 l 1,0,-1
181 498 m 256,41,42
 181 519 181 519 165.5 534 c 128,-1,43
 150 549 150 549 129 549 c 256,44,45
 108 549 108 549 93 534 c 128,-1,46
 78 519 78 519 78 498 c 256,47,48
 78 477 78 477 93 462 c 128,-1,49
 108 447 108 447 129 447 c 256,50,51
 150 447 150 447 165.5 462 c 128,-1,52
 181 477 181 477 181 498 c 256,41,42
542 498 m 256,53,54
 542 519 542 519 526.5 534 c 128,-1,55
 511 549 511 549 490 549 c 256,56,57
 469 549 469 549 454 534 c 128,-1,58
 439 519 439 519 439 498 c 256,59,60
 439 477 439 477 454 462 c 128,-1,61
 469 447 469 447 490 447 c 256,62,63
 511 447 511 447 526.5 462 c 128,-1,64
 542 477 542 477 542 498 c 256,53,54
EndSplineSet
EndChar

StartChar: uni0E2C
Encoding: 3628 3628 257
Width: 703
VWidth: 1504
Flags: W
LayerCount: 2
Fore
SplineSet
627 0 m 1,0,-1
 532 0 l 1,1,-1
 391 268 l 1,2,-1
 251 0 l 1,3,-1
 155 0 l 1,4,-1
 155 387 l 1,5,6
 140 384 140 384 129 384 c 0,7,8
 81 384 81 384 48 417.5 c 128,-1,9
 15 451 15 451 15 499 c 0,10,11
 15 546 15 546 48 579 c 128,-1,12
 81 612 81 612 129 612 c 0,13,14
 180 612 180 612 214 577.5 c 128,-1,15
 248 543 248 543 248 490 c 2,16,-1
 248 250 l 2,17,18
 248 203 248 203 230 102 c 1,19,20
 244 138 244 138 263 174 c 1,21,-1
 358 332 l 1,22,-1
 424 332 l 1,23,-1
 519 174 l 1,24,25
 539 138 539 138 552 102 c 1,26,27
 534 203 534 203 534 250 c 2,28,-1
 534 387 l 1,29,30
 519 384 519 384 508 384 c 0,31,32
 460 384 460 384 427 417.5 c 128,-1,33
 394 451 394 451 394 499 c 0,34,35
 394 546 394 546 427 579 c 128,-1,36
 460 612 460 612 508 612 c 0,37,38
 543 612 543 612 569 596 c 1,39,40
 598 620 598 620 605 660 c 1,41,-1
 686 660 l 1,42,43
 675 583 675 583 615 545 c 1,44,45
 627 521 627 521 627 490 c 2,46,-1
 627 0 l 1,0,-1
560 498 m 256,47,48
 560 519 560 519 544.5 534 c 128,-1,49
 529 549 529 549 508 549 c 256,50,51
 487 549 487 549 472 534 c 128,-1,52
 457 519 457 519 457 498 c 256,53,54
 457 477 457 477 472 462 c 128,-1,55
 487 447 487 447 508 447 c 256,56,57
 529 447 529 447 544.5 462 c 128,-1,58
 560 477 560 477 560 498 c 256,47,48
181 498 m 256,59,60
 181 519 181 519 165.5 534 c 128,-1,61
 150 549 150 549 129 549 c 256,62,63
 108 549 108 549 93 534 c 128,-1,64
 78 519 78 519 78 498 c 256,65,66
 78 477 78 477 93 462 c 128,-1,67
 108 447 108 447 129 447 c 256,68,69
 150 447 150 447 165.5 462 c 128,-1,70
 181 477 181 477 181 498 c 256,59,60
EndSplineSet
Substitution2: "<23,16000>  in Thai lookup 75 nested-substitutions 0 subtable" uni0E2C.alt1
Substitution2: "Single Substitution lookup 56 subtable" uni0E2C.alt1
EndChar

StartChar: uni0E2D
Encoding: 3629 3629 258
Width: 592
VWidth: 1504
Flags: W
LayerCount: 2
Fore
SplineSet
516 135 m 2,0,1
 516 57 516 57 445 20 c 0,2,3
 388 -12 388 -12 298 -12 c 256,4,5
 208 -12 208 -12 152 20 c 0,6,7
 84 58 84 58 84 135 c 2,8,-1
 84 287 l 2,9,10
 84 341 84 341 114 378 c 128,-1,11
 144 415 144 415 200 415 c 0,12,13
 248 415 248 415 281 382.5 c 128,-1,14
 314 350 314 350 314 302 c 0,15,16
 314 255 314 255 281 222.5 c 128,-1,17
 248 190 248 190 200 190 c 0,18,19
 186 190 186 190 177 193 c 1,20,-1
 177 146 l 2,21,22
 177 68 177 68 299 68 c 0,23,24
 422 68 422 68 423 147 c 2,25,-1
 423 436 l 2,26,27
 423 486 423 486 376 511 c 0,28,29
 337 532 337 532 280 532 c 0,30,31
 137 532 137 532 125 459 c 1,32,-1
 35 459 l 1,33,34
 55 611 55 611 272 612 c 0,35,36
 373 612 373 612 438 575 c 1,37,38
 516 527 516 527 516 430 c 2,39,-1
 516 135 l 2,0,1
251 302 m 256,40,41
 251 323 251 323 236 338 c 128,-1,42
 221 353 221 353 200 353 c 256,43,44
 179 353 179 353 164 338 c 128,-1,45
 149 323 149 323 149 302 c 256,46,47
 149 281 149 281 164 266 c 128,-1,48
 179 251 179 251 200 251 c 256,49,50
 221 251 221 251 236 266 c 128,-1,51
 251 281 251 281 251 302 c 256,40,41
EndSplineSet
EndChar

StartChar: uni0E2E
Encoding: 3630 3630 259
Width: 579
VWidth: 1504
Flags: W
LayerCount: 2
Fore
SplineSet
390 505 m 1,0,1
 345 546 345 546 257 546 c 0,2,3
 137 546 137 546 137 508 c 0,4,5
 137 484 137 484 248 484 c 0,6,7
 339 484 339 484 390 505 c 1,0,1
502 135 m 2,8,9
 502 57 502 57 432 20 c 0,10,11
 375 -12 375 -12 284 -12 c 256,12,13
 194 -12 194 -12 138 20 c 0,14,15
 70 58 70 58 71 135 c 2,16,-1
 71 259 l 2,17,18
 71 313 71 313 101 350 c 128,-1,19
 131 387 131 387 187 387 c 0,20,21
 235 387 235 387 268 354.5 c 128,-1,22
 301 322 301 322 301 274 c 0,23,24
 301 227 301 227 268 194 c 128,-1,25
 235 161 235 161 187 161 c 0,26,27
 173 161 173 161 164 164 c 1,28,-1
 164 146 l 2,29,30
 164 68 164 68 286 68 c 0,31,32
 409 68 409 68 409 147 c 2,33,-1
 409 445 l 1,34,35
 340 422 340 422 241 423 c 0,36,37
 50 423 50 423 50 502 c 0,38,39
 50 613 50 613 271 614 c 0,40,41
 379 614 379 614 448 555 c 1,42,43
 460 578 460 578 468 614 c 1,44,-1
 558 614 l 1,45,46
 540 524 540 524 496 477 c 1,47,48
 502 457 502 457 502 426 c 2,49,-1
 502 135 l 2,8,9
238 274 m 256,50,51
 238 295 238 295 223 310 c 128,-1,52
 208 325 208 325 187 325 c 256,53,54
 166 325 166 325 150.5 310 c 128,-1,55
 135 295 135 295 135 274 c 256,56,57
 135 253 135 253 150 238 c 128,-1,58
 165 223 165 223 187 223 c 256,59,60
 208 223 208 223 223 238 c 128,-1,61
 238 253 238 253 238 274 c 256,50,51
EndSplineSet
EndChar

StartChar: uni0E2F
Encoding: 3631 3631 260
Width: 571
VWidth: 1504
Flags: W
LayerCount: 2
Fore
SplineSet
493 0 m 1,0,-1
 400 0 l 1,1,-1
 400 474 l 2,2,3
 400 528 400 528 384 531 c 1,4,5
 378 460 378 460 315.5 417.5 c 128,-1,6
 253 375 253 375 179 375 c 0,7,8
 120 375 120 375 81 405 c 0,9,10
 36 438 36 438 36 496 c 0,11,12
 36 544 36 544 69 578 c 128,-1,13
 102 612 102 612 150 612 c 256,14,15
 198 612 198 612 232 578.5 c 128,-1,16
 266 545 266 545 266 496 c 0,17,18
 266 488 266 488 263 474 c 1,19,20
 313 512 313 512 323 600 c 1,21,-1
 391 600 l 2,22,23
 493 600 493 600 493 492 c 2,24,-1
 493 0 l 1,0,-1
202 496 m 256,25,26
 202 517 202 517 186.5 532.5 c 128,-1,27
 171 548 171 548 150 548 c 256,28,29
 129 548 129 548 114 532.5 c 128,-1,30
 99 517 99 517 99 496 c 256,31,32
 99 475 99 475 114 460 c 128,-1,33
 129 445 129 445 150 445 c 256,34,35
 171 445 171 445 186.5 460 c 128,-1,36
 202 475 202 475 202 496 c 256,25,26
EndSplineSet
EndChar

StartChar: uni0E30
Encoding: 3632 3632 261
Width: 511
VWidth: 1504
Flags: W
LayerCount: 2
Fore
SplineSet
454 597 m 1,0,1
 446 358 446 358 230 358 c 0,2,3
 140 358 140 358 92 395 c 128,-1,4
 44 432 44 432 44 489 c 0,5,6
 44 533 44 533 74 563 c 128,-1,7
 104 593 104 593 147 593 c 0,8,9
 194 593 194 593 223.5 562 c 128,-1,10
 253 531 253 531 253 489 c 0,11,12
 253 448 253 448 230 429 c 1,13,14
 370 435 370 435 370 597 c 1,15,-1
 454 597 l 1,0,1
193 489 m 256,16,17
 193 509 193 509 179 522 c 128,-1,18
 165 535 165 535 146 535 c 256,19,20
 126 535 126 535 113.5 521.5 c 128,-1,21
 101 508 101 508 101 489 c 256,22,23
 101 469 101 469 113.5 456.5 c 128,-1,24
 126 444 126 444 146 444 c 256,25,26
 166 444 166 444 179.5 456.5 c 128,-1,27
 193 469 193 469 193 489 c 256,16,17
454 256 m 1,28,29
 446 17 446 17 230 17 c 0,30,31
 140 17 140 17 92 53.5 c 128,-1,32
 44 90 44 90 44 147 c 0,33,34
 44 191 44 191 74 221 c 128,-1,35
 104 251 104 251 147 251 c 0,36,37
 194 251 194 251 223.5 220.5 c 128,-1,38
 253 190 253 190 253 147 c 0,39,40
 253 106 253 106 230 87 c 1,41,42
 370 93 370 93 370 256 c 1,43,-1
 454 256 l 1,28,29
193 147 m 256,44,45
 193 167 193 167 179 180.5 c 128,-1,46
 165 194 165 194 146 194 c 256,47,48
 126 194 126 194 113.5 180.5 c 128,-1,49
 101 167 101 167 101 147 c 256,50,51
 101 127 101 127 113.5 114.5 c 128,-1,52
 126 102 126 102 146 102 c 256,53,54
 166 102 166 102 179.5 114.5 c 128,-1,55
 193 127 193 127 193 147 c 256,44,45
EndSplineSet
EndChar

StartChar: uni0E31
Encoding: 3633 3633 262
Width: 0
VWidth: 1504
Flags: W
LayerCount: 2
Fore
SplineSet
75 967 m 1,0,1
 36 717 36 717 -196 718 c 0,2,3
 -286 718 -286 718 -334 754.5 c 128,-1,4
 -382 791 -382 791 -382 848 c 0,5,6
 -382 892 -382 892 -352 922 c 128,-1,7
 -322 952 -322 952 -278 952 c 0,8,9
 -231 952 -231 952 -202 921 c 128,-1,10
 -173 890 -173 890 -173 848 c 0,11,12
 -173 807 -173 807 -196 788 c 1,13,14
 -40 794 -40 794 -14 967 c 1,15,-1
 75 967 l 1,0,1
-233 848 m 256,16,17
 -233 868 -233 868 -246.5 881.5 c 128,-1,18
 -260 895 -260 895 -280 895 c 256,19,20
 -300 895 -300 895 -312.5 881.5 c 128,-1,21
 -325 868 -325 868 -325 848 c 256,22,23
 -325 828 -325 828 -312 815.5 c 128,-1,24
 -299 803 -299 803 -280 803 c 256,25,26
 -260 803 -260 803 -246.5 815.5 c 128,-1,27
 -233 828 -233 828 -233 848 c 256,16,17
EndSplineSet
Substitution2: "<23,16000>  in Thai lookup 63 nested-substitutions 2 subtable" uni0E31.alt1
Substitution2: "Single Substitution lookup 56 subtable" uni0E31.alt1
EndChar

StartChar: uni0E32
Encoding: 3634 3634 263
Width: 505
VWidth: 1504
Flags: W
LayerCount: 2
Fore
SplineSet
429 0 m 1,0,-1
 335 0 l 1,1,-1
 335 438 l 2,2,3
 335 480 335 480 306.5 506 c 128,-1,4
 278 532 278 532 229 532 c 256,5,6
 179 532 179 532 147.5 499 c 128,-1,7
 116 466 116 466 114 415 c 1,8,-1
 24 415 l 1,9,10
 29 505 29 505 83.5 558.5 c 128,-1,11
 138 612 138 612 229 612 c 0,12,13
 313 612 313 612 371 569 c 128,-1,14
 429 526 429 526 429 439 c 2,15,-1
 429 0 l 1,0,-1
EndSplineSet
Substitution2: "<23,16000>  in Thai lookup 63 nested-substitutions 8 subtable" uni0E45
EndChar

StartChar: uni0E33
Encoding: 3635 3635 264
Width: 505
VWidth: 1504
Flags: W
LayerCount: 2
Fore
SplineSet
-17 826 m 0,0,1
 -17 773 -17 773 -53.5 736 c 128,-1,2
 -90 699 -90 699 -143 699 c 0,3,4
 -197 699 -197 699 -234 736 c 128,-1,5
 -271 773 -271 773 -271 826 c 256,6,7
 -271 879 -271 879 -233.5 916.5 c 128,-1,8
 -196 954 -196 954 -143 954 c 256,9,10
 -90 954 -90 954 -53.5 917 c 128,-1,11
 -17 880 -17 880 -17 826 c 0,0,1
-83 826 m 256,12,13
 -83 852 -83 852 -100 869.5 c 128,-1,14
 -117 887 -117 887 -143 887 c 256,15,16
 -169 887 -169 887 -187 869 c 128,-1,17
 -205 851 -205 851 -205 826 c 256,18,19
 -205 800 -205 800 -186.5 783 c 128,-1,20
 -168 766 -168 766 -143 766 c 256,21,22
 -117 766 -117 766 -100 783 c 128,-1,23
 -83 800 -83 800 -83 826 c 256,12,13
429 0 m 1,24,-1
 335 0 l 1,25,-1
 335 438 l 2,26,27
 335 480 335 480 306.5 506 c 128,-1,28
 278 532 278 532 229 532 c 256,29,30
 179 532 179 532 147.5 499 c 128,-1,31
 116 466 116 466 114 415 c 1,32,-1
 24 415 l 1,33,34
 29 505 29 505 83.5 558.5 c 128,-1,35
 138 612 138 612 229 612 c 0,36,37
 313 612 313 612 371 569 c 128,-1,38
 429 526 429 526 429 439 c 2,39,-1
 429 0 l 1,24,-1
EndSplineSet
Substitution2: "<23,16000>  in Thai lookup 63 nested-substitutions 2 subtable" uni0E33.alt1
Substitution2: "Single Substitution lookup 56 subtable" uni0E33.alt1
EndChar

StartChar: uni0E34
Encoding: 3636 3636 265
Width: 0
VWidth: 1504
Flags: W
LayerCount: 2
Fore
SplineSet
-74 677 m 1,0,1
 -261 737 -261 737 -415 737 c 0,2,3
 -486 737 -486 737 -558 728 c 1,4,5
 -540 930 -540 930 -338 930 c 0,6,7
 -222 930 -222 930 -155 860 c 128,-1,8
 -88 790 -88 790 -74 677 c 1,0,1
-170 766 m 1,9,10
 -179 804 -179 804 -224 836.5 c 128,-1,11
 -269 869 -269 869 -326 869 c 0,12,13
 -380 869 -380 869 -419.5 847.5 c 128,-1,14
 -459 826 -459 826 -469 790 c 1,15,16
 -443 796 -443 796 -390 796 c 0,17,18
 -278 796 -278 796 -170 766 c 1,9,10
EndSplineSet
Substitution2: "<23,16000>  in Thai lookup 63 nested-substitutions 2 subtable" uni0E34.alt1
Substitution2: "Single Substitution lookup 56 subtable" uni0E34.alt1
EndChar

StartChar: uni0E35
Encoding: 3637 3637 266
Width: 0
VWidth: 1504
Flags: W
LayerCount: 2
Fore
SplineSet
-74 677 m 1,0,1
 -261 737 -261 737 -415 737 c 0,2,3
 -486 737 -486 737 -558 728 c 1,4,5
 -540 930 -540 930 -338 930 c 0,6,7
 -231 930 -231 930 -167 871 c 1,8,-1
 -167 975 l 1,9,-1
 -77 975 l 1,10,-1
 -77 698 l 1,11,12
 -76 688 -76 688 -74 677 c 1,0,1
-170 766 m 1,13,14
 -179 804 -179 804 -224 836.5 c 128,-1,15
 -269 869 -269 869 -326 869 c 0,16,17
 -380 869 -380 869 -419.5 847.5 c 128,-1,18
 -459 826 -459 826 -469 790 c 1,19,20
 -443 796 -443 796 -390 796 c 0,21,22
 -278 796 -278 796 -170 766 c 1,13,14
EndSplineSet
Substitution2: "<23,16000>  in Thai lookup 63 nested-substitutions 2 subtable" uni0E35.alt1
Substitution2: "Single Substitution lookup 56 subtable" uni0E35.alt1
EndChar

StartChar: uni0E36
Encoding: 3638 3638 267
Width: 0
VWidth: 1504
Flags: W
LayerCount: 2
Fore
SplineSet
-170 766 m 1,0,1
 -179 804 -179 804 -224 836.5 c 128,-1,2
 -269 869 -269 869 -326 869 c 0,3,4
 -380 869 -380 869 -419.5 847.5 c 128,-1,5
 -459 826 -459 826 -469 790 c 1,6,7
 -443 796 -443 796 -390 796 c 0,8,9
 -278 796 -278 796 -170 766 c 1,0,1
-104 900 m 256,10,11
 -104 918 -104 918 -116.5 930.5 c 128,-1,12
 -129 943 -129 943 -146 943 c 256,13,14
 -163 943 -163 943 -176.5 930.5 c 128,-1,15
 -190 918 -190 918 -190 900 c 256,16,17
 -190 882 -190 882 -176 869.5 c 128,-1,18
 -162 857 -162 857 -146 857 c 256,19,20
 -129 857 -129 857 -116.5 869.5 c 128,-1,21
 -104 882 -104 882 -104 900 c 256,10,11
-57 900 m 0,22,23
 -57 870 -57 870 -74.5 845.5 c 128,-1,24
 -92 821 -92 821 -119 814 c 1,25,26
 -83 755 -83 755 -74 677 c 1,27,28
 -261 737 -261 737 -415 737 c 0,29,30
 -486 737 -486 737 -558 728 c 1,31,32
 -540 930 -540 930 -338 930 c 0,33,34
 -279 930 -279 930 -233 912 c 1,35,36
 -228 945 -228 945 -204.5 967.5 c 128,-1,37
 -181 990 -181 990 -146 990 c 0,38,39
 -108 990 -108 990 -82.5 964 c 128,-1,40
 -57 938 -57 938 -57 900 c 0,22,23
EndSplineSet
Substitution2: "<23,16000>  in Thai lookup 63 nested-substitutions 2 subtable" uni0E36.alt1
Substitution2: "Single Substitution lookup 56 subtable" uni0E36.alt1
EndChar

StartChar: uni0E37
Encoding: 3639 3639 268
Width: 0
VWidth: 1504
Flags: W
LayerCount: 2
Fore
SplineSet
-74 677 m 1,0,1
 -261 737 -261 737 -415 737 c 0,2,3
 -486 737 -486 737 -558 728 c 1,4,5
 -540 930 -540 930 -338 930 c 0,6,7
 -315 930 -315 930 -296 927 c 1,8,-1
 -296 975 l 1,9,-1
 -229 975 l 1,10,-1
 -229 912 l 1,11,12
 -196 898 -196 898 -167 871 c 1,13,-1
 -167 975 l 1,14,-1
 -77 975 l 1,15,-1
 -77 698 l 1,16,-1
 -74 677 l 1,0,1
-170 766 m 1,17,18
 -179 804 -179 804 -224 836.5 c 128,-1,19
 -269 869 -269 869 -326 869 c 0,20,21
 -380 869 -380 869 -419.5 847.5 c 128,-1,22
 -459 826 -459 826 -469 790 c 1,23,24
 -443 796 -443 796 -390 796 c 0,25,26
 -278 796 -278 796 -170 766 c 1,17,18
EndSplineSet
Substitution2: "<23,16000>  in Thai lookup 63 nested-substitutions 2 subtable" uni0E37.alt1
Substitution2: "Single Substitution lookup 56 subtable" uni0E37.alt1
EndChar

StartChar: uni0E38
Encoding: 3640 3640 269
Width: 0
VWidth: 1504
Flags: W
LayerCount: 2
Fore
SplineSet
-77 -353 m 1,0,-1
 -167 -353 l 1,1,-1
 -167 -239 l 1,2,-1
 -173 -239 l 2,3,4
 -211 -239 -211 -239 -237 -213 c 128,-1,5
 -263 -187 -263 -187 -263 -150 c 0,6,7
 -263 -112 -263 -112 -237 -85.5 c 128,-1,8
 -211 -59 -211 -59 -171 -59 c 0,9,10
 -133 -59 -133 -59 -105 -83 c 128,-1,11
 -77 -107 -77 -107 -77 -149 c 2,12,-1
 -77 -353 l 1,0,-1
-129 -146 m 256,13,14
 -129 -129 -129 -129 -141 -117 c 128,-1,15
 -153 -105 -153 -105 -170 -105 c 256,16,17
 -187 -105 -187 -105 -199.5 -117 c 128,-1,18
 -212 -129 -212 -129 -212 -146 c 256,19,20
 -212 -163 -212 -163 -199.5 -175.5 c 128,-1,21
 -187 -188 -187 -188 -170 -188 c 256,22,23
 -153 -188 -153 -188 -141 -175.5 c 128,-1,24
 -129 -163 -129 -163 -129 -146 c 256,13,14
EndSplineSet
Substitution2: "<23,16000>  in Thai lookup 63 nested-substitutions 6 subtable" uni0E38.alt1
Substitution2: "Single Substitution lookup 57 subtable" a
Substitution2: "Single Substitution lookup 56 subtable" uni0E38.alt1
EndChar

StartChar: uni0E39
Encoding: 3641 3641 270
Width: 0
VWidth: 1504
Flags: W
LayerCount: 2
Fore
SplineSet
-77 -274 m 2,0,1
 -77 -324 -77 -324 -119 -349 c 0,2,3
 -155 -372 -155 -372 -214 -372 c 0,4,5
 -265 -372 -265 -372 -302 -350 c 0,6,7
 -344 -326 -344 -326 -344 -284 c 2,8,-1
 -344 -239 l 1,9,-1
 -353 -239 l 2,10,11
 -391 -239 -391 -239 -417.5 -213 c 128,-1,12
 -444 -187 -444 -187 -444 -150 c 0,13,14
 -444 -112 -444 -112 -417.5 -85.5 c 128,-1,15
 -391 -59 -391 -59 -352 -59 c 0,16,17
 -314 -59 -314 -59 -285.5 -83 c 128,-1,18
 -257 -107 -257 -107 -257 -149 c 2,19,-1
 -257 -284 l 2,20,21
 -257 -307 -257 -307 -212 -307 c 0,22,23
 -164 -307 -164 -307 -164 -284 c 2,24,-1
 -164 -72 l 1,25,-1
 -77 -72 l 1,26,-1
 -77 -274 l 2,0,1
-310 -146 m 256,27,28
 -310 -129 -310 -129 -322 -117 c 128,-1,29
 -334 -105 -334 -105 -350 -105 c 256,30,31
 -367 -105 -367 -105 -380 -117 c 128,-1,32
 -393 -129 -393 -129 -393 -146 c 256,33,34
 -393 -163 -393 -163 -380 -175.5 c 128,-1,35
 -367 -188 -367 -188 -350 -188 c 256,36,37
 -333 -188 -333 -188 -321.5 -175.5 c 128,-1,38
 -310 -163 -310 -163 -310 -146 c 256,27,28
EndSplineSet
Substitution2: "<23,16000>  in Thai lookup 63 nested-substitutions 6 subtable" uni0E39.alt1
Substitution2: "Single Substitution lookup 57 subtable" b
Substitution2: "Single Substitution lookup 56 subtable" uni0E39.alt1
EndChar

StartChar: uni0E3A
Encoding: 3642 3642 271
Width: 0
VWidth: 1504
Flags: W
LayerCount: 2
Fore
SplineSet
-56 -114 m 256,0,1
 -56 -135 -56 -135 -71.5 -151 c 128,-1,2
 -87 -167 -87 -167 -108 -167 c 256,3,4
 -129 -167 -129 -167 -145 -151 c 128,-1,5
 -161 -135 -161 -135 -161 -114 c 256,6,7
 -161 -93 -161 -93 -145 -77.5 c 128,-1,8
 -129 -62 -129 -62 -108 -62 c 256,9,10
 -87 -62 -87 -62 -71.5 -77.5 c 128,-1,11
 -56 -93 -56 -93 -56 -114 c 256,0,1
EndSplineSet
Substitution2: "<23,16000>  in Thai lookup 63 nested-substitutions 6 subtable" uni0E3A.alt1
Substitution2: "Single Substitution lookup 57 subtable" c
Substitution2: "Single Substitution lookup 56 subtable" uni0E3A.alt1
EndChar

StartChar: uni0E3F
Encoding: 3647 3647 272
Width: 585
VWidth: 1504
Flags: W
LayerCount: 2
Fore
SplineSet
504 227 m 0,0,1
 504 66 504 66 319 38 c 1,2,-1
 319 -84 l 1,3,-1
 236 -84 l 1,4,-1
 236 32 l 1,5,6
 183 32 183 32 96 47 c 1,7,-1
 96 665 l 1,8,9
 183 685 183 685 236 686 c 1,10,-1
 236 785 l 1,11,-1
 319 785 l 1,12,-1
 319 681 l 1,13,14
 480 655 480 655 480 514 c 0,15,16
 480 431 480 431 409 379 c 1,17,18
 504 323 504 323 504 227 c 0,0,1
418 226 m 0,19,20
 418 336 418 336 253 335 c 2,21,-1
 185 335 l 1,22,-1
 185 116 l 1,23,24
 211 111 211 111 242 111 c 0,25,26
 313 111 313 111 361 137 c 0,27,28
 418 167 418 167 418 226 c 0,19,20
391 513 m 0,29,30
 391 606 391 606 244 606 c 0,31,32
 235 606 235 606 185 599 c 1,33,-1
 185 418 l 1,34,-1
 268 418 l 2,35,36
 325 418 325 418 358 445 c 128,-1,37
 391 472 391 472 391 513 c 0,29,30
EndSplineSet
EndChar

StartChar: uni0E40
Encoding: 3648 3648 273
Width: 312
VWidth: 1504
Flags: W
LayerCount: 2
Fore
SplineSet
307 102 m 256,0,1
 307 54 307 54 273 21 c 128,-1,2
 239 -12 239 -12 193 -12 c 0,3,4
 142 -12 142 -12 107 22.5 c 128,-1,5
 72 57 72 57 72 110 c 2,6,-1
 72 600 l 1,7,-1
 165 600 l 1,8,-1
 165 214 l 1,9,10
 173 217 173 217 193 217 c 0,11,12
 240 217 240 217 273.5 183.5 c 128,-1,13
 307 150 307 150 307 102 c 256,0,1
244 102 m 256,14,15
 244 123 244 123 229 138 c 128,-1,16
 214 153 214 153 193 153 c 256,17,18
 172 153 172 153 156.5 138 c 128,-1,19
 141 123 141 123 141 102 c 256,20,21
 141 81 141 81 156 66 c 128,-1,22
 171 51 171 51 193 51 c 256,23,24
 214 51 214 51 229 66 c 128,-1,25
 244 81 244 81 244 102 c 256,14,15
EndSplineSet
EndChar

StartChar: uni0E41
Encoding: 3649 3649 274
Width: 594
VWidth: 1504
Flags: W
LayerCount: 2
Fore
SplineSet
307 102 m 256,0,1
 307 54 307 54 273 21 c 128,-1,2
 239 -12 239 -12 193 -12 c 0,3,4
 142 -12 142 -12 107 22.5 c 128,-1,5
 72 57 72 57 72 110 c 2,6,-1
 72 600 l 1,7,-1
 165 600 l 1,8,-1
 165 214 l 1,9,10
 173 217 173 217 193 217 c 0,11,12
 240 217 240 217 273.5 183.5 c 128,-1,13
 307 150 307 150 307 102 c 256,0,1
588 102 m 256,14,15
 588 54 588 54 554 21 c 128,-1,16
 520 -12 520 -12 474 -12 c 0,17,18
 423 -12 423 -12 388 22.5 c 128,-1,19
 353 57 353 57 353 110 c 2,20,-1
 353 600 l 1,21,-1
 447 600 l 1,22,-1
 447 214 l 1,23,24
 455 217 455 217 474 217 c 0,25,26
 521 217 521 217 554.5 183.5 c 128,-1,27
 588 150 588 150 588 102 c 256,14,15
244 102 m 256,28,29
 244 123 244 123 229 138 c 128,-1,30
 214 153 214 153 193 153 c 256,31,32
 172 153 172 153 156.5 138 c 128,-1,33
 141 123 141 123 141 102 c 256,34,35
 141 81 141 81 156 66 c 128,-1,36
 171 51 171 51 193 51 c 256,37,38
 214 51 214 51 229 66 c 128,-1,39
 244 81 244 81 244 102 c 256,28,29
525 102 m 256,40,41
 525 123 525 123 510 138 c 128,-1,42
 495 153 495 153 474 153 c 256,43,44
 453 153 453 153 438 138 c 128,-1,45
 423 123 423 123 423 102 c 256,46,47
 423 81 423 81 438 66 c 128,-1,48
 453 51 453 51 474 51 c 256,49,50
 495 51 495 51 510 66 c 128,-1,51
 525 81 525 81 525 102 c 256,40,41
EndSplineSet
EndChar

StartChar: uni0E42
Encoding: 3650 3650 275
Width: 379
VWidth: 1504
Flags: W
LayerCount: 2
Fore
SplineSet
373 102 m 256,0,1
 373 54 373 54 339 21 c 128,-1,2
 305 -12 305 -12 259 -12 c 0,3,4
 208 -12 208 -12 173 22.5 c 128,-1,5
 138 57 138 57 138 110 c 2,6,-1
 138 707 l 1,7,8
 130 758 130 758 63 790 c 0,9,10
 7 816 7 816 -50 815 c 1,11,12
 -42 986 -42 986 104 987 c 0,13,14
 143 987 143 987 192 962 c 128,-1,15
 241 937 241 937 260 937 c 0,16,17
 277 937 277 937 293 982 c 1,18,-1
 363 964 l 1,19,20
 334 862 334 862 272 862 c 0,21,22
 243 862 243 862 190.5 887 c 128,-1,23
 138 912 138 912 104 912 c 0,24,25
 51 912 51 912 35 874 c 1,26,27
 232 823 232 823 232 699 c 2,28,-1
 232 214 l 1,29,30
 240 217 240 217 259 217 c 0,31,32
 306 217 306 217 339.5 183.5 c 128,-1,33
 373 150 373 150 373 102 c 256,0,1
310 102 m 256,34,35
 310 123 310 123 295 138 c 128,-1,36
 280 153 280 153 259 153 c 256,37,38
 238 153 238 153 223 138 c 128,-1,39
 208 123 208 123 208 102 c 256,40,41
 208 81 208 81 223 66 c 128,-1,42
 238 51 238 51 259 51 c 256,43,44
 280 51 280 51 295 66 c 128,-1,45
 310 81 310 81 310 102 c 256,34,35
EndSplineSet
EndChar

StartChar: uni0E43
Encoding: 3651 3651 276
Width: 404
VWidth: 1504
Flags: W
LayerCount: 2
Fore
SplineSet
399 102 m 256,0,1
 399 54 399 54 365 21 c 128,-1,2
 331 -12 331 -12 284 -12 c 0,3,4
 233 -12 233 -12 198.5 22.5 c 128,-1,5
 164 57 164 57 164 110 c 2,6,-1
 164 677 l 2,7,8
 164 712 164 712 190.5 768 c 128,-1,9
 217 824 217 824 217 853 c 0,10,11
 217 886 217 886 193.5 905.5 c 128,-1,12
 170 925 170 925 137 925 c 0,13,14
 86 925 86 925 62 907 c 1,15,16
 100 907 100 907 125 878 c 0,17,18
 146 852 146 852 146 818 c 0,19,20
 146 777 146 777 117.5 748 c 128,-1,21
 89 719 89 719 47 719 c 0,22,23
 3 719 3 719 -24 750.5 c 128,-1,24
 -51 782 -51 782 -51 824 c 0,25,26
 -51 905 -51 905 3 951 c 0,27,28
 53 992 53 992 134 991 c 0,29,30
 200 991 200 991 250 957 c 0,31,32
 306 918 306 918 305 856 c 0,33,34
 305 821 305 821 281 758.5 c 128,-1,35
 257 696 257 696 257 665 c 2,36,-1
 257 214 l 1,37,38
 265 217 265 217 284 217 c 0,39,40
 331 217 331 217 365 183.5 c 128,-1,41
 399 150 399 150 399 102 c 256,0,1
335 102 m 256,42,43
 335 123 335 123 320 138 c 128,-1,44
 305 153 305 153 284 153 c 256,45,46
 263 153 263 153 248 138 c 128,-1,47
 233 123 233 123 233 102 c 256,48,49
 233 81 233 81 248 66 c 128,-1,50
 263 51 263 51 284 51 c 256,51,52
 305 51 305 51 320 66 c 128,-1,53
 335 81 335 81 335 102 c 256,42,43
93 817 m 256,54,55
 93 837 93 837 79.5 850 c 128,-1,56
 66 863 66 863 47 863 c 256,57,58
 27 863 27 863 13.5 849.5 c 128,-1,59
 0 836 0 836 0 817 c 256,60,61
 0 797 0 797 13.5 783.5 c 128,-1,62
 27 770 27 770 47 770 c 256,63,64
 67 770 67 770 80 783.5 c 128,-1,65
 93 797 93 797 93 817 c 256,54,55
EndSplineSet
EndChar

StartChar: uni0E44
Encoding: 3652 3652 277
Width: 379
VWidth: 1504
Flags: W
LayerCount: 2
Fore
SplineSet
373 102 m 256,0,1
 373 54 373 54 339 21 c 128,-1,2
 305 -12 305 -12 259 -12 c 0,3,4
 208 -12 208 -12 173 22.5 c 128,-1,5
 138 57 138 57 138 110 c 2,6,-1
 138 853 l 1,7,-1
 48 721 l 1,8,-1
 -12 739 l 1,9,10
 -18 880 -18 880 -54 1002 c 1,11,-1
 27 1002 l 1,12,13
 45 883 45 883 47 823 c 1,14,-1
 153 990 l 1,15,16
 183 985 183 985 207.5 961 c 128,-1,17
 232 937 232 937 232 904 c 2,18,-1
 232 214 l 1,19,20
 240 217 240 217 259 217 c 0,21,22
 306 217 306 217 339.5 183.5 c 128,-1,23
 373 150 373 150 373 102 c 256,0,1
310 102 m 256,24,25
 310 123 310 123 295 138 c 128,-1,26
 280 153 280 153 259 153 c 256,27,28
 238 153 238 153 223 138 c 128,-1,29
 208 123 208 123 208 102 c 256,30,31
 208 81 208 81 223 66 c 128,-1,32
 238 51 238 51 259 51 c 256,33,34
 280 51 280 51 295 66 c 128,-1,35
 310 81 310 81 310 102 c 256,24,25
EndSplineSet
EndChar

StartChar: uni0E45
Encoding: 3653 3653 278
Width: 314
VWidth: 1504
Flags: W
LayerCount: 2
Fore
SplineSet
238 -211 m 1,0,-1
 144 -211 l 1,1,-1
 144 438 l 2,2,3
 144 480 144 480 115.5 506 c 128,-1,4
 87 532 87 532 38 532 c 256,5,6
 -12 532 -12 532 -43.5 499 c 128,-1,7
 -75 466 -75 466 -77 415 c 1,8,-1
 -167 415 l 1,9,10
 -162 505 -162 505 -107.5 558.5 c 128,-1,11
 -53 612 -53 612 38 612 c 0,12,13
 122 612 122 612 180 569 c 128,-1,14
 238 526 238 526 238 439 c 2,15,-1
 238 -211 l 1,0,-1
EndSplineSet
EndChar

StartChar: uni0E46
Encoding: 3654 3654 279
Width: 657
VWidth: 1504
Flags: W
LayerCount: 2
Fore
SplineSet
573 -211 m 1,0,-1
 480 -211 l 1,1,-1
 480 435 l 2,2,3
 480 497 480 497 421 534 c 1,4,-1
 352 480 l 1,5,-1
 263 535 l 1,6,7
 237 518 237 518 227 489 c 1,8,-1
 238 489 l 2,9,10
 286 489 286 489 319.5 455 c 128,-1,11
 353 421 353 421 353 373 c 256,12,13
 353 325 353 325 319.5 291 c 128,-1,14
 286 257 286 257 238 257 c 0,15,16
 178 257 178 257 143 303.5 c 128,-1,17
 108 350 108 350 108 412 c 0,18,19
 108 487 108 487 155.5 545 c 128,-1,20
 203 603 203 603 277 621 c 1,21,-1
 349 564 l 1,22,-1
 414 621 l 1,23,24
 486 603 486 603 529.5 554 c 128,-1,25
 573 505 573 505 573 436 c 2,26,-1
 573 -211 l 1,0,-1
290 373 m 256,27,28
 290 396 290 396 273.5 412.5 c 128,-1,29
 257 429 257 429 235 429 c 256,30,31
 212 429 212 429 195.5 412.5 c 128,-1,32
 179 396 179 396 179 373 c 256,33,34
 179 350 179 350 195.5 333.5 c 128,-1,35
 212 317 212 317 235 317 c 256,36,37
 258 317 258 317 274 333.5 c 128,-1,38
 290 350 290 350 290 373 c 256,27,28
EndSplineSet
EndChar

StartChar: uni0E47
Encoding: 3655 3655 280
Width: 0
VWidth: 1504
Flags: W
LayerCount: 2
Fore
SplineSet
-95 784 m 256,0,1
 -95 752 -95 752 -117.5 728.5 c 128,-1,2
 -140 705 -140 705 -173 705 c 0,3,4
 -247 705 -247 705 -341 769 c 1,5,6
 -361 763 -361 763 -384.5 739.5 c 128,-1,7
 -408 716 -408 716 -411 698 c 1,8,9
 -491 751 -491 751 -490 826 c 0,10,11
 -490 885 -490 885 -444 918 c 0,12,13
 -403 948 -403 948 -338 948 c 2,14,-1
 -236 948 l 2,15,16
 -162 948 -162 948 -162 1014 c 2,17,-1
 -162 1048 l 1,18,-1
 -90 1048 l 1,19,-1
 -90 1015 l 2,20,21
 -90 953 -90 953 -130.5 920 c 128,-1,22
 -171 887 -171 887 -235 887 c 2,23,-1
 -344 887 l 2,24,25
 -368 887 -368 887 -388 871.5 c 128,-1,26
 -408 856 -408 856 -408 830 c 0,27,28
 -408 806 -408 806 -399 791 c 1,29,30
 -376 826 -376 826 -331 829 c 1,31,32
 -296 806 -296 806 -248 790 c 1,33,34
 -248 820 -248 820 -225 841 c 128,-1,35
 -202 862 -202 862 -173 862 c 0,36,37
 -140 862 -140 862 -117.5 839 c 128,-1,38
 -95 816 -95 816 -95 784 c 256,0,1
-140 784 m 256,39,40
 -140 798 -140 798 -149.5 807.5 c 128,-1,41
 -159 817 -159 817 -173 817 c 256,42,43
 -187 817 -187 817 -196.5 807 c 128,-1,44
 -206 797 -206 797 -206 784 c 256,45,46
 -206 770 -206 770 -196.5 760.5 c 128,-1,47
 -187 751 -187 751 -173 751 c 256,48,49
 -159 751 -159 751 -149.5 760.5 c 128,-1,50
 -140 770 -140 770 -140 784 c 256,39,40
EndSplineSet
Substitution2: "<23,16000>  in Thai lookup 63 nested-substitutions 2 subtable" uni0E47.alt1
Substitution2: "Single Substitution lookup 56 subtable" uni0E47.alt1
EndChar

StartChar: uni0E48
Encoding: 3656 3656 281
Width: 0
VWidth: 1504
Flags: W
LayerCount: 2
Fore
SplineSet
-77 1018 m 1,0,-1
 -167 1018 l 1,1,-1
 -167 1190 l 1,2,-1
 -77 1190 l 1,3,-1
 -77 1018 l 1,0,-1
EndSplineSet
Substitution2: "<23,16000>  in Thai lookup 63 nested-substitutions 5 subtable" uni0E48.alt3
Substitution2: "<23,16000>  in Thai lookup 63 nested-substitutions 3 subtable" uni0E48.alt1
Substitution2: "<23,16000>  in Thai lookup 63 nested-substitutions 2 subtable" uni0E48.alt3
Substitution2: "<23,16000>  in Thai lookup 63 nested-substitutions 0 subtable" uni0E48.alt2
Substitution2: "Single Substitution lookup 56 subtable" uni0E48.alt2
EndChar

StartChar: uni0E49
Encoding: 3657 3657 282
Width: 0
VWidth: 1504
Flags: W
LayerCount: 2
Fore
SplineSet
33 1256 m 1,0,1
 6 1113 6 1113 -67 1058 c 128,-1,2
 -140 1003 -140 1003 -280 1003 c 2,3,-1
 -322 1003 l 1,4,-1
 -322 1053 l 1,5,6
 -262 1058 -262 1058 -248 1097 c 1,7,8
 -325 1117 -325 1117 -325 1185 c 0,9,10
 -325 1221 -325 1221 -299.5 1245.5 c 128,-1,11
 -274 1270 -274 1270 -238 1270 c 0,12,13
 -197 1270 -197 1270 -173.5 1245 c 128,-1,14
 -150 1220 -150 1220 -150 1181 c 0,15,16
 -150 1122 -150 1122 -217 1056 c 1,17,18
 -143 1071 -143 1071 -96.5 1126 c 128,-1,19
 -50 1181 -50 1181 -45 1256 c 1,20,-1
 33 1256 l 1,0,1
-200 1182 m 256,21,22
 -200 1199 -200 1199 -211.5 1210 c 128,-1,23
 -223 1221 -223 1221 -239 1221 c 256,24,25
 -256 1221 -256 1221 -267 1210 c 128,-1,26
 -278 1199 -278 1199 -278 1182 c 256,27,28
 -278 1165 -278 1165 -267 1154 c 128,-1,29
 -256 1143 -256 1143 -239 1143 c 256,30,31
 -222 1143 -222 1143 -211 1154 c 128,-1,32
 -200 1165 -200 1165 -200 1182 c 256,21,22
EndSplineSet
Substitution2: "<23,16000>  in Thai lookup 63 nested-substitutions 5 subtable" uni0E49.alt3
Substitution2: "<23,16000>  in Thai lookup 63 nested-substitutions 3 subtable" uni0E49.alt1
Substitution2: "<23,16000>  in Thai lookup 63 nested-substitutions 2 subtable" uni0E49.alt3
Substitution2: "<23,16000>  in Thai lookup 63 nested-substitutions 0 subtable" uni0E49.alt2
Substitution2: "Single Substitution lookup 56 subtable" uni0E49.alt2
EndChar

StartChar: uni0E4A
Encoding: 3658 3658 283
Width: 0
VWidth: 1504
Flags: W
LayerCount: 2
Fore
SplineSet
54 1247 m 1,0,1
 48 1011 48 1011 -174 1011 c 1,2,-1
 -174 1054 l 1,3,4
 -115 1083 -115 1083 -116 1145 c 0,5,6
 -116 1189 -116 1189 -159 1200 c 1,7,-1
 -206 1152 l 1,8,-1
 -254 1203 l 1,9,10
 -280 1197 -280 1197 -299 1170 c 1,11,12
 -263 1170 -263 1170 -238.5 1146 c 128,-1,13
 -214 1122 -214 1122 -214 1086 c 0,14,15
 -214 1053 -214 1053 -238 1029 c 128,-1,16
 -262 1005 -262 1005 -296 1005 c 0,17,18
 -332 1005 -332 1005 -356.5 1028 c 128,-1,19
 -381 1051 -381 1051 -381 1092 c 0,20,21
 -381 1119 -381 1119 -372 1146 c 128,-1,22
 -363 1173 -363 1173 -345.5 1197 c 128,-1,23
 -328 1221 -328 1221 -301.5 1237 c 128,-1,24
 -275 1253 -275 1253 -239 1258 c 1,25,-1
 -205 1218 l 1,26,-1
 -170 1258 l 1,27,28
 -123 1256 -123 1256 -92.5 1226 c 128,-1,29
 -62 1196 -62 1196 -62 1149 c 0,30,31
 -62 1107 -62 1107 -80 1074 c 1,32,33
 -9 1118 -9 1118 -9 1247 c 1,34,-1
 54 1247 l 1,0,1
-260 1086 m 256,35,36
 -260 1103 -260 1103 -270.5 1114 c 128,-1,37
 -281 1125 -281 1125 -298 1125 c 256,38,39
 -315 1125 -315 1125 -326 1114 c 128,-1,40
 -337 1103 -337 1103 -337 1086 c 256,41,42
 -337 1069 -337 1069 -325.5 1058.5 c 128,-1,43
 -314 1048 -314 1048 -298 1048 c 256,44,45
 -281 1048 -281 1048 -270.5 1058.5 c 128,-1,46
 -260 1069 -260 1069 -260 1086 c 256,35,36
EndSplineSet
Substitution2: "<23,16000>  in Thai lookup 63 nested-substitutions 5 subtable" uni0E4A.alt3
Substitution2: "<23,16000>  in Thai lookup 63 nested-substitutions 3 subtable" uni0E4A.alt1
Substitution2: "<23,16000>  in Thai lookup 63 nested-substitutions 2 subtable" uni0E4A.alt3
Substitution2: "<23,16000>  in Thai lookup 63 nested-substitutions 0 subtable" uni0E4A.alt2
Substitution2: "Single Substitution lookup 56 subtable" uni0E4A.alt2
EndChar

StartChar: uni0E4B
Encoding: 3659 3659 284
Width: 0
VWidth: 1504
Flags: W
LayerCount: 2
Fore
SplineSet
-2 1085 m 1,0,-1
 -80 1085 l 1,1,-1
 -80 1018 l 1,2,-1
 -162 1018 l 1,3,-1
 -162 1085 l 1,4,-1
 -235 1085 l 1,5,-1
 -235 1146 l 1,6,-1
 -162 1146 l 1,7,-1
 -162 1209 l 1,8,-1
 -80 1209 l 1,9,-1
 -80 1146 l 1,10,-1
 -2 1146 l 1,11,-1
 -2 1085 l 1,0,-1
EndSplineSet
Substitution2: "<23,16000>  in Thai lookup 63 nested-substitutions 5 subtable" uni0E4B.alt3
Substitution2: "<23,16000>  in Thai lookup 63 nested-substitutions 3 subtable" uni0E4B.alt1
Substitution2: "<23,16000>  in Thai lookup 63 nested-substitutions 2 subtable" uni0E4B.alt3
Substitution2: "<23,16000>  in Thai lookup 63 nested-substitutions 0 subtable" uni0E4B.alt2
Substitution2: "Single Substitution lookup 56 subtable" uni0E4B.alt2
EndChar

StartChar: uni0E4C
Encoding: 3660 3660 285
Width: 0
VWidth: 1504
Flags: W
LayerCount: 2
Fore
SplineSet
-15 1256 m 1,0,1
 -20 1200 -20 1200 -53 1172 c 0,2,3
 -79 1148 -79 1148 -138 1131 c 1,4,5
 -88 1107 -88 1107 -89 1051 c 0,6,7
 -89 1013 -89 1013 -115 987 c 128,-1,8
 -141 961 -141 961 -179 961 c 256,9,10
 -217 961 -217 961 -243 988 c 128,-1,11
 -269 1015 -269 1015 -269 1053 c 0,12,13
 -269 1148 -269 1148 -167 1181 c 0,14,15
 -120 1196 -120 1196 -107 1205 c 0,16,17
 -77 1223 -77 1223 -77 1256 c 1,18,-1
 -15 1256 l 1,0,1
-140 1051 m 256,19,20
 -140 1068 -140 1068 -150.5 1079.5 c 128,-1,21
 -161 1091 -161 1091 -177 1091 c 256,22,23
 -194 1091 -194 1091 -205.5 1079.5 c 128,-1,24
 -217 1068 -217 1068 -217 1051 c 256,25,26
 -217 1034 -217 1034 -205.5 1024 c 128,-1,27
 -194 1014 -194 1014 -177 1014 c 256,28,29
 -160 1014 -160 1014 -150 1024 c 128,-1,30
 -140 1034 -140 1034 -140 1051 c 256,19,20
EndSplineSet
Substitution2: "<23,16000>  in Thai lookup 63 nested-substitutions 5 subtable" uni0E4C.alt3
Substitution2: "<23,16000>  in Thai lookup 63 nested-substitutions 3 subtable" uni0E4C.alt1
Substitution2: "<23,16000>  in Thai lookup 63 nested-substitutions 2 subtable" uni0E4C.alt3
Substitution2: "<23,16000>  in Thai lookup 63 nested-substitutions 0 subtable" uni0E4C.alt2
Substitution2: "Single Substitution lookup 56 subtable" uni0E4C.alt2
EndChar

StartChar: uni0E4D
Encoding: 3661 3661 286
Width: 0
VWidth: 1504
Flags: W
LayerCount: 2
Fore
SplineSet
-17 826 m 0,0,1
 -17 773 -17 773 -53.5 736 c 128,-1,2
 -90 699 -90 699 -143 699 c 0,3,4
 -197 699 -197 699 -234 736 c 128,-1,5
 -271 773 -271 773 -271 826 c 256,6,7
 -271 879 -271 879 -233.5 916.5 c 128,-1,8
 -196 954 -196 954 -143 954 c 256,9,10
 -90 954 -90 954 -53.5 917 c 128,-1,11
 -17 880 -17 880 -17 826 c 0,0,1
-83 826 m 256,12,13
 -83 852 -83 852 -100 869.5 c 128,-1,14
 -117 887 -117 887 -143 887 c 256,15,16
 -169 887 -169 887 -187 869 c 128,-1,17
 -205 851 -205 851 -205 826 c 256,18,19
 -205 800 -205 800 -186.5 783 c 128,-1,20
 -168 766 -168 766 -143 766 c 256,21,22
 -117 766 -117 766 -100 783 c 128,-1,23
 -83 800 -83 800 -83 826 c 256,12,13
EndSplineSet
Substitution2: "<23,16000>  in Thai lookup 63 nested-substitutions 2 subtable" uni0E4D.alt1
Substitution2: "Single Substitution lookup 56 subtable" uni0E4D.alt1
EndChar

StartChar: uni0E4E
Encoding: 3662 3662 287
Width: 0
VWidth: 1504
Flags: W
LayerCount: 2
Fore
SplineSet
-153 698 m 1,0,1
 -183 684 -183 684 -229 684 c 0,2,3
 -270 684 -270 684 -299.5 709 c 128,-1,4
 -329 734 -329 734 -329 773 c 0,5,6
 -329 809 -329 809 -306 835.5 c 128,-1,7
 -283 862 -283 862 -248 868 c 1,8,9
 -263 891 -263 891 -263 915 c 0,10,11
 -263 965 -263 965 -224 990 c 0,12,13
 -189 1011 -189 1011 -140 1011 c 0,14,15
 -98 1011 -98 1011 -59 996 c 1,16,-1
 -81 940 l 1,17,18
 -111 951 -111 951 -141 951 c 0,19,20
 -197 951 -197 951 -197 915 c 0,21,22
 -197 874 -197 874 -119 866 c 1,23,-1
 -143 809 l 1,24,25
 -172 820 -172 820 -191 820 c 0,26,27
 -266 820 -266 820 -266 772 c 0,28,29
 -266 742 -266 742 -209 742 c 0,30,31
 -186 742 -186 742 -153 755 c 1,32,-1
 -153 698 l 1,0,1
EndSplineSet
Substitution2: "<23,16000>  in Thai lookup 63 nested-substitutions 2 subtable" uni0E4E.alt1
Substitution2: "Single Substitution lookup 56 subtable" uni0E4E.alt1
EndChar

StartChar: uni0E4F
Encoding: 3663 3663 288
Width: 676
VWidth: 1504
Flags: W
LayerCount: 2
Fore
SplineSet
435 245 m 0,0,1
 435 284 435 284 407 312.5 c 128,-1,2
 379 341 379 341 338 341 c 256,3,4
 297 341 297 341 269.5 312.5 c 128,-1,5
 242 284 242 284 242 245 c 0,6,7
 242 204 242 204 270 176.5 c 128,-1,8
 298 149 298 149 338 149 c 256,9,10
 379 149 379 149 407 176.5 c 128,-1,11
 435 204 435 204 435 245 c 0,0,1
487 245 m 256,12,13
 487 183 487 183 443.5 139 c 128,-1,14
 400 95 400 95 338 95 c 256,15,16
 276 95 276 95 233 139.5 c 128,-1,17
 190 184 190 184 190 245 c 256,18,19
 190 307 190 307 233.5 350.5 c 128,-1,20
 277 394 277 394 338 394 c 256,21,22
 400 394 400 394 443.5 350.5 c 128,-1,23
 487 307 487 307 487 245 c 256,12,13
540 245 m 0,24,25
 540 329 540 329 481.5 388 c 128,-1,26
 423 447 423 447 338 447 c 0,27,28
 255 447 255 447 196 388 c 128,-1,29
 137 329 137 329 137 245 c 256,30,31
 137 161 137 161 196.5 101.5 c 128,-1,32
 256 42 256 42 338 42 c 256,33,34
 421 42 421 42 480.5 102 c 128,-1,35
 540 162 540 162 540 245 c 0,24,25
593 245 m 0,36,37
 593 140 593 140 518.5 65.5 c 128,-1,38
 444 -9 444 -9 338 -9 c 256,39,40
 233 -9 233 -9 158.5 65.5 c 128,-1,41
 84 140 84 140 84 245 c 256,42,43
 84 350 84 350 158.5 424.5 c 128,-1,44
 233 499 233 499 338 499 c 0,45,46
 440 499 440 499 516.5 423 c 128,-1,47
 593 347 593 347 593 245 c 0,36,37
EndSplineSet
EndChar

StartChar: uni0E50
Encoding: 3664 3664 289
Width: 685
VWidth: 1504
Flags: W
LayerCount: 2
Fore
SplineSet
508 220 m 256,0,1
 508 289 508 289 459.5 329.5 c 128,-1,2
 411 370 411 370 343 370 c 256,3,4
 275 370 275 370 226 329.5 c 128,-1,5
 177 289 177 289 177 220 c 256,6,7
 177 151 177 151 226 110 c 128,-1,8
 275 69 275 69 343 69 c 256,9,10
 411 69 411 69 459.5 110 c 128,-1,11
 508 151 508 151 508 220 c 256,0,1
608 220 m 256,12,13
 608 116 608 116 522 48 c 0,14,15
 444 -14 444 -14 343 -14 c 0,16,17
 241 -14 241 -14 162 48 c 0,18,19
 76 116 76 116 77 220 c 256,20,21
 77 324 77 324 162 391 c 0,22,23
 240 453 240 453 343 453 c 0,24,25
 444 453 444 453 522 391 c 0,26,27
 608 324 608 324 608 220 c 256,12,13
EndSplineSet
EndChar

StartChar: uni0E51
Encoding: 3665 3665 290
Width: 685
VWidth: 1504
Flags: W
LayerCount: 2
Fore
SplineSet
614 179 m 0,0,1
 614 59 614 59 534 -30 c 1,2,-1
 423 -30 l 1,3,4
 525 68 525 68 525 179 c 0,5,6
 525 265 525 265 474.5 317 c 128,-1,7
 424 369 424 369 338 369 c 0,8,9
 264 369 264 369 212.5 323 c 128,-1,10
 161 277 161 277 161 209 c 0,11,12
 161 149 161 149 194 107.5 c 128,-1,13
 227 66 227 66 283 66 c 0,14,15
 306 66 306 66 328 74 c 1,16,17
 275 74 275 74 244 110 c 0,18,19
 215 142 215 142 215 184 c 0,20,21
 215 231 215 231 249.5 263 c 128,-1,22
 284 295 284 295 329 295 c 0,23,24
 385 295 385 295 418 257.5 c 128,-1,25
 451 220 451 220 451 164 c 0,26,27
 451 87 451 87 399 38 c 128,-1,28
 347 -11 347 -11 268 -11 c 0,29,30
 181 -11 181 -11 126 53 c 128,-1,31
 71 117 71 117 71 206 c 0,32,33
 71 313 71 313 152 382 c 128,-1,34
 233 451 233 451 341 451 c 0,35,36
 461 451 461 451 537.5 371.5 c 128,-1,37
 614 292 614 292 614 179 c 0,0,1
382 184 m 256,38,39
 382 205 382 205 367 220 c 128,-1,40
 352 235 352 235 331 235 c 256,41,42
 310 235 310 235 295 220 c 128,-1,43
 280 205 280 205 280 184 c 256,44,45
 280 163 280 163 295 147.5 c 128,-1,46
 310 132 310 132 331 132 c 256,47,48
 352 132 352 132 367 147.5 c 128,-1,49
 382 163 382 163 382 184 c 256,38,39
EndSplineSet
EndChar

StartChar: uni0E52
Encoding: 3666 3666 291
Width: 685
VWidth: 1504
Flags: W
LayerCount: 2
Fore
SplineSet
633 105 m 2,0,1
 633 0 633 0 532 0 c 2,2,-1
 143 0 l 2,3,4
 59 0 59 0 59 98 c 2,5,-1
 59 523 l 2,6,7
 59 543 59 543 44 549 c 0,8,9
 42 549 42 549 17 552 c 1,10,-1
 17 629 l 1,11,12
 83 629 83 629 113 609 c 0,13,14
 151 585 151 585 150 522 c 2,15,-1
 150 126 l 2,16,17
 150 78 150 78 193 78 c 2,18,-1
 502 78 l 2,19,20
 541 78 541 78 542 114 c 2,21,-1
 542 317 l 2,22,23
 542 371 542 371 508 372 c 0,24,25
 460 372 460 372 460 284 c 1,26,-1
 400 284 l 1,27,28
 383 374 383 374 329 375 c 0,29,30
 306 375 306 375 292 355 c 128,-1,31
 278 335 278 335 277 311 c 1,32,-1
 289 311 l 2,33,34
 333 311 333 311 362 282 c 128,-1,35
 391 253 391 253 391 211 c 0,36,37
 391 167 391 167 361.5 137.5 c 128,-1,38
 332 108 332 108 289 108 c 0,39,40
 172 108 172 108 171 244 c 0,41,42
 171 333 171 333 209 390 c 0,43,44
 251 455 251 455 329 454 c 0,45,46
 403 454 403 454 426 396 c 1,47,48
 452 455 452 455 514 454 c 0,49,50
 570 454 570 454 601.5 413.5 c 128,-1,51
 633 373 633 373 633 320 c 2,52,-1
 633 105 l 2,0,1
334 209 m 256,53,54
 334 229 334 229 321 241.5 c 128,-1,55
 308 254 308 254 289 254 c 256,56,57
 269 254 269 254 257 241.5 c 128,-1,58
 245 229 245 229 245 209 c 256,59,60
 245 189 245 189 257 177 c 128,-1,61
 269 165 269 165 289 165 c 256,62,63
 309 165 309 165 321.5 177 c 128,-1,64
 334 189 334 189 334 209 c 256,53,54
EndSplineSet
EndChar

StartChar: uni0E53
Encoding: 3667 3667 292
Width: 685
VWidth: 1504
Flags: W
LayerCount: 2
Fore
SplineSet
626 0 m 1,0,-1
 539 0 l 1,1,-1
 539 286 l 2,2,3
 539 372 539 372 478 372 c 0,4,5
 448 372 448 372 427 343 c 128,-1,6
 406 314 406 314 406 281 c 2,7,-1
 406 0 l 1,8,-1
 317 0 l 1,9,-1
 317 281 l 2,10,11
 317 370 317 370 221 370 c 0,12,13
 167 370 167 370 141 305 c 0,14,15
 123 258 123 258 123 197 c 1,16,17
 147 211 147 211 176 211 c 0,18,19
 223 211 223 211 256 180 c 128,-1,20
 289 149 289 149 289 101 c 0,21,22
 289 56 289 56 259 26 c 1,23,24
 227 -9 227 -9 174 -11 c 0,25,26
 102 -13 102 -13 66 59 c 0,27,28
 39 115 39 115 39 194 c 0,29,30
 39 296 39 296 83 369 c 0,31,32
 134 453 134 453 226 453 c 0,33,34
 315 453 315 453 360 385 c 1,35,36
 402 454 402 454 481 453 c 0,37,38
 550 453 550 453 588 405.5 c 128,-1,39
 626 358 626 358 626 287 c 2,40,-1
 626 0 l 1,0,-1
226 96 m 256,41,42
 226 117 226 117 211.5 131.5 c 128,-1,43
 197 146 197 146 176 146 c 256,44,45
 155 146 155 146 141.5 131.5 c 128,-1,46
 128 117 128 117 128 96 c 256,47,48
 128 75 128 75 141.5 61.5 c 128,-1,49
 155 48 155 48 176 48 c 256,50,51
 197 48 197 48 211.5 61.5 c 128,-1,52
 226 75 226 75 226 96 c 256,41,42
EndSplineSet
EndChar

StartChar: uni0E54
Encoding: 3668 3668 293
Width: 685
VWidth: 1504
Flags: W
LayerCount: 2
Fore
SplineSet
605 -14 m 1,0,1
 521 27 521 27 465 27 c 0,2,3
 427 27 427 27 356.5 8 c 128,-1,4
 286 -11 286 -11 250 -11 c 0,5,6
 151 -11 151 -11 89 54 c 1,7,8
 29 114 29 114 29 208 c 0,9,10
 29 456 29 456 350 456 c 0,11,12
 478 456 478 456 532 475 c 0,13,14
 621 507 621 507 641 629 c 1,15,-1
 727 629 l 1,16,17
 694 465 694 465 600 411 c 0,18,19
 535 373 535 373 372 373 c 0,20,21
 256 373 256 373 205 352 c 0,22,23
 122 316 122 316 122 214 c 0,24,25
 122 155 122 155 162 110.5 c 128,-1,26
 202 66 202 66 247 66 c 0,27,28
 256 66 256 66 361 83 c 1,29,30
 223 119 223 119 223 227 c 0,31,32
 223 277 223 277 256 308.5 c 128,-1,33
 289 340 289 340 334 340 c 0,34,35
 382 340 382 340 412 306 c 128,-1,36
 442 272 442 272 442 229 c 0,37,38
 442 176 442 176 397 140 c 1,39,40
 421 128 421 128 462 120 c 1,41,42
 504 114 504 114 545.5 104.5 c 128,-1,43
 587 95 587 95 648 57 c 1,44,-1
 605 -14 l 1,0,1
376 230 m 256,45,46
 376 250 376 250 363 262.5 c 128,-1,47
 350 275 350 275 331 275 c 256,48,49
 311 275 311 275 298.5 262.5 c 128,-1,50
 286 250 286 250 286 230 c 256,51,52
 286 210 286 210 298.5 197.5 c 128,-1,53
 311 185 311 185 331 185 c 256,54,55
 351 185 351 185 363.5 197.5 c 128,-1,56
 376 210 376 210 376 230 c 256,45,46
EndSplineSet
EndChar

StartChar: uni0E55
Encoding: 3669 3669 294
Width: 685
VWidth: 1504
Flags: W
LayerCount: 2
Fore
SplineSet
605 -14 m 1,0,1
 521 27 521 27 465 27 c 0,2,3
 427 27 427 27 356.5 8 c 128,-1,4
 286 -11 286 -11 250 -11 c 0,5,6
 151 -11 151 -11 89 54 c 1,7,8
 29 114 29 114 29 208 c 0,9,10
 29 435 29 435 296 454 c 1,11,12
 267 483 267 483 268 526 c 256,13,14
 268 570 268 570 298 599.5 c 128,-1,15
 328 629 328 629 370 629 c 0,16,17
 414 629 414 629 443 599.5 c 128,-1,18
 472 570 472 570 472 526 c 0,19,20
 472 487 472 487 447 457 c 1,21,22
 497 462 497 462 532 475 c 0,23,24
 621 508 621 508 641 629 c 1,25,-1
 727 629 l 1,26,27
 694 465 694 465 600 411 c 0,28,29
 535 373 535 373 372 373 c 0,30,31
 256 373 256 373 205 352 c 0,32,33
 122 316 122 316 122 214 c 0,34,35
 122 155 122 155 162 110.5 c 128,-1,36
 202 66 202 66 247 66 c 0,37,38
 256 66 256 66 361 83 c 1,39,40
 223 119 223 119 223 227 c 0,41,42
 223 277 223 277 256 308.5 c 128,-1,43
 289 340 289 340 334 340 c 0,44,45
 382 340 382 340 412 306 c 128,-1,46
 442 272 442 272 442 229 c 0,47,48
 442 176 442 176 397 140 c 1,49,50
 421 128 421 128 462 120 c 0,51,52
 510 112 510 112 548.5 103.5 c 128,-1,53
 587 95 587 95 648 57 c 1,54,-1
 605 -14 l 1,0,1
376 230 m 256,55,56
 376 250 376 250 363 262.5 c 128,-1,57
 350 275 350 275 331 275 c 256,58,59
 311 275 311 275 298.5 262.5 c 128,-1,60
 286 250 286 250 286 230 c 256,61,62
 286 210 286 210 298.5 197.5 c 128,-1,63
 311 185 311 185 331 185 c 256,64,65
 351 185 351 185 363.5 197.5 c 128,-1,66
 376 210 376 210 376 230 c 256,55,56
415 525 m 256,67,68
 415 545 415 545 402.5 557.5 c 128,-1,69
 390 570 390 570 370 570 c 256,70,71
 350 570 350 570 337.5 557.5 c 128,-1,72
 325 545 325 545 325 525 c 256,73,74
 325 505 325 505 337.5 492.5 c 128,-1,75
 350 480 350 480 370 480 c 256,76,77
 390 480 390 480 402.5 492.5 c 128,-1,78
 415 505 415 505 415 525 c 256,67,68
EndSplineSet
EndChar

StartChar: uni0E56
Encoding: 3670 3670 295
Width: 685
VWidth: 1504
Flags: W
LayerCount: 2
Fore
SplineSet
642 230 m 0,0,1
 642 110 642 110 549 44 c 0,2,3
 469 -13 469 -13 353 -14 c 0,4,5
 255 -14 255 -14 205 8 c 0,6,7
 104 49 104 49 104 135 c 0,8,9
 104 185 104 185 134.5 218 c 128,-1,10
 165 251 165 251 215 251 c 256,11,12
 265 251 265 251 298 218 c 128,-1,13
 331 185 331 185 331 138 c 0,14,15
 331 96 331 96 311 72 c 1,16,17
 322 70 322 70 346 71 c 0,18,19
 430 71 430 71 486 107 c 1,20,21
 552 148 552 148 552 227 c 0,22,23
 552 298 552 298 495 335 c 0,24,25
 445 368 445 368 373 369 c 0,26,27
 209 369 209 369 140 274 c 1,28,-1
 108 274 l 1,29,30
 103 397 103 397 92 459 c 0,31,32
 71 558 71 558 17 629 c 1,33,-1
 119 629 l 1,34,35
 173 531 173 531 181 412 c 1,36,37
 246 453 246 453 370 453 c 0,38,39
 484 453 484 453 558 400 c 0,40,41
 642 340 642 340 642 230 c 0,0,1
268 138 m 256,42,43
 268 159 268 159 253.5 173.5 c 128,-1,44
 239 188 239 188 218 188 c 256,45,46
 197 188 197 188 183.5 173.5 c 128,-1,47
 170 159 170 159 170 138 c 256,48,49
 170 117 170 117 183.5 103.5 c 128,-1,50
 197 90 197 90 218 90 c 256,51,52
 239 90 239 90 253.5 103.5 c 128,-1,53
 268 117 268 117 268 138 c 256,42,43
EndSplineSet
EndChar

StartChar: uni0E57
Encoding: 3671 3671 296
Width: 685
VWidth: 1504
Flags: W
LayerCount: 2
Fore
SplineSet
657 347 m 0,0,1
 657 168 657 168 603 89 c 0,2,3
 538 -4 538 -4 382 -5 c 1,4,5
 444 162 444 162 444 283 c 0,6,7
 444 312 444 312 433 338 c 0,8,9
 418 374 418 374 394 375 c 0,10,11
 367 375 367 375 350 340 c 0,12,13
 338 311 338 311 338 281 c 2,14,-1
 338 221 l 1,15,-1
 248 221 l 1,16,-1
 248 278 l 2,17,18
 248 374 248 374 181 375 c 0,19,20
 145 375 145 375 125 323 c 0,21,22
 110 282 110 282 110 227 c 2,23,-1
 110 211 l 1,24,25
 137 223 137 223 158 223 c 0,26,27
 205 223 205 223 239.5 189 c 128,-1,28
 274 155 274 155 274 105 c 0,29,30
 274 57 274 57 241 25.5 c 128,-1,31
 208 -6 208 -6 158 -6 c 0,32,33
 84 -6 84 -6 48 69 c 0,34,35
 21 126 21 126 21 212 c 0,36,37
 21 304 21 304 53 369 c 0,38,39
 95 453 95 453 177 453 c 0,40,41
 258 453 258 453 292 394 c 1,42,43
 327 453 327 453 388 453 c 0,44,45
 462 453 462 453 499 394 c 0,46,47
 531 346 531 346 531 269 c 0,48,49
 531 191 531 191 508 107 c 1,50,51
 571 149 571 149 572 329 c 0,52,53
 572 564 572 564 602 629 c 1,54,-1
 693 629 l 1,55,56
 655 573 655 573 656 467.5 c 128,-1,57
 657 362 657 362 657 347 c 0,0,1
208 108 m 256,58,59
 208 129 208 129 192 145 c 128,-1,60
 176 161 176 161 155 161 c 256,61,62
 134 161 134 161 119 145 c 128,-1,63
 104 129 104 129 104 108 c 256,64,65
 104 87 104 87 119 72 c 128,-1,66
 134 57 134 57 155 57 c 256,67,68
 176 57 176 57 192 72 c 128,-1,69
 208 87 208 87 208 108 c 256,58,59
EndSplineSet
EndChar

